<?xml version="1.0" encoding="utf-8"?>
<svg version="1.1" id="Layer_1" x="0px" y="0px" viewBox="-289 381 32 32" style="enable-background:new -289 381 32 32;" xmlns="http://www.w3.org/2000/svg">
  <style type="text/css">
	.st0{fill:#2188C9;stroke:#2188C9;stroke-width:0.5;stroke-miterlimit:10;}
	.st1{fill:none;stroke:#0c2c63;stroke-width:1.2;stroke-miterlimit:10;}
	.st2{fill:none;stroke:#2188C9;stroke-width:1.2;stroke-miterlimit:10;}
</style>
  <g>
    <path class="st1" d="M-267.8,403.1v3.7c0,1.5-1.3,2.8-2.8,2.8h-10.3c-1.5,0-2.8-1.3-2.8-2.8v-19.6c0-1.5,1.3-2.8,2.8-2.8h10.3 c1.5,0,2.8,1.3,2.8,2.8v1.9 M-283.8,388.1h15.9 M-283.8,404h15.9 M-278.2,406.8h4.7"/>
    <path class="st2" d="M-272.8,402.5L-272.8,402.5c-0.5,0-0.8-0.1-0.9-0.4c0-0.1-0.1-0.3,0.1-0.6l0.7-0.9c0.1-0.1,0.1-0.2,0.1-0.2 c-1.1-1.1-1.7-2.6-1.7-4.2c0-3.4,2.7-6.1,6.1-6.1c3.4,0,6.1,2.7,6.1,6.1c0,3.4-2.7,6.1-6.1,6.1c-0.7,0-1.3-0.1-1.9-0.3 c0,0,0,0-0.1,0c-0.2,0.1-0.5,0.2-0.7,0.3c-0.1,0-0.2,0-0.2,0.1h-0.1C-271.8,402.4-272.3,402.5-272.8,402.5z"/>
    <g transform="matrix(0.015539, 0, 0, 0.014401, -272.475098, 392.904205)" style="">
      <path d="m255.991 169.039c-30.327 0-55 24.673-55 55 0 25.127 16.943 46.356 40 52.904v171.096c0 8.284 6.716 15 15 15s15-6.716 15-15v-171.096c23.057-6.547 40-27.777 40-52.904 0-30.327-24.673-55-55-55zm0 80c-13.785 0-25-11.215-25-25s11.215-25 25-25 25 11.215 25 25-11.215 25-25 25z" style="fill: rgb(33, 136, 201);"/>
      <path d="m186.597 143.845c-5.857-5.858-15.354-5.858-21.213 0-46.505 46.503-46.512 121.781 0 168.291 5.859 5.858 15.355 5.858 21.213 0 5.858-5.857 5.858-15.355 0-21.213-34.78-34.779-34.786-91.08 0-125.865 5.858-5.858 5.858-15.356 0-21.213z" style="fill: rgb(33, 136, 201);"/>
      <path d="m346.597 143.845c-5.857-5.857-15.355-5.857-21.213 0s-5.858 15.355 0 21.213c34.701 34.701 34.701 91.164 0 125.865-5.858 5.857-5.858 15.355 0 21.213 5.859 5.858 15.355 5.858 21.213 0 46.399-46.397 46.399-121.894 0-168.291z" style="fill: rgb(33, 136, 201);"/>
      <path d="m141.342 119.803c5.858-5.857 5.858-15.355 0-21.213-5.857-5.857-15.355-5.857-21.213 0-71.352 71.352-71.352 187.449 0 258.801 5.856 5.857 15.354 5.86 21.213 0 5.858-5.857 5.858-15.355 0-21.213-59.654-59.655-59.654-156.72 0-216.375z" style="fill: rgb(33, 136, 201);"/>
      <path d="m391.852 98.59c-5.857-5.857-15.355-5.857-21.213 0s-5.858 15.355 0 21.213c59.654 59.655 59.654 156.72 0 216.375-5.858 5.857-5.858 15.355 0 21.213 5.859 5.858 15.355 5.858 21.213 0 71.352-71.352 71.352-187.449 0-258.801z" style="fill: rgb(33, 136, 201);"/>
      <path d="m96.087 74.548c5.858-5.857 5.858-15.355 0-21.213-5.857-5.857-15.355-5.857-21.213 0-99.941 99.94-99.724 249.587 0 349.311 5.856 5.857 15.354 5.86 21.213 0 5.858-5.857 5.858-15.355 0-21.213-87.475-87.477-87.475-219.408 0-306.885z" style="fill: rgb(33, 136, 201);"/>
      <path d="m437.107 53.335c-5.857-5.857-15.355-5.857-21.213 0s-5.858 15.355 0 21.213c87.477 87.477 87.477 219.408 0 306.885-5.858 5.857-5.858 15.355 0 21.213 5.859 5.858 15.355 5.858 21.213 0 99.94-99.939 99.725-249.587 0-349.311z" style="fill: rgb(33, 136, 201);"/>
    </g>
  </g>
</svg>