<svg xmlns:dc="http://purl.org/dc/elements/1.1/" xmlns:cc="http://creativecommons.org/ns#" xmlns:rdf="http://www.w3.org/1999/02/22-rdf-syntax-ns#" xmlns:svg="http://www.w3.org/2000/svg" xmlns="http://www.w3.org/2000/svg" viewBox="125.13 419.67 883.59 294.52" xml:space="preserve" id="svg2" version="1.1"><metadata id="metadata8"><rdf:rdf><cc:work rdf:about=""><dc:format>image/svg+xml</dc:format><dc:type rdf:resource="http://purl.org/dc/dcmitype/StillImage"></dc:type></cc:work></rdf:rdf></metadata><defs id="defs6"><clipPath id="clipPath18" clipPathUnits="userSpaceOnUse"><path id="path16" d="M 0,850.394 H 850.394 V 0 H 0 Z"></path></clipPath></defs><g transform="matrix(1.3333333,0,0,-1.3333333,0,1133.8587)" id="g10"><g id="g12"><g clip-path="url(#clipPath18)" id="g14"><g transform="translate(361.0446,352.4686)" id="g20"><path id="path22" style="fill:#3a3a3a;fill-opacity:1;fill-rule:nonzero;stroke:none" d="m 0,0 c 0,-0.275 -0.087,-0.526 -0.309,-0.722 -0.212,-0.195 -0.444,-0.299 -0.714,-0.299 h -2.192 c -0.599,0 -0.985,0.2 -1.178,0.577 L -15.39,20.463 c -0.038,0.055 -0.077,0.09 -0.077,0.09 -0.048,0 -0.068,-0.035 -0.068,-0.09 V -0.338 c 0,-0.188 -0.048,-0.345 -0.183,-0.471 -0.106,-0.142 -0.27,-0.212 -0.454,-0.212 h -1.844 c -0.444,0 -0.647,0.145 -0.647,0.442 v 25.012 c 0,0.288 0.107,0.515 0.29,0.708 0.193,0.203 0.444,0.294 0.734,0.294 h 1.95 c 0.483,0 0.821,-0.048 0.985,-0.142 0.183,-0.099 0.347,-0.288 0.492,-0.562 L -3.254,3.934 -3.206,3.833 c 0.039,0 0.049,0.041 0.049,0.101 v 20.83 c 0,0.184 0.058,0.348 0.193,0.478 0.116,0.128 0.27,0.193 0.473,0.193 h 1.854 c 0.193,0 0.367,-0.065 0.482,-0.178 C -0.058,25.117 0,24.962 0,24.764 Z"></path></g><g transform="translate(378.0855,354.2328)" id="g24"><path id="path26" style="fill:#3a3a3a;fill-opacity:1;fill-rule:nonzero;stroke:none" d="m 0,0 v 14.028 c -1.42,0.249 -2.723,0.382 -3.978,0.382 -0.879,0 -1.632,-0.104 -2.249,-0.334 -0.618,-0.212 -1.121,-0.581 -1.507,-1.071 -0.357,-0.48 -0.647,-1.12 -0.801,-1.873 -0.164,-0.77 -0.261,-1.707 -0.261,-2.8 V 5.72 c 0,-1.501 0.184,-2.701 0.541,-3.603 0.347,-0.879 0.879,-1.531 1.574,-1.917 0.705,-0.396 1.612,-0.593 2.703,-0.593 0.58,0 1.236,0.033 2.018,0.111 C -1.188,-0.215 -0.541,-0.111 0,0 m -4.509,-7.234 c 1.159,0 2.057,0.131 2.694,0.377 0.627,0.236 1.1,0.673 1.409,1.32 C -0.145,-4.89 0,-3.978 0,-2.781 v 0.244 C -0.444,-2.65 -1.091,-2.761 -1.931,-2.879 -2.742,-2.966 -3.418,-3.01 -3.978,-3.01 c -5.31,0 -7.955,2.904 -7.955,8.73 v 2.612 c 0,1.977 0.289,3.613 0.859,4.898 0.589,1.291 1.467,2.254 2.645,2.882 1.198,0.634 2.675,0.948 4.451,0.948 1.863,0 3.997,-0.275 6.372,-0.828 0.3,-0.048 0.502,-0.128 0.589,-0.251 0.107,-0.099 0.154,-0.292 0.154,-0.565 V -2.781 c 0,-2.544 -0.627,-4.357 -1.93,-5.411 -1.275,-1.065 -3.186,-1.586 -5.716,-1.586 -1.265,0 -2.394,0.145 -3.466,0.427 -1.062,0.299 -1.864,0.594 -2.394,0.91 -0.339,0.198 -0.512,0.48 -0.512,0.811 v 1.181 c 0,0.207 0.077,0.359 0.222,0.47 0.155,0.104 0.367,0.104 0.599,0 1.197,-0.459 2.152,-0.794 2.829,-0.973 0.675,-0.186 1.583,-0.282 2.722,-0.282"></path></g><g transform="translate(401.6045,352.1641)" id="g28"><path id="path30" style="fill:#3a3a3a;fill-opacity:1;fill-rule:nonzero;stroke:none" d="m 0,0 c 0,-0.193 -0.097,-0.367 -0.232,-0.497 -0.155,-0.155 -0.319,-0.215 -0.502,-0.215 h -1.699 c -0.193,0 -0.348,0.06 -0.502,0.215 -0.135,0.13 -0.222,0.304 -0.222,0.497 v 11.726 c 0,1.704 -0.319,2.913 -0.966,3.615 -0.656,0.688 -1.602,1.036 -2.857,1.036 -0.647,0 -1.449,-0.077 -2.424,-0.254 -0.956,-0.164 -1.786,-0.414 -2.481,-0.733 V 0 c 0,-0.183 -0.078,-0.345 -0.222,-0.482 -0.126,-0.158 -0.309,-0.23 -0.502,-0.23 h -1.719 c -0.183,0 -0.338,0.06 -0.473,0.215 -0.135,0.13 -0.222,0.304 -0.222,0.497 v 25.353 c 0,0.208 0.068,0.375 0.213,0.503 0.106,0.144 0.279,0.212 0.482,0.212 h 1.757 c 0.213,0 0.386,-0.068 0.512,-0.212 0.116,-0.128 0.174,-0.295 0.174,-0.503 v -7.342 c 0.83,0.377 1.718,0.647 2.722,0.838 0.956,0.185 1.874,0.28 2.733,0.28 1.274,0 2.414,-0.256 3.36,-0.778 0.965,-0.509 1.737,-1.324 2.259,-2.456 C -0.29,14.777 0,13.399 0,11.726 Z"></path></g><g transform="translate(410.3708,352.1641)" id="g32"><path id="path34" style="fill:#3a3a3a;fill-opacity:1;fill-rule:nonzero;stroke:none" d="m 0,0 c 0,-0.205 -0.068,-0.376 -0.203,-0.507 -0.135,-0.145 -0.309,-0.205 -0.511,-0.205 h -1.709 c -0.164,0 -0.319,0.06 -0.464,0.215 -0.164,0.13 -0.241,0.304 -0.241,0.497 v 18.159 c 0,0.192 0.077,0.356 0.222,0.499 0.125,0.13 0.299,0.205 0.483,0.205 h 1.709 c 0.231,0 0.395,-0.075 0.54,-0.188 C -0.058,18.547 0,18.373 0,18.159 Z m 5.465,24.97 c 0,-1.267 -0.271,-2.18 -0.802,-2.81 -0.54,-0.622 -1.4,-0.944 -2.558,-0.944 -0.889,0 -1.651,0.271 -2.279,0.766 l -2.182,1.721 c -0.395,0.345 -0.695,0.564 -0.849,0.651 -0.184,0.097 -0.396,0.152 -0.618,0.152 -0.415,0 -0.696,-0.14 -0.86,-0.405 -0.154,-0.266 -0.241,-0.676 -0.241,-1.238 v -0.748 c 0,-0.167 -0.048,-0.329 -0.164,-0.44 -0.126,-0.111 -0.261,-0.171 -0.444,-0.171 h -1.101 c -0.183,0 -0.309,0.06 -0.415,0.179 -0.116,0.127 -0.164,0.269 -0.164,0.432 v 0.748 c 0,1.262 0.299,2.222 0.879,2.877 0.608,0.668 1.448,0.999 2.51,0.999 0.695,0 1.4,-0.28 2.143,-0.85 l 2.52,-1.986 c 0.232,-0.159 0.454,-0.273 0.676,-0.372 0.222,-0.087 0.425,-0.128 0.589,-0.128 0.367,0 0.627,0.112 0.801,0.341 0.164,0.236 0.261,0.646 0.261,1.226 v 0.815 c 0,0.16 0.048,0.3 0.174,0.426 0.135,0.118 0.251,0.176 0.434,0.176 h 1.12 c 0.135,0 0.27,-0.058 0.386,-0.191 0.116,-0.123 0.184,-0.263 0.184,-0.411 z"></path></g><g transform="translate(426.3207,352.1641)" id="g36"><path id="path38" style="fill:#3a3a3a;fill-opacity:1;fill-rule:nonzero;stroke:none" d="m 0,0 v 17.161 c 0,0.469 0.212,0.768 0.637,0.85 1.564,0.391 2.887,0.686 4.026,0.852 1.11,0.181 2.163,0.266 3.119,0.266 0.849,0 1.631,-0.119 2.375,-0.365 0.762,-0.227 1.332,-0.584 1.747,-1.057 2.066,0.968 4.036,1.456 5.918,1.456 1.15,0 2.154,-0.216 2.993,-0.626 0.84,-0.42 1.516,-1.113 2.028,-2.097 0.493,-0.958 0.734,-2.24 0.734,-3.831 L 23.577,0 c 0,-0.205 -0.058,-0.376 -0.193,-0.507 -0.135,-0.145 -0.309,-0.205 -0.502,-0.205 h -1.709 c -0.193,0 -0.328,0.06 -0.512,0.215 -0.154,0.13 -0.184,0.304 -0.184,0.497 v 12.609 c 0,1.4 -0.309,2.39 -0.878,2.955 -0.55,0.559 -1.371,0.845 -2.365,0.845 -1.159,0 -2.559,-0.312 -4.191,-0.951 0.213,-0.819 0.309,-1.755 0.309,-2.784 L 13.352,0 c 0,-0.183 -0.038,-0.345 -0.164,-0.482 -0.125,-0.158 -0.29,-0.23 -0.463,-0.23 h -1.912 c -0.154,0 -0.318,0.06 -0.425,0.215 -0.106,0.13 -0.164,0.304 -0.164,0.497 v 12.674 c 0,1.007 -0.106,1.772 -0.309,2.325 -0.183,0.543 -0.492,0.934 -0.869,1.117 -0.386,0.203 -0.917,0.293 -1.564,0.293 -1.381,0 -2.819,-0.199 -4.345,-0.601 L 3.137,0 C 3.137,-0.205 3.07,-0.376 2.954,-0.507 2.848,-0.652 2.684,-0.712 2.491,-0.712 H 0.579 c -0.144,0 -0.289,0.06 -0.406,0.215 C 0.058,-0.367 0,-0.193 0,0"></path></g><g transform="translate(468.1257,378.9322)" id="g40"><path id="path42" style="fill:#3a3a3a;fill-opacity:1;fill-rule:nonzero;stroke:none" d="m 0,0 c 0,-0.082 -0.048,-0.174 -0.155,-0.265 l -4.016,-4.488 c -0.212,-0.246 -0.357,-0.374 -0.425,-0.451 -0.087,-0.061 -0.222,-0.097 -0.376,-0.097 h -1.951 c -0.212,0 -0.318,0.094 -0.318,0.247 0,0.154 0.058,0.282 0.145,0.369 l 3.495,4.42 c 0.183,0.226 0.337,0.373 0.405,0.439 0.106,0.045 0.261,0.077 0.454,0.077 h 2.337 C -0.135,0.251 0,0.174 0,0 m -0.676,-19.047 v 2.72 c 0,1.227 -0.174,2.304 -0.521,3.179 -0.338,0.884 -0.879,1.565 -1.574,2.043 -0.705,0.482 -1.612,0.714 -2.703,0.714 -1.622,0 -2.81,-0.509 -3.601,-1.547 -0.792,-1.048 -1.188,-2.503 -1.188,-4.389 v -2.72 c 0,-3.96 1.593,-5.947 4.789,-5.947 1.602,0 2.809,0.514 3.591,1.542 0.811,1.033 1.207,2.506 1.207,4.405 m 2.945,4.869 c 0.135,-0.676 0.183,-1.39 0.183,-2.149 v -2.72 c 0,-2.667 -0.675,-4.776 -2.047,-6.343 -1.37,-1.552 -3.321,-2.319 -5.879,-2.319 -2.559,0 -4.519,0.767 -5.88,2.319 -1.371,1.567 -2.047,3.676 -2.047,6.343 v 2.72 c 0,2.665 0.676,4.777 2.047,6.344 1.361,1.566 3.321,2.344 5.88,2.344 2.558,0 4.528,-0.778 5.889,-2.327 0.386,-0.459 0.705,-0.949 1.004,-1.487 0.319,0.367 0.473,0.799 0.493,1.277 v 1.839 c 0,0.246 0.193,0.398 0.598,0.411 h 1.439 c 0.27,0 0.444,-0.112 0.483,-0.353 0.27,-2.93 -0.425,-4.895 -2.163,-5.899"></path></g><g transform="translate(478.852,352.1641)" id="g44"><path id="path46" style="fill:#3a3a3a;fill-opacity:1;fill-rule:nonzero;stroke:none" d="m 0,0 c 0,-0.205 -0.077,-0.376 -0.213,-0.507 -0.135,-0.145 -0.308,-0.205 -0.501,-0.205 h -1.719 c -0.164,0 -0.318,0.06 -0.463,0.215 -0.174,0.13 -0.232,0.304 -0.232,0.497 v 18.165 c 0,0.186 0.058,0.35 0.203,0.493 0.125,0.13 0.309,0.205 0.492,0.205 h 1.719 c 0.222,0 0.396,-0.075 0.531,-0.188 C -0.077,18.547 0,18.373 0,18.165 Z M 0.058,22.72 C 0.058,22.517 0,22.346 -0.135,22.216 -0.29,22.081 -0.473,22.013 -0.647,22.013 h -1.815 c -0.202,0 -0.376,0.07 -0.502,0.203 -0.145,0.137 -0.213,0.316 -0.213,0.504 v 2.841 c 0,0.193 0.068,0.362 0.204,0.507 0.125,0.126 0.309,0.2 0.511,0.2 h 1.815 c 0.222,0 0.377,-0.057 0.512,-0.195 C 0,25.945 0.058,25.785 0.058,25.561 Z"></path></g><g transform="translate(488.7484,355.6595)" id="g48"><path id="path50" style="fill:#3a3a3a;fill-opacity:1;fill-rule:nonzero;stroke:none" d="m 0,0 c 0,-0.058 -0.019,-0.167 -0.068,-0.297 l -2.665,-6.732 c -0.096,-0.224 -0.183,-0.396 -0.279,-0.507 -0.097,-0.108 -0.222,-0.162 -0.396,-0.162 h -1.767 c -0.27,0 -0.405,0.141 -0.405,0.43 0,0.119 0.009,0.203 0.038,0.239 l 2.037,6.732 c 0.135,0.459 0.367,0.69 0.715,0.69 h 2.346 C -0.155,0.393 0,0.251 0,0"></path></g><g transform="translate(506.8604,352.1641)" id="g52"><path id="path54" style="fill:#3a3a3a;fill-opacity:1;fill-rule:nonzero;stroke:none" d="m 0,0 c 0,-0.205 -0.058,-0.376 -0.164,-0.507 -0.116,-0.145 -0.28,-0.205 -0.492,-0.205 h -1.825 c -0.183,0 -0.357,0.06 -0.464,0.205 C -3.07,-0.376 -3.128,-0.205 -3.128,0 v 25.388 c 0,0.169 0.048,0.323 0.174,0.463 0.116,0.133 0.27,0.217 0.473,0.217 h 1.825 c 0.212,0 0.376,-0.068 0.492,-0.196 C -0.058,25.74 0,25.583 0,25.388 Z"></path></g><g transform="translate(523.1677,353.9698)" id="g56"><path id="path58" style="fill:#3a3a3a;fill-opacity:1;fill-rule:nonzero;stroke:none" d="M 0,0 V 6.932 L -2.665,6.927 c -1.12,0 -2.018,-0.06 -2.684,-0.186 C -6.034,6.604 -6.566,6.415 -6.961,6.136 -7.367,5.865 -7.637,5.52 -7.821,5.086 -7.975,4.673 -8.072,4.127 -8.072,3.471 V 3.147 c 0,-0.825 0.126,-1.496 0.396,-2.001 0.261,-0.511 0.724,-0.883 1.4,-1.115 0.686,-0.229 1.622,-0.34 2.829,-0.34 0.473,0 0.956,0.009 1.381,0.044 0.434,0.028 0.849,0.067 1.197,0.115 C -0.531,-0.099 -0.232,-0.053 0,0 m -1.4,19.908 c 0,-0.152 -0.106,-0.236 -0.319,-0.236 H -3.65 c -0.116,0 -0.212,0.009 -0.28,0.053 -0.096,0.031 -0.164,0.077 -0.251,0.152 -0.077,0.06 -0.164,0.181 -0.28,0.33 l -4.026,4.487 c -0.096,0.094 -0.144,0.186 -0.144,0.268 0,0.174 0.144,0.251 0.395,0.251 h 2.337 c 0.309,0 0.618,-0.185 0.897,-0.519 l 3.447,-4.417 C -1.439,20.19 -1.4,20.063 -1.4,19.908 M 3.128,-1.159 c 0,-0.434 -0.193,-0.702 -0.541,-0.787 -0.927,-0.253 -1.863,-0.465 -2.819,-0.603 -0.946,-0.138 -1.998,-0.198 -3.215,-0.198 -2.761,0 -4.769,0.459 -5.966,1.383 -1.208,0.936 -1.825,2.431 -1.825,4.482 V 3.43 c 0,1.32 0.289,2.425 0.849,3.266 0.56,0.851 1.477,1.472 2.723,1.884 1.274,0.418 2.945,0.621 5.001,0.621 H 0 v 1.424 c 0,1.489 -0.28,2.515 -0.869,3.077 -0.57,0.58 -1.545,0.867 -2.945,0.867 -1.091,0 -2.018,-0.075 -2.8,-0.212 -0.753,-0.145 -1.651,-0.363 -2.665,-0.669 -0.241,-0.09 -0.434,-0.077 -0.608,0.014 -0.144,0.09 -0.212,0.234 -0.212,0.442 v 1.388 c 0,0.275 0.164,0.504 0.482,0.639 0.551,0.24 1.362,0.493 2.443,0.754 1.072,0.263 2.202,0.398 3.36,0.398 4.615,0 6.942,-2.238 6.942,-6.698 z"></path></g><g transform="translate(531.6443,352.1641)" id="g60"><path id="path62" style="fill:#3a3a3a;fill-opacity:1;fill-rule:nonzero;stroke:none" d="m 0,0 v 17.161 c 0,0.469 0.222,0.768 0.647,0.85 1.554,0.391 2.877,0.686 4.016,0.852 1.12,0.181 2.163,0.266 3.138,0.266 0.84,0 1.603,-0.119 2.346,-0.365 0.773,-0.227 1.342,-0.584 1.767,-1.057 2.076,0.968 4.045,1.456 5.899,1.456 1.149,0 2.153,-0.216 2.983,-0.626 0.869,-0.42 1.555,-1.113 2.047,-2.097 0.493,-0.958 0.753,-2.24 0.753,-3.831 V 0 c 0,-0.205 -0.077,-0.376 -0.222,-0.507 -0.125,-0.145 -0.318,-0.205 -0.492,-0.205 h -1.718 c -0.184,0 -0.329,0.06 -0.483,0.215 -0.165,0.13 -0.213,0.304 -0.213,0.497 v 12.609 c 0,1.4 -0.299,2.39 -0.878,2.955 -0.541,0.559 -1.352,0.845 -2.366,0.845 -1.139,0 -2.539,-0.312 -4.18,-0.951 0.232,-0.819 0.318,-1.755 0.318,-2.784 L 13.362,0 c 0,-0.183 -0.048,-0.345 -0.164,-0.482 -0.126,-0.158 -0.28,-0.23 -0.482,-0.23 h -1.883 c -0.174,0 -0.319,0.06 -0.435,0.215 -0.116,0.13 -0.173,0.304 -0.173,0.497 v 12.674 c 0,1.007 -0.097,1.772 -0.3,2.325 -0.183,0.543 -0.492,0.934 -0.869,1.122 -0.395,0.198 -0.927,0.288 -1.564,0.288 -1.371,0 -2.829,-0.199 -4.364,-0.599 L 3.128,0 C 3.128,-0.205 3.09,-0.376 2.964,-0.507 2.848,-0.652 2.694,-0.712 2.482,-0.712 H 0.599 c -0.164,0 -0.299,0.06 -0.406,0.215 C 0.068,-0.367 0,-0.193 0,0"></path></g><g transform="translate(570.8522,352.1641)" id="g64"><path id="path66" style="fill:#3a3a3a;fill-opacity:1;fill-rule:nonzero;stroke:none" d="m 0,0 v 17.161 c 0,0.469 0.184,0.768 0.618,0.85 1.555,0.391 2.877,0.686 4.016,0.852 1.14,0.181 2.183,0.266 3.148,0.266 0.811,0 1.603,-0.114 2.346,-0.365 0.763,-0.227 1.323,-0.584 1.767,-1.057 2.047,0.968 4.016,1.456 5.899,1.456 1.13,0 2.143,-0.216 2.984,-0.626 0.859,-0.42 1.525,-1.113 2.027,-2.097 0.511,-0.958 0.753,-2.24 0.753,-3.831 V 0 c 0,-0.2 -0.078,-0.376 -0.203,-0.504 -0.144,-0.143 -0.318,-0.208 -0.512,-0.208 h -1.699 c -0.183,0 -0.347,0.065 -0.492,0.215 -0.155,0.13 -0.213,0.304 -0.213,0.497 v 12.609 c 0,1.4 -0.289,2.39 -0.849,2.955 -0.57,0.559 -1.371,0.845 -2.375,0.845 -1.159,0 -2.569,-0.312 -4.21,-0.951 0.232,-0.819 0.328,-1.755 0.328,-2.784 L 13.333,0 c 0,-0.183 -0.048,-0.345 -0.183,-0.482 -0.106,-0.158 -0.26,-0.23 -0.463,-0.23 h -1.883 c -0.155,0 -0.328,0.06 -0.435,0.215 -0.115,0.13 -0.174,0.304 -0.174,0.497 v 12.674 c 0,1.007 -0.105,1.772 -0.299,2.325 -0.183,0.543 -0.492,0.934 -0.878,1.122 -0.396,0.198 -0.908,0.288 -1.555,0.288 -1.38,0 -2.838,-0.199 -4.344,-0.599 L 3.119,0 C 3.119,-0.2 3.042,-0.376 2.916,-0.507 2.81,-0.652 2.656,-0.712 2.472,-0.712 H 0.551 c -0.136,0 -0.29,0.06 -0.396,0.215 C 0.039,-0.367 0,-0.193 0,0"></path></g><g transform="translate(612.6385,378.9322)" id="g68"><path id="path70" style="fill:#3a3a3a;fill-opacity:1;fill-rule:nonzero;stroke:none" d="m 0,0 c 0,-0.082 -0.049,-0.172 -0.135,-0.265 l -4.046,-4.488 c -0.202,-0.246 -0.347,-0.374 -0.425,-0.451 -0.096,-0.058 -0.212,-0.097 -0.386,-0.097 h -1.94 c -0.203,0 -0.319,0.094 -0.319,0.247 0,0.156 0.048,0.282 0.145,0.369 l 3.485,4.42 c 0.193,0.226 0.329,0.373 0.435,0.439 0.087,0.045 0.241,0.077 0.434,0.077 h 2.356 C -0.135,0.251 0,0.174 0,0 m -0.676,-19.047 v 2.72 c 0,1.227 -0.174,2.304 -0.531,3.184 -0.319,0.879 -0.849,1.56 -1.564,2.04 -0.734,0.48 -1.622,0.709 -2.732,0.709 -1.594,0 -2.8,-0.506 -3.592,-1.544 -0.772,-1.048 -1.168,-2.503 -1.168,-4.389 v -2.72 c 0,-3.96 1.583,-5.947 4.76,-5.947 1.631,0 2.829,0.514 3.611,1.542 0.82,1.033 1.216,2.506 1.216,4.405 m 2.945,4.869 c 0.135,-0.676 0.183,-1.39 0.183,-2.149 v -2.72 c 0,-2.667 -0.695,-4.779 -2.037,-6.343 -1.38,-1.552 -3.331,-2.319 -5.918,-2.319 -2.53,0 -4.5,0.767 -5.861,2.319 -1.361,1.564 -2.037,3.676 -2.037,6.343 v 2.72 c 0,2.665 0.676,4.777 2.037,6.344 1.361,1.566 3.331,2.344 5.861,2.344 2.587,0 4.538,-0.778 5.918,-2.327 0.396,-0.456 0.714,-0.949 0.994,-1.487 0.319,0.367 0.483,0.801 0.502,1.277 v 1.839 c 0,0.246 0.184,0.398 0.58,0.411 h 1.467 c 0.27,0 0.406,-0.112 0.474,-0.35 0.269,-2.933 -0.426,-4.898 -2.163,-5.902"></path></g><g transform="translate(623.3549,352.1641)" id="g72"><path id="path74" style="fill:#3a3a3a;fill-opacity:1;fill-rule:nonzero;stroke:none" d="m 0,0 c 0,-0.2 -0.077,-0.376 -0.203,-0.504 -0.135,-0.143 -0.318,-0.208 -0.521,-0.208 h -1.709 c -0.164,0 -0.318,0.065 -0.483,0.215 -0.144,0.13 -0.221,0.304 -0.221,0.497 v 18.165 c 0,0.186 0.067,0.35 0.212,0.493 0.154,0.13 0.309,0.205 0.492,0.205 h 1.709 c 0.212,0 0.406,-0.075 0.531,-0.188 C -0.077,18.547 0,18.373 0,18.165 Z M 0.078,22.723 C 0.078,22.517 0,22.346 -0.126,22.216 -0.29,22.081 -0.444,22.013 -0.647,22.013 h -1.815 c -0.183,0 -0.366,0.07 -0.483,0.203 -0.164,0.137 -0.231,0.316 -0.231,0.507 v 2.834 c 0,0.202 0.067,0.366 0.203,0.511 0.145,0.126 0.328,0.203 0.511,0.203 h 1.815 c 0.222,0 0.387,-0.06 0.521,-0.198 C 0,25.945 0.078,25.785 0.078,25.557 Z"></path></g><g transform="translate(304.4771,450.2711)" id="g76"><path id="path78" style="fill:#ffc63c;fill-opacity:1;fill-rule:nonzero;stroke:none" d="m 0,0 c 13.836,-13.826 13.836,-36.23 0.039,-50.04 l -75.076,-75.1 c -13.816,-13.831 -36.234,-13.843 -50.05,-0.019 l -75.153,75.032 c -13.845,13.794 -13.845,36.212 -0.019,50.028 l 75.066,75.092 c 13.825,13.824 36.225,13.843 50.07,0.027 z"></path></g><g transform="translate(229.4501,466.3466)" id="g80"><path id="path82" style="fill:#3a3a3a;fill-opacity:1;fill-rule:nonzero;stroke:none" d="m 0,0 -12.619,-12.607 c -4.866,-4.858 -4.866,-12.754 0.02,-17.617 4.875,-4.871 12.763,-4.859 17.619,0 l 7.821,7.82 c 0,0 2.829,-2.812 9.558,-9.532 0,-0.007 0,-0.014 0.01,-0.022 l 7.839,-7.82 c 0,0 -51.325,-51.341 -53.796,-53.813 -2.481,-2.467 -5.416,-2.646 -7.714,-0.338 -11.18,11.171 -44.103,44.047 -45.716,45.66 -1.96,1.95 -1.96,4.938 0.164,7.057 2.115,2.112 63.027,63.036 63.027,63.036 4.866,4.876 4.866,12.771 0,17.644 -4.866,4.857 -12.774,4.85 -17.658,-0.014 l -71.63,-71.663 c -6.961,-6.97 -6.835,-18.39 0.232,-25.471 l 62.438,-62.343 c 7.087,-7.097 18.499,-7.179 25.46,-0.206 l 67.834,67.852 c 6.961,6.958 6.864,18.377 -0.222,25.466 l -9.645,9.622 -2.964,2.968 L 25.479,0.241 C 18.499,7.195 7.067,7.096 0,0"></path></g><g transform="translate(472.451,441.2655)" id="g84"><path id="path86" style="fill:#3a3a3a;fill-opacity:1;fill-rule:nonzero;stroke:none" d="m 0,0 c 0,5.26 0,7.422 8.834,7.422 h 31.851 c 7.676,0 7.676,-1.503 7.676,-6.5 v -24.171 c 0,-5.611 0,-6.951 -7.676,-6.951 H 8.834 C 0,-30.2 0,-28.445 0,-23.251 Z M 39.073,20.789 H 10.311 C -7.637,20.789 -14.656,14.958 -14.656,0 v -23.251 c 0,-14.692 6.913,-20.425 24.668,-20.425 h 29.061 c 17.369,0 24.137,5.733 24.137,20.427 v 23.36 c 0,14.695 -6.981,20.678 -24.137,20.678"></path></g><g transform="translate(601.9986,411.0658)" id="g88"><path id="path90" style="fill:#3a3a3a;fill-opacity:1;fill-rule:nonzero;stroke:none" d="m 0,0 h -32.942 c -9.761,0 -9.761,2.148 -9.761,6.85 v 30.772 h 40.782 c 9.162,0 9.162,-2.264 9.162,-7.767 V 7.542 C 7.241,1.296 7.241,0 0,0 m -3.997,50.989 h -38.706 v 38.947 c 0,4.4 -2.713,7.029 -7.231,7.029 -4.567,0 -7.193,-2.556 -7.193,-7.029 V 6.85 c 0,-14.444 7.56,-20.326 26.087,-20.326 h 27.043 c 18.006,0 25.353,6.022 25.353,20.782 v 23.005 c 0,14.694 -7.347,20.678 -25.353,20.678"></path></g><g transform="translate(639.0344,464.0652)" id="g92"><path id="path94" style="fill:#3a3a3a;fill-opacity:1;fill-rule:nonzero;stroke:none" d="m 0,0 c -4.055,0 -6.478,-2.783 -6.478,-7.456 v -51.443 c 0,-4.738 2.5,-7.581 6.681,-7.581 4.306,0 6.864,2.843 6.864,7.581 V -7.456 C 7.067,-2.72 4.499,0 0,0"></path></g><g transform="translate(662.1672,508.0379)" id="g96"><path id="path98" style="fill:#3a3a3a;fill-opacity:1;fill-rule:nonzero;stroke:none" d="m 0,0 c -4.354,0 -6.845,-2.621 -6.845,-7.183 v -96.087 c 0,-4.564 2.53,-7.178 6.951,-7.178 4.277,0 6.865,2.689 6.865,7.178 V -7.183 C 6.971,-2.621 4.422,0 0,0"></path></g><g transform="translate(692.7244,442.188)" id="g100"><path id="path102" style="fill:#3a3a3a;fill-opacity:1;fill-rule:nonzero;stroke:none" d="M 0,0 C 0,4.74 0,6.5 8.805,6.5 H 44.528 C 47.676,6.5 48.66,6.017 48.959,5.723 49.519,5.199 49.5,3.504 49.5,1.549 V -6.148 H 0 Z M 42.5,19.867 H 11.142 c -18.248,0 -25.701,-5.964 -25.701,-20.55 v -23.133 c 0,-13.79 10.244,-20.782 30.383,-20.782 h 8.381 c 4.045,0 6.545,2.607 6.545,6.795 0,4.245 -2.384,6.681 -6.545,6.681 H 13.16 C 0,-31.122 0,-26.669 0,-25.204 v 5.349 h 57.002 c 2.539,0 6.816,0.929 6.816,7.132 v 14.35 c 0,10.943 -3.611,18.24 -21.318,18.24"></path></g><g transform="translate(423.7522,462.6198)" id="g104"><path id="path106" style="fill:#3a3a3a;fill-opacity:1;fill-rule:nonzero;stroke:none" d="M 0,0 H -10.717 C -18.691,0 -24.33,-1.183 -28.269,-3.707 -32.198,-1.183 -37.847,0 -45.812,0 H -56.538 C -74.409,0 -81.37,-5.817 -81.37,-20.772 v -37.234 c 0,-4.101 2.23,-5.779 4.045,-6.454 1.893,-0.725 4.595,-0.792 6.546,0.002 1.467,0.577 3.949,2.185 3.949,6.452 v 37.234 c 0,5.244 0,7.414 8.815,7.414 h 13.661 c 8.718,0 8.757,-2.28 8.805,-6.84 h 0.019 l -0.019,-0.574 v -37.234 c 0,-1.827 0.454,-3.352 1.352,-4.504 0.676,-0.874 1.535,-1.533 2.597,-1.945 0.917,-0.367 1.989,-0.572 3.148,-0.575 h 0.038 0.271 0.028 c 1.178,0 2.25,0.208 3.177,0.57 1.033,0.412 1.931,1.064 2.587,1.933 0.898,1.169 1.381,2.694 1.381,4.521 v 37.234 h -0.039 l 0.039,0.574 c 0.029,4.56 0.048,6.84 8.795,6.84 H 1.487 c 8.805,0 8.805,-2.17 8.805,-7.414 l 0.01,-37.234 c 0,-4.267 2.462,-5.875 3.929,-6.449 0.908,-0.355 1.912,-0.556 3.003,-0.568 l 0.27,-0.007 c 1.197,0 2.307,0.189 3.254,0.563 1.535,0.562 4.094,2.164 4.094,6.461 v 37.234 C 24.852,-5.817 17.881,0 0,0"></path></g></g></g></g></svg>