<svg xmlns="http://www.w3.org/2000/svg" width="30" height="30" viewBox="0 0 30 30">
  <g id="Group_5952" data-name="Group 5952" transform="translate(-790 -1234)">
    <rect id="Rectangle_461" data-name="Rectangle 461" width="30" height="30" rx="15" transform="translate(790 1234)" fill="#f5f5f5" opacity="0"/>
    <g id="Group_5678" data-name="Group 5678" transform="translate(791 1237)">
      <g id="Group_1297" data-name="Group 1297" transform="translate(0 7.332)">
        <g id="Group_1294" data-name="Group 1294" transform="translate(1.579 4.427)">
          <path id="Path_602" data-name="Path 602" d="M887.476,337.3c0-.575-.321-1.025-.715-1.025h-5.212c-.4,0-.727.451-.727,1.025,0,.544.33.995.727.995h5.212C887.154,338.292,887.476,337.841,887.476,337.3Z" transform="translate(-880.821 -336.272)" fill="#363636"/>
        </g>
        <g id="Group_1295" data-name="Group 1295" transform="translate(3.438 8.82)">
          <path id="Path_603" data-name="Path 603" d="M894.049,349.214H889.8a.928.928,0,0,0-.788,1.025.917.917,0,0,0,.788,1h4.252a.917.917,0,0,0,.788-1A.928.928,0,0,0,894.049,349.214Z" transform="translate(-889.009 -349.214)" fill="#363636"/>
        </g>
        <g id="Group_1296" data-name="Group 1296">
          <path id="Path_604" data-name="Path 604" d="M882.176,324.277c0-.54-.3-1.025-.66-1.025h-7.945c-.359,0-.661.485-.661,1.025,0,.575.3,1.025.661,1.025h7.945C881.874,325.3,882.176,324.852,882.176,324.277Z" transform="translate(-872.91 -323.252)" fill="#363636"/>
        </g>
      </g>
      <g id="Group_1298" data-name="Group 1298" transform="translate(11.898 4.852)">
        <path id="Path_605" data-name="Path 605" d="M916.373,323.612a1.961,1.961,0,0,1,2.095,1.809.917.917,0,1,0,1.834,0,3.726,3.726,0,0,0-3.012-3.562v-.684a.917.917,0,1,0-1.834,0v.684a3.729,3.729,0,0,0-3.011,3.562c0,1.752,1.026,3.64,3.928,3.64,1.383,0,2.095.631,2.095,1.837a2.118,2.118,0,0,1-4.189,0,.917.917,0,1,0-1.834,0,3.726,3.726,0,0,0,3.011,3.533v.709a.917.917,0,0,0,1.834,0v-.709A3.723,3.723,0,0,0,920.3,330.9c0-1.781-1.026-3.671-3.929-3.671-1.382,0-2.094-.6-2.094-1.806A1.961,1.961,0,0,1,916.373,323.612Z" transform="translate(-912.444 -320.244)" fill="#363636" stroke="#363636" stroke-width="0.2"/>
      </g>
      <path id="Path_606" data-name="Path 606" d="M910.838,309.091a12.492,12.492,0,0,0-5.235,1.933,1.31,1.31,0,0,0-.6,1.094h0a.634.634,0,0,0,1,.517,11.189,11.189,0,1,1,0,18.2.633.633,0,0,0-1,.52h0a1.314,1.314,0,0,0,.606,1.1,12.753,12.753,0,1,0,5.232-23.369Z" transform="translate(-897.257 -308.984)" fill="#363636" stroke="#363636" stroke-width="0.2"/>
    </g>
  </g>
</svg>
