<svg xmlns="http://www.w3.org/2000/svg" width="30" height="30" viewBox="0 0 30 30">
  <g id="Group_5943" data-name="Group 5943" transform="translate(-490 -902)">
    <rect id="Rectangle_461" data-name="Rectangle 461" width="30" height="30" rx="15" transform="translate(490 902)" fill="#f5f5f5" opacity="0"/>
    <g id="Group_5676" data-name="Group 5676" transform="translate(494 905)">
      <path id="Path_1893" data-name="Path 1893" d="M346.863,758.823v-2.667a5.17,5.17,0,0,0-1.667-3.771,5.886,5.886,0,0,0-4.023-1.562h-9.955a5.889,5.889,0,0,0-4.022,1.562,5.17,5.17,0,0,0-1.667,3.771v2.667" transform="translate(-325.529 -734.823)" fill="none" stroke="#363636" stroke-linecap="round" stroke-linejoin="round" stroke-width="1.5"/>
      <g id="Path_1894" data-name="Path 1894" transform="translate(-323.489 -739.529)" fill="none" stroke-linecap="round" stroke-linejoin="round">
        <path d="M334.156,750.2a5.333,5.333,0,1,0-5.333-5.333A5.332,5.332,0,0,0,334.156,750.2Z" stroke="none"/>
        <path d="M 334.1562194824219 750.1956787109375 C 337.1029968261719 750.1956787109375 339.4896545410156 747.8087158203125 339.4896545410156 744.8622436523438 C 339.4896545410156 741.9168701171875 337.1029968261719 739.5288696289063 334.1562194824219 739.5288696289063 C 331.2114562988281 739.5288696289063 328.8229675292969 741.9168701171875 328.8229675292969 744.8622436523438 C 328.8229675292969 747.8087158203125 331.2114562988281 750.1956787109375 334.1562194824219 750.1956787109375 M 334.1562194824219 751.6956787109375 C 330.3883361816406 751.6956787109375 327.3229675292969 748.6301879882813 327.3229675292969 744.8622436523438 C 327.3229675292969 741.0942993164063 330.3883361816406 738.0288696289063 334.1562194824219 738.0288696289063 C 337.9241943359375 738.0288696289063 340.9896545410156 741.0942993164063 340.9896545410156 744.8622436523438 C 340.9896545410156 748.6301879882813 337.9241943359375 751.6956787109375 334.1562194824219 751.6956787109375 Z" stroke="none" fill="#363636"/>
      </g>
    </g>
  </g>
</svg>
