<svg xmlns="http://www.w3.org/2000/svg" width="30" height="30" viewBox="0 0 30 30">
  <g id="Group_5949" data-name="Group 5949" transform="translate(-1090 -1069)">
    <rect id="Rectangle_461" data-name="Rectangle 461" width="30" height="30" rx="15" transform="translate(1090 1069)" fill="#f5f5f5" opacity="0"/>
    <g id="Group_5681" data-name="Group 5681" transform="translate(1094 1071)">
      <g id="Group_788" data-name="Group 788" transform="translate(0 11.27)">
        <g id="Group_785" data-name="Group 785" transform="translate(1.773 2.591)">
          <path id="Path_204" data-name="Path 204" d="M824.267,163.745a.468.468,0,0,0-.466-.473h-3.593a.466.466,0,1,0,0,.933H823.8A.465.465,0,0,0,824.267,163.745Z" transform="translate(-819.734 -163.272)" fill="#363636" stroke="#363636" stroke-width="0.2"/>
        </g>
        <g id="Group_786" data-name="Group 786" transform="translate(3.801 5.167)">
          <path id="Path_205" data-name="Path 205" d="M832.7,176.214h-2.313a.467.467,0,0,0,0,.934H832.7a.467.467,0,0,0,0-.934Z" transform="translate(-829.922 -176.214)" fill="#363636" stroke="#363636" stroke-width="0.2"/>
        </g>
        <g id="Group_787" data-name="Group 787">
          <path id="Path_206" data-name="Path 206" d="M817.871,150.725a.485.485,0,0,0-.473-.473h-6.1a.485.485,0,0,0-.475.473.474.474,0,0,0,.475.474h6.1A.474.474,0,0,0,817.871,150.725Z" transform="translate(-810.824 -150.252)" fill="#363636" stroke="#363636" stroke-width="0.2"/>
        </g>
      </g>
      <g id="Group_790" data-name="Group 790" transform="translate(10.452 6.5)">
        <path id="Path_208" data-name="Path 208" d="M875.029,150.205a1.724,1.724,0,0,1,1.841,1.59.806.806,0,1,0,1.612,0,3.276,3.276,0,0,0-2.648-3.131v-.6a.806.806,0,1,0-1.613,0v.6a3.279,3.279,0,0,0-2.648,3.131c0,1.541.9,3.2,3.454,3.2,1.216,0,1.841.555,1.841,1.615a1.862,1.862,0,0,1-3.683,0,.806.806,0,1,0-1.612,0,3.275,3.275,0,0,0,2.648,3.106v.624a.806.806,0,0,0,1.613,0v-.624a3.273,3.273,0,0,0,2.648-3.106,3.1,3.1,0,0,0-3.454-3.227c-1.216,0-1.842-.53-1.842-1.588A1.724,1.724,0,0,1,875.029,150.205Z" transform="translate(-871.575 -147.244)" fill="#363636" stroke="#363636" stroke-width="0.2"/>
      </g>
      <g id="Group_792" data-name="Group 792" transform="translate(10.943 2.097)">
        <path id="Path_209" data-name="Path 209" d="M866.286,105.064h4.966a.475.475,0,0,0,.436-.261.446.446,0,0,0-.412-.638h-5.015a.446.446,0,0,0-.412.638A.475.475,0,0,0,866.286,105.064Z" transform="translate(-865.805 -104.165)" fill="#363636" stroke="#363636" stroke-width="0.2"/>
      </g>
      <g id="Group_793" data-name="Group 793" transform="translate(12.129 23.317)">
        <path id="Path_210" data-name="Path 210" d="M872.166,211.579h2.758a.406.406,0,0,0,.4-.4.4.4,0,0,0-.4-.4h-2.758a.4.4,0,0,0-.4.4A.4.4,0,0,0,872.166,211.579Z" transform="translate(-871.768 -210.783)" fill="#363636" stroke="#363636" stroke-width="0.2"/>
      </g>
      <path id="Path_211" data-name="Path 211" d="M839.83,102.379V95.895a2.269,2.269,0,0,1,2.263-2.268h11.741a2.27,2.27,0,0,1,2.263,2.268v21.464a2.27,2.27,0,0,1-2.263,2.269H842.093a2.269,2.269,0,0,1-2.263-2.269v-3.445h.906v3.445a1.369,1.369,0,0,0,1.357,1.369h11.741a1.367,1.367,0,0,0,1.355-1.369V95.895a1.355,1.355,0,0,0-1.355-1.355H842.093a1.356,1.356,0,0,0-1.357,1.355v6.484Z" transform="translate(-834.057 -93.627)" fill="#363636" stroke="#363636" stroke-width="0.2"/>
    </g>
  </g>
</svg>
