<svg xmlns="http://www.w3.org/2000/svg" width="30" height="30" viewBox="0 0 30 30">
  <g id="Group_5946" data-name="Group 5946" transform="translate(-1390 -902)">
    <rect id="Rectangle_461" data-name="Rectangle 461" width="30" height="30" rx="15" transform="translate(1390 902)" fill="#f5f5f5" opacity="0"/>
    <g id="Group_5679" data-name="Group 5679" transform="translate(1391 907)">
      <g id="Group_773" data-name="Group 773" transform="translate(2.9 6.665)">
        <g id="Group_768" data-name="Group 768" transform="translate(8.22 3.72)">
          <path id="Path_189" data-name="Path 189" d="M1660.62,162.691a.655.655,0,1,0-.6-.662A.628.628,0,0,0,1660.62,162.691Z" transform="translate(-1660.016 -161.384)" fill="#363636" stroke="#363636" stroke-width="0.2"/>
        </g>
        <g id="Group_769" data-name="Group 769" transform="translate(10.956 3.726)">
          <path id="Path_190" data-name="Path 190" d="M1670.4,162.7a.607.607,0,0,0,.425-.2.673.673,0,0,0,0-.916.58.58,0,0,0-.858,0,.618.618,0,0,0-.181.449.658.658,0,0,0,.181.467A.587.587,0,0,0,1670.4,162.7Z" transform="translate(-1669.786 -161.403)" fill="#363636" stroke="#363636" stroke-width="0.2"/>
        </g>
        <g id="Group_770" data-name="Group 770" transform="translate(0 3.72)">
          <path id="Path_191" data-name="Path 191" d="M1630.838,162.5c.01.02.026.02.035.04a.591.591,0,0,0,.388.156h5.483a.655.655,0,0,0,0-1.307h-5.483a.532.532,0,0,0-.4.176.031.031,0,0,0-.026.02h0a.659.659,0,0,0-.181.449.667.667,0,0,0,.181.467Z" transform="translate(-1630.656 -161.384)" fill="#363636" stroke="#363636" stroke-width="0.2"/>
        </g>
        <g id="Group_771" data-name="Group 771" transform="translate(0 7.423)">
          <path id="Path_192" data-name="Path 192" d="M1631.261,174.97h10.416a.633.633,0,0,0,.6-.662.646.646,0,0,0-.6-.662h-10.416a.646.646,0,0,0-.605.662A.633.633,0,0,0,1631.261,174.97Z" transform="translate(-1630.656 -173.645)" fill="#363636" stroke="#363636" stroke-width="0.2"/>
        </g>
        <g id="Group_772" data-name="Group 772" transform="translate(0 0)">
          <path id="Path_193" data-name="Path 193" d="M1631.261,150.388h7.616a.633.633,0,0,0,.6-.662.646.646,0,0,0-.6-.663h-7.616a.646.646,0,0,0-.605.663A.633.633,0,0,0,1631.261,150.388Z" transform="translate(-1630.656 -149.063)" fill="#363636" stroke="#363636" stroke-width="0.2"/>
        </g>
      </g>
      <path id="Path_194" data-name="Path 194" d="M1645.236,126.991h-21.875a3.194,3.194,0,0,0-3.062,3.312v14.4a3.188,3.188,0,0,0,3.062,3.291h21.875a3.19,3.19,0,0,0,3.063-3.291V130.3A3.2,3.2,0,0,0,1645.236,126.991Zm1.842,3.574V144.7a1.922,1.922,0,0,1-1.842,1.987h-21.875a1.928,1.928,0,0,1-1.843-1.987V130.3a1.914,1.914,0,0,1,1.843-1.987h21.875a1.908,1.908,0,0,1,1.842,1.987Z" transform="translate(-1620.299 -126.991)" fill="#363636" stroke="#363636" stroke-width="0.2"/>
      <g id="Group_774" data-name="Group 774" transform="translate(17.847 3.353)">
        <path id="Path_195" data-name="Path 195" d="M1691.71,154.009a1.864,1.864,0,0,1-1.91-1.813.7.7,0,0,0-.68-.711.7.7,0,0,0-.669.711,3.255,3.255,0,0,0,2.579,3.193v.733a.677.677,0,1,0,1.349,0v-.733a3.264,3.264,0,0,0,2.59-3.193,3.03,3.03,0,0,0-3.259-3.254c-1.269,0-1.91-.605-1.91-1.79a1.911,1.911,0,0,1,3.817,0,.677.677,0,1,0,1.352,0,3.262,3.262,0,0,0-2.59-3.19v-.755a.675.675,0,1,0-1.349,0v.755a3.252,3.252,0,0,0-2.579,3.19,3.019,3.019,0,0,0,3.259,3.234c1.269,0,1.907.625,1.907,1.81A1.869,1.869,0,0,1,1691.71,154.009Z" transform="translate(-1688.451 -142.496)" fill="#363636" stroke="#363636" stroke-width="0.2"/>
      </g>
    </g>
  </g>
</svg>
