<?xml version="1.0" encoding="utf-8"?>
<svg version="1.1" id="Layer_1" x="0px" y="0px" viewBox="64 -128 160 320" style="enable-background:new 64 -128 160 320;"
     xmlns="http://www.w3.org/2000/svg">
    <style type="text/css">
        .st0{fill:#2188C9;}
        .st1{fill:#2188C9;stroke:#2188C9;stroke-width:0.5;stroke-miterlimit:10;}
        .st2{fill:#0c2c63;}
        .st3{fill:#434A54;}
        .st4{fill:#434A54;stroke:#434A54;stroke-width:0.5;stroke-miterlimit:10;}
    </style>
    <g>
        <g>
            <path class="st0"
                  d="M145.1-25.4h-0.2c-2,0-3.2-0.5-3.7-1.6c-0.2-0.4-0.5-1.4,0.3-2.5l2.7-3.7c0.3-0.4,0.5-0.7,0.6-0.9 c-4.5-4.7-7-10.9-7-17.4c0-13.8,11.2-25.1,25.1-25.1c13.8,0,25,11.2,25,25.1c0,13.8-11.2,25-25,25c-2.7,0-5.4-0.4-7.9-1.3 c-0.1,0-0.2,0.1-0.2,0.1c-1,0.5-1.9,0.8-2.8,1.1c-0.3,0.1-0.6,0.2-0.9,0.3l-0.4,0.1C148.9-25.6,147.1-25.4,145.1-25.4z M162.9-72.9c-11.9,0-21.5,9.7-21.5,21.5c0,5.7,2.2,11.1,6.3,15.2l0.2,0.2l0.1,0.3c0.4,0.9,0.5,1.8,0.2,2.7 c-0.3,0.8-0.7,1.4-1.1,1.9l-1.6,2.1c1.5,0,2.9-0.2,4.1-0.5l0.5-0.1c0.2-0.1,0.5-0.1,0.7-0.2c0.8-0.3,1.6-0.6,2.3-0.9 c0.4-0.2,1.1-0.4,1.8-0.5l0.6,0l0.3,0.1c2.3,0.8,4.7,1.2,7.1,1.2c11.9,0,21.5-9.6,21.5-21.5C184.4-63.2,174.7-72.9,162.9-72.9z"/>
        </g>
        <g>
            <path class="st2"
                  d="M164.2-85.9c0-0.8,0-1.4,0-2.1c0-2.6-0.9-5.1-2.7-7c-1.9-1.9-4.6-3-7.4-3c-4.9,0-9.8,0-14.7,0l-29.4,0 c-5.9,0-9.9,4-9.9,9.9v67.3c0,4.1,0,8.4,0,12.7v0.1c0,2.8,1,5.3,2.8,7.1c1.9,1.9,4.5,3,7.3,3h0.1c13.5-0.1,27.3-0.1,40.6,0h3.3 c2.7,0,5.3-1.1,7.2-2.9c1.8-1.8,2.8-4.3,2.8-6.9V-8c0-4.2,0-8.8,0-14.2c-0.4,0-0.8,0-1.3,0c-0.8,0-1.6,0-2.3-0.1 c0,1.1,0,0.5,0,1.5h-56.8v-60.7h56.8v1c0.8-0.1,1.5-0.1,2.3-0.1c0.4,0,0.9,0,1.3,0v-1.2l0-2.3C164.2-84.7,164.2-85.3,164.2-85.9z M160.6-8L160.6-8c0,1.8-0.6,3.3-1.8,4.4c-1.2,1.2-2.9,1.9-4.7,1.9h-3.9c-13.1,0-26.6-0.1-40,0h-0.1c-1.8,0-3.6-0.7-4.8-1.9 c-1.1-1.2-1.8-2.7-1.8-4.6v-0.1c0-3.2,0-6.3,0-9.4h56.8C160.5-17.6,160.6-10.9,160.6-8z M160.6-88.1c0,0.7,0,3.5,0,4.1l0-0.7 h-56.8v-3.4c0-3.9,2.4-6.3,6.3-6.3l29.4,0c4.9,0,9.8,0,14.7,0c1.8,0,3.5,0.7,4.7,1.9c0.8,0.8,1.7,2.1,1.7,4.2L160.6-88.1 L160.6-88.1L160.6-88.1z"/>
            <rect x="121.4" y="-11.5" class="st2" width="21.5" height="4.7"/>
        </g>
    </g>
    <g>
        <g>
            <path class="st3"
                  d="M145.1,134.6h-0.2c-2,0-3.2-0.5-3.7-1.6c-0.2-0.4-0.5-1.4,0.3-2.5l2.7-3.7c0.3-0.4,0.5-0.7,0.6-0.9 c-4.5-4.7-7-10.9-7-17.4c0-13.8,11.2-25.1,25.1-25.1c13.8,0,25,11.2,25,25.1c0,13.8-11.2,25-25,25c-2.7,0-5.4-0.4-7.9-1.3 c-0.1,0-0.2,0.1-0.2,0.1c-1,0.5-1.9,0.8-2.8,1.1c-0.3,0.1-0.6,0.2-0.9,0.3l-0.4,0.1C148.9,134.4,147.1,134.6,145.1,134.6z M162.9,87.1c-11.9,0-21.5,9.7-21.5,21.5c0,5.7,2.2,11.1,6.3,15.2l0.2,0.2l0.1,0.3c0.4,0.9,0.5,1.8,0.2,2.7 c-0.3,0.8-0.7,1.4-1.1,1.9l-1.6,2.1c1.5,0,2.9-0.2,4.1-0.5l0.5-0.1c0.2-0.1,0.5-0.1,0.7-0.2c0.8-0.3,1.6-0.6,2.3-0.9 c0.4-0.2,1.1-0.4,1.8-0.5l0.6,0l0.3,0.1c2.3,0.8,4.7,1.2,7.1,1.2c11.9,0,21.5-9.6,21.5-21.5C184.4,96.8,174.7,87.1,162.9,87.1z"/>
        </g>
        <g>
            <path class="st3"
                  d="M164.2,74.1c0-0.8,0-1.4,0-2.1c0-2.6-0.9-5.1-2.7-7c-1.9-1.9-4.6-3-7.4-3c-4.9,0-9.8,0-14.7,0l-29.4,0 c-5.9,0-9.9,4-9.9,9.9v67.3c0,4.1,0,8.4,0,12.7v0.1c0,2.8,1,5.3,2.8,7.1c1.9,1.9,4.5,3,7.3,3h0.1c13.5-0.1,27.3-0.1,40.6,0h3.3 c2.7,0,5.3-1.1,7.2-2.9c1.8-1.8,2.8-4.3,2.8-6.9V152c0-4.2,0-8.8,0-14.2c-0.4,0-0.8,0-1.3,0c-0.8,0-1.6,0-2.3-0.1 c0,1.1,0,0.5,0,1.5h-56.8V78.5h56.8v1c0.8-0.1,1.5-0.1,2.3-0.1c0.4,0,0.9,0,1.3,0v-1.2l0-2.3C164.2,75.3,164.2,74.7,164.2,74.1z M160.6,152L160.6,152c0,1.8-0.6,3.3-1.8,4.4c-1.2,1.2-2.9,1.9-4.7,1.9h-3.9c-13.1,0-26.6-0.1-40,0h-0.1c-1.8,0-3.6-0.7-4.8-1.9 c-1.1-1.2-1.8-2.7-1.8-4.6v-0.1c0-3.2,0-6.3,0-9.4h56.8C160.5,142.4,160.6,149.1,160.6,152z M160.6,71.9c0,0.7,0,3.5,0,4.1l0-0.7 h-56.8v-3.4c0-3.9,2.4-6.3,6.3-6.3l29.4,0c4.9,0,9.8,0,14.7,0c1.8,0,3.5,0.7,4.7,1.9c0.8,0.8,1.7,2.1,1.7,4.2L160.6,71.9 L160.6,71.9L160.6,71.9z"/>
            <rect x="121.4" y="148.5" class="st3" width="21.5" height="4.7"/>
        </g>
        <g transform="matrix(0.055168, 0, 0, 0.061334, 148.654251, -65.391708)" style="">
            <path d="m255.991 169.039c-30.327 0-55 24.673-55 55 0 25.127 16.943 46.356 40 52.904v171.096c0 8.284 6.716 15 15 15s15-6.716 15-15v-171.096c23.057-6.547 40-27.777 40-52.904 0-30.327-24.673-55-55-55zm0 80c-13.785 0-25-11.215-25-25s11.215-25 25-25 25 11.215 25 25-11.215 25-25 25z"
                  style="fill: rgb(33, 136, 201);"/>
            <path d="m186.597 143.845c-5.857-5.858-15.354-5.858-21.213 0-46.505 46.503-46.512 121.781 0 168.291 5.859 5.858 15.355 5.858 21.213 0 5.858-5.857 5.858-15.355 0-21.213-34.78-34.779-34.786-91.08 0-125.865 5.858-5.858 5.858-15.356 0-21.213z"
                  style="fill: rgb(33, 136, 201);"/>
            <path d="m346.597 143.845c-5.857-5.857-15.355-5.857-21.213 0s-5.858 15.355 0 21.213c34.701 34.701 34.701 91.164 0 125.865-5.858 5.857-5.858 15.355 0 21.213 5.859 5.858 15.355 5.858 21.213 0 46.399-46.397 46.399-121.894 0-168.291z"
                  style="fill: rgb(33, 136, 201);"/>
            <path d="m141.342 119.803c5.858-5.857 5.858-15.355 0-21.213-5.857-5.857-15.355-5.857-21.213 0-71.352 71.352-71.352 187.449 0 258.801 5.856 5.857 15.354 5.86 21.213 0 5.858-5.857 5.858-15.355 0-21.213-59.654-59.655-59.654-156.72 0-216.375z"
                  style="fill: rgb(33, 136, 201);"/>
            <path d="m391.852 98.59c-5.857-5.857-15.355-5.857-21.213 0s-5.858 15.355 0 21.213c59.654 59.655 59.654 156.72 0 216.375-5.858 5.857-5.858 15.355 0 21.213 5.859 5.858 15.355 5.858 21.213 0 71.352-71.352 71.352-187.449 0-258.801z"
                  style="fill: rgb(33, 136, 201);"/>
            <path d="m96.087 74.548c5.858-5.857 5.858-15.355 0-21.213-5.857-5.857-15.355-5.857-21.213 0-99.941 99.94-99.724 249.587 0 349.311 5.856 5.857 15.354 5.86 21.213 0 5.858-5.857 5.858-15.355 0-21.213-87.475-87.477-87.475-219.408 0-306.885z"
                  style="fill: rgb(33, 136, 201);"/>
            <path d="m437.107 53.335c-5.857-5.857-15.355-5.857-21.213 0s-5.858 15.355 0 21.213c87.477 87.477 87.477 219.408 0 306.885-5.858 5.857-5.858 15.355 0 21.213 5.859 5.858 15.355 5.858 21.213 0 99.94-99.939 99.725-249.587 0-349.311z"
                  style="fill: rgb(33, 136, 201);"/>
        </g>
        <g transform="matrix(0.055168, 0, 0, 0.061334, 148.12001, 94.78627)" style="">
            <path d="m255.991 169.039c-30.327 0-55 24.673-55 55 0 25.127 16.943 46.356 40 52.904v171.096c0 8.284 6.716 15 15 15s15-6.716 15-15v-171.096c23.057-6.547 40-27.777 40-52.904 0-30.327-24.673-55-55-55zm0 80c-13.785 0-25-11.215-25-25s11.215-25 25-25 25 11.215 25 25-11.215 25-25 25z"
                  style="fill: rgb(67, 74, 84);"/>
            <path d="m186.597 143.845c-5.857-5.858-15.354-5.858-21.213 0-46.505 46.503-46.512 121.781 0 168.291 5.859 5.858 15.355 5.858 21.213 0 5.858-5.857 5.858-15.355 0-21.213-34.78-34.779-34.786-91.08 0-125.865 5.858-5.858 5.858-15.356 0-21.213z"
                  style="fill: rgb(67, 74, 84);"/>
            <path d="m346.597 143.845c-5.857-5.857-15.355-5.857-21.213 0s-5.858 15.355 0 21.213c34.701 34.701 34.701 91.164 0 125.865-5.858 5.857-5.858 15.355 0 21.213 5.859 5.858 15.355 5.858 21.213 0 46.399-46.397 46.399-121.894 0-168.291z"
                  style="fill: rgb(67, 74, 84);"/>
            <path d="m141.342 119.803c5.858-5.857 5.858-15.355 0-21.213-5.857-5.857-15.355-5.857-21.213 0-71.352 71.352-71.352 187.449 0 258.801 5.856 5.857 15.354 5.86 21.213 0 5.858-5.857 5.858-15.355 0-21.213-59.654-59.655-59.654-156.72 0-216.375z"
                  style="fill: rgb(67, 74, 84);"/>
            <path d="m391.852 98.59c-5.857-5.857-15.355-5.857-21.213 0s-5.858 15.355 0 21.213c59.654 59.655 59.654 156.72 0 216.375-5.858 5.857-5.858 15.355 0 21.213 5.859 5.858 15.355 5.858 21.213 0 71.352-71.352 71.352-187.449 0-258.801z"
                  style="fill: rgb(67, 74, 84);"/>
            <path d="m96.087 74.548c5.858-5.857 5.858-15.355 0-21.213-5.857-5.857-15.355-5.857-21.213 0-99.941 99.94-99.724 249.587 0 349.311 5.856 5.857 15.354 5.86 21.213 0 5.858-5.857 5.858-15.355 0-21.213-87.475-87.477-87.475-219.408 0-306.885z"
                  style="fill: rgb(67, 74, 84);"/>
            <path d="m437.107 53.335c-5.857-5.857-15.355-5.857-21.213 0s-5.858 15.355 0 21.213c87.477 87.477 87.477 219.408 0 306.885-5.858 5.857-5.858 15.355 0 21.213 5.859 5.858 15.355 5.858 21.213 0 99.94-99.939 99.725-249.587 0-349.311z"
                  style="fill: rgb(67, 74, 84);"/>
        </g>
    </g>
</svg>