<?xml version="1.0" encoding="utf-8"?>
<svg viewBox="-289 365 32 64" style="enable-background:new -289 365 32 64;" xmlns="http://www.w3.org/2000/svg">
  <defs>
    <style type="text/css">
	.st0{fill:#0c2c63;}
	.st1{fill:#2188C9;}
	.st2{fill:#FFFFFF;}
</style>
  </defs>
  <g>
    <g>
      <path class="st0" d="M-279.3,375.4l10.7,5.8l0.4,0.2l0.5-0.1c0.2-0.1,0.5-0.1,1-0.3c1.5-0.4,3.9-1.1,6-1.6c0.1,0,0.2-0.1,0.5-0.1 c0.6,0,1.3,0.1,1.7,0.4c0.1,0.1,0.1,0.1,0.2,0.1l0,0l0,0.1c0,0,0,0.2-0.1,0.4c-0.3,0.7-1.4,1.4-1.9,1.5l-18.5,5 c-0.1,0-0.2,0-0.2,0c-1.5,0-3.7-0.5-5.2-1l7.8-2.1l1.6-0.4l-0.9-1.4l-4-6L-279.3,375.4 M-279.4,374c-0.1,0-0.3,0.1-0.4,0.1 l-1.2,1.3c-0.1,0.2-0.2,0.4,0,0.6l4.4,6.5l-9.5,2.5c-0.4,0.1-0.5,0.4-0.4,0.6c0.2,1,5.2,2.3,7.6,2.3c0.2,0,0.3,0,0.4,0 c0,0,0,0,0.1,0l18.5-5c0.7-0.2,2.1-1,2.7-2.2c0.2-0.4,0.3-0.9,0.2-1.2c-0.1-0.4-0.3-0.7-0.7-0.9c-0.6-0.4-1.6-0.5-2.4-0.5 c-0.3,0-0.6,0-0.9,0.1c-2.6,0.7-6.1,1.6-7,1.9l-11.2-6C-279.3,374-279.3,374-279.4,374L-279.4,374z"/>
    </g>
    <path class="st1" d="M-286.2,384.6c-0.2,0-0.4,0-0.5-0.2l-2.2-3.2c-0.1-0.2-0.1-0.4,0.1-0.6l0.9-0.8c0.1-0.1,0.4-0.1,0.5-0.1l5,3 c0.2,0.1,0.2,0.2,0.2,0.4c0,0.2-0.1,0.3-0.3,0.4L-286.2,384.6L-286.2,384.6z"/>
  </g>
  <g>
    <g>
      <path class="st2" d="M -279.3 407.4 L -268.6 413.2 L -268.2 413.4 L -267.7 413.3 C -267.5 413.2 -267.2 413.2 -266.7 413 C -265.2 412.6 -262.8 411.9 -260.7 411.4 C -260.6 411.4 -260.5 411.3 -260.2 411.3 C -259.6 411.3 -258.9 411.4 -258.5 411.7 C -258.4 411.8 -258.4 411.8 -258.3 411.8 L -258.3 411.9 C -258.3 411.9 -258.3 412.1 -258.4 412.3 C -258.7 413 -259.8 413.7 -260.3 413.8 L -278.8 418.8 C -278.9 418.8 -279 418.8 -279 418.8 C -280.5 418.8 -282.7 418.3 -284.2 417.8 L -276.4 415.7 L -274.8 415.3 L -275.7 413.9 L -279.7 407.9 L -279.3 407.4 M -279.4 406 C -279.5 406 -279.7 406.1 -279.8 406.1 L -281 407.4 C -281.1 407.6 -281.2 407.8 -281 408 L -276.6 414.5 L -286.1 417 C -286.5 417.1 -286.6 417.4 -286.5 417.6 C -286.3 418.6 -281.3 419.9 -278.9 419.9 C -278.7 419.9 -278.6 419.9 -278.5 419.9 C -278.5 419.9 -278.5 419.9 -278.4 419.9 L -259.9 414.9 C -259.2 414.7 -257.8 413.9 -257.2 412.7 C -257 412.3 -256.9 411.8 -257 411.5 C -257.1 411.1 -257.3 410.8 -257.7 410.6 C -258.3 410.2 -259.3 410.1 -260.1 410.1 C -260.4 410.1 -260.7 410.1 -261 410.2 C -263.6 410.9 -267.1 411.8 -268 412.1 L -271.5 410.225 L -279.2 406.1 C -279.3 406 -279.3 406 -279.4 406 Z" style="fill: rgb(67, 74, 84);"/>
    </g>
    <path class="st1" d="M-286.2,416.6c-0.2,0-0.4,0-0.5-0.2l-2.2-3.2c-0.1-0.2-0.1-0.4,0.1-0.6l0.9-0.8c0.1-0.1,0.4-0.1,0.5-0.1l5,3 c0.2,0.1,0.2,0.2,0.2,0.4c0,0.2-0.1,0.3-0.3,0.4L-286.2,416.6L-286.2,416.6z" style="fill: rgb(67, 74, 84);"/>
  </g>
</svg>