<svg width="32" height="32" viewBox="0 0 32 32" fill="none" xmlns="http://www.w3.org/2000/svg">
<path d="M26.132 7.18982L11.6979 21.6562L10.5 24L12.8433 22.8021L27.3102 8.36796L26.132 7.18982Z" fill="#363636" stroke="#363636" stroke-width="1.5" stroke-linecap="round" stroke-linejoin="round"/>
<path d="M29.0785 4.24389L27.9004 5.42203L29.0785 6.6007L30.2567 5.42203C30.4128 5.26577 30.5006 5.05388 30.5006 4.83296C30.5006 4.61204 30.4128 4.40016 30.2567 4.24389C30.1004 4.08772 29.8885 4 29.6676 4C29.4467 4 29.2348 4.08772 29.0785 4.24389Z" fill="#363636" stroke="#363636" stroke-width="1.5" stroke-linecap="round" stroke-linejoin="round"/>
<line x1="5.25" y1="13.25" x2="12.75" y2="13.25" stroke="#363636" stroke-width="1.5" stroke-linecap="round" stroke-linejoin="round"/>
<line x1="1.75" y1="13.25" x2="1.25" y2="13.25" stroke="#363636" stroke-width="1.5" stroke-linecap="round" stroke-linejoin="round"/>
<line x1="5.25" y1="20.25" x2="8.75" y2="20.25" stroke="#363636" stroke-width="1.5" stroke-linecap="round" stroke-linejoin="round"/>
<line x1="1.75" y1="20.25" x2="1.25" y2="20.25" stroke="#363636" stroke-width="1.5" stroke-linecap="round" stroke-linejoin="round"/>
<line x1="5.25" y1="27.25" x2="10.75" y2="27.25" stroke="#363636" stroke-width="1.5" stroke-linecap="round" stroke-linejoin="round"/>
<line x1="1.75" y1="27.25" x2="1.25" y2="27.25" stroke="#363636" stroke-width="1.5" stroke-linecap="round" stroke-linejoin="round"/>
</svg>
