<svg width="32" height="33" viewBox="0 0 32 33" fill="none" xmlns="http://www.w3.org/2000/svg">
    <path d="M24 11V6.82843C24 6.29799 23.7893 5.78929 23.4142 5.41421L19.5858 1.58579C19.2107 1.21071 18.702 1 18.1716 1H4C2.89543 1 2 1.89543 2 3V27C2 28.1046 2.89543 29 4 29H13"
          stroke="#363636" stroke-width="1.5" stroke-linecap="round" stroke-linejoin="round"/>
    <path d="M18 2V7L23 7" stroke="#363636" stroke-width="1.5" stroke-linecap="round" stroke-linejoin="round"/>
    <line x1="6.75" y1="6.25" x2="13.25" y2="6.25" stroke="#363636" stroke-width="1.5" stroke-linecap="round"/>
    <line x1="6.75" y1="11.75" x2="15.25" y2="11.75" stroke="#363636" stroke-width="1.5" stroke-linecap="round"/>
    <line x1="6.75" y1="17.25" x2="11.25" y2="17.25" stroke="#363636" stroke-width="1.5" stroke-linecap="round"/>
    <path d="M30.7363 29.5599L30.7363 29.56C30.8942 30.8439 29.7509 31.75 28.5994 31.75H19.4002C18.249 31.75 17.1053 30.844 17.2637 29.5599L30.7363 29.5599ZM30.7363 29.5599C30.4215 27.0038 29.2996 25.7049 28.2788 24.7992M30.7363 29.5599L28.2788 24.7992M28.2788 24.7992C28.1108 24.6502 27.939 24.5062 27.784 24.3762M28.2788 24.7992L27.784 24.3762M27.784 24.3762C27.7182 24.3211 27.6555 24.2685 27.5974 24.2191M27.784 24.3762L27.5974 24.2191M27.5974 24.2191C27.391 24.0439 27.2266 23.8964 27.0946 23.7531M27.5974 24.2191L27.0946 23.7531M27.0946 23.7531C26.8468 23.4843 26.7498 23.2726 26.7498 23M27.0946 23.7531L26.7498 23M26.7498 23C26.7498 22.7314 26.8458 22.5237 27.0959 22.2574M26.7498 23L27.0959 22.2574M27.0959 22.2574C27.2294 22.1153 27.3954 21.9692 27.604 21.7951M27.0959 22.2574L27.604 21.7951M27.604 21.7951C27.6594 21.7489 27.7186 21.7 27.7806 21.6489M27.604 21.7951L27.7806 21.6489M27.7806 21.6489C27.9402 21.5172 28.1176 21.3709 28.2919 21.2181M27.7806 21.6489L28.2919 21.2181M28.2919 21.2181C29.3227 20.3143 30.4458 19.0117 30.7367 16.4335M28.2919 21.2181L30.7367 16.4335M30.7367 16.4335C30.8831 15.1591 29.7571 14.25 28.5994 14.25H19.4002C18.2404 14.25 17.1192 15.1606 17.2628 16.4325L30.7367 16.4335ZM17.2629 16.4327C17.5538 19.0126 18.6782 20.3062 19.7095 21.2051C19.8791 21.3529 20.0528 21.4958 20.2095 21.6245C20.2753 21.6786 20.3381 21.7303 20.3963 21.7787C20.6043 21.952 20.7697 22.0977 20.9024 22.2398C21.1501 22.5049 21.2498 22.7178 21.2498 23C21.2498 23.2862 21.1493 23.503 20.9038 23.7707C20.7173 23.9742 20.5095 24.1472 20.2475 24.3653C20.0935 24.4936 19.9208 24.6374 19.7226 24.8122C18.7014 25.7128 17.5786 27.0025 17.2638 29.5596L17.2629 16.4327Z"
          stroke="#363636" stroke-width="1.5" stroke-linecap="round" stroke-linejoin="round"/>
    <path d="M21.4446 29H26.5676C27.0256 29 27.128 28.1939 26.8353 27.6259C26.1091 26.217 24.4704 25.4401 24.4704 24H23.5292C23.5292 25.4519 21.957 26.3585 21.1781 27.6245C20.8563 28.1509 20.9857 29 21.4446 29Z"
          fill="#363636"/>
    <path d="M26.5554 18L21.4324 18C20.9744 18 20.872 18.6449 21.1647 19.0992C21.8909 20.2264 23.5296 20.8479 23.5296 22L24.4708 22C24.4708 20.8385 26.043 20.1132 26.8219 19.1004C27.1437 18.6792 27.0143 18 26.5554 18Z"
          fill="#363636"/>
</svg>
