<svg width="32" height="32" viewBox="0 0 32 32" fill="none" xmlns="http://www.w3.org/2000/svg">
<path d="M12 9.00004C12 8.33337 11.6 7.00003 10 7.00003C8.4 7.00003 8 8.33337 8 9.00004C8 9.66671 8.4 11 10 11" stroke="#363636" stroke-width="1.5" stroke-linecap="round" stroke-linejoin="round"/>
<path d="M7.99999 13C7.99999 13.6666 8.39999 15 9.99999 15C11.6 15 12 13.6666 12 13C12 12.3333 11.6 11 9.99999 11" stroke="#363636" stroke-width="1.5" stroke-linecap="round" stroke-linejoin="round"/>
<line x1="10.1504" y1="5.75" x2="10.1504" y2="6.25001" stroke="#363636" stroke-width="1.5" stroke-linecap="round" stroke-linejoin="round"/>
<line x1="10.1504" y1="15.75" x2="10.1504" y2="16.25" stroke="#363636" stroke-width="1.5" stroke-linecap="round" stroke-linejoin="round"/>
<rect x="3" y="1" width="26" height="30" rx="2" stroke="#363636" stroke-width="1.5" stroke-linecap="round" stroke-linejoin="round"/>
<line x1="13.75" y1="18.75" x2="13.75" y2="26.25" stroke="#363636" stroke-width="1.5" stroke-linecap="round" stroke-linejoin="round"/>
<line x1="8.75" y1="21.75" x2="8.75" y2="26.25" stroke="#363636" stroke-width="1.5" stroke-linecap="round" stroke-linejoin="round"/>
<line x1="18.75" y1="19.75" x2="18.75" y2="26.25" stroke="#363636" stroke-width="1.5" stroke-linecap="round" stroke-linejoin="round"/>
<line x1="23.75" y1="13.75" x2="23.75" y2="26.25" stroke="#363636" stroke-width="1.5" stroke-linecap="round" stroke-linejoin="round"/>
</svg>
