<svg width="32" height="32" viewBox="0 0 32 32" fill="none" xmlns="http://www.w3.org/2000/svg">
    <path d="M14.0952 28H3.08792C2.48708 28 2 27.5041 2 26.8923V13.1077C2 12.4959 2.48708 12 3.08792 12H22.9121C23.5129 12 24 12.4959 24 13.1077V13.6"
          stroke="#363636" stroke-width="1.5" stroke-linecap="round" stroke-linejoin="round"/>
    <path d="M13 18.5238V21.404" stroke="#363636" stroke-width="2" stroke-linecap="round" stroke-linejoin="round"/>
    <path d="M19 11V5.57476C18.8675 4.32567 18.178 3.1632 17.0675 2.31643C15.9569 1.46966 14.5057 1 13 1C11.4943 1 10.0431 1.46966 8.93255 2.31643C7.82197 3.1632 7.1325 4.32567 7 5.57476V11"
          stroke="#363636" stroke-width="1.5" stroke-linecap="round" stroke-linejoin="round"/>
    <path d="M24.2117 21.9167C23.0278 21.8032 21.9735 22.6435 21.8568 23.7943C21.74 24.945 22.6045 25.9698 23.7883 26.0833C24.9722 26.1968 26.0265 25.3565 26.1432 24.2057C26.157 24.069 26.157 23.931 26.1432 23.7943C26.0409 22.8015 25.233 22.0164 24.2117 21.9167ZM29.3973 24C29.396 24.2277 29.3788 24.4547 29.3458 24.68L30.8672 25.84C31.0041 25.9502 31.0388 26.1402 30.9496 26.2897L29.5104 28.7103C29.4202 28.8581 29.2334 28.9216 29.0682 28.8604L27.5573 28.269C27.388 28.2036 27.1962 28.2249 27.0468 28.3263C26.8163 28.4807 26.574 28.6177 26.3219 28.7364C26.1611 28.8123 26.0497 28.9615 26.0251 29.1336L25.7987 30.7C25.768 30.8708 25.6173 30.9964 25.4393 31H22.5607C22.3858 30.9971 22.2363 30.8764 22.201 30.7099L21.9749 29.1457C21.949 28.9716 21.8356 28.8215 21.672 28.7459C21.4203 28.6279 21.179 28.4905 20.9499 28.3348C20.8008 28.234 20.6097 28.2131 20.4414 28.2788L18.9308 28.8699C18.7656 28.9311 18.5788 28.8679 18.4886 28.7201L17.0494 26.2995C16.9599 26.15 16.9949 25.96 17.1318 25.8498L18.4176 24.8685C18.5606 24.7579 18.6367 24.5849 18.6195 24.4079C18.6074 24.2715 18.6 24.1354 18.6 23.999C18.6 23.8626 18.6071 23.7285 18.6195 23.595C18.6347 23.4194 18.5579 23.248 18.4153 23.1391L17.1301 22.1578C16.9955 22.0472 16.9619 21.8585 17.0504 21.7103L18.4896 19.2897C18.5798 19.1419 18.7666 19.0784 18.9318 19.1396L20.4427 19.731C20.612 19.7964 20.8038 19.7751 20.9532 19.6737C21.1837 19.5193 21.426 19.3823 21.6781 19.2636C21.8389 19.1877 21.9503 19.0385 21.9749 18.8664L22.2013 17.3C22.232 17.1292 22.3827 17.0036 22.5607 17H25.4393C25.6142 17.0029 25.7637 17.1236 25.799 17.2901L26.0251 18.8543C26.051 19.0284 26.1644 19.1785 26.328 19.2541C26.5797 19.3721 26.821 19.5095 27.0501 19.6652C27.1992 19.766 27.3903 19.7869 27.5586 19.7212L29.0692 19.1301C29.2344 19.0689 29.4212 19.1321 29.5114 19.2799L30.9506 21.7005C31.0401 21.85 31.0051 22.04 30.8682 22.1502L29.5824 23.1315C29.4387 23.2418 29.362 23.4148 29.3788 23.5921C29.3899 23.7275 29.3973 23.8636 29.3973 24Z"
          stroke="#363636" stroke-width="1.5" stroke-linecap="round" stroke-linejoin="round"/>
</svg>
