<svg width="32" height="32" viewBox="0 0 32 32" fill="none" xmlns="http://www.w3.org/2000/svg">
<path d="M18 11.7778H1.96704C1.43296 11.7778 1 12.2186 1 12.7624V25.0153C1 25.5592 1.43296 26 1.96704 26H10" stroke="#363636" stroke-width="1.5" stroke-linecap="round" stroke-linejoin="round"/>
<path d="M10.7778 17.5767V20.1369" stroke="#363636" stroke-width="2" stroke-linecap="round" stroke-linejoin="round"/>
<path d="M16.111 10.8889V6.06645C15.9932 4.95615 15.3804 3.92284 14.3932 3.17016C13.406 2.41748 12.1161 2 10.7777 2C9.43923 2 8.14934 2.41748 7.16216 3.17016C6.17498 3.92284 5.56212 4.95615 5.44434 6.06645V10.8889" stroke="#363636" stroke-width="1.5" stroke-linecap="round" stroke-linejoin="round"/>
<path d="M20.3601 16.1564C20.3601 16.7189 20.3601 17.2641 20.5375 17.7746C18.6726 19.964 13.7486 25.7491 13.2899 26.1905C13.1056 26.3557 13 26.592 13 26.8395C13 27.2073 13.225 27.5621 13.4154 27.7611C13.701 28.0597 14.9212 29.189 15.1462 28.9727C15.8125 28.3236 15.9466 28.1505 16.2192 27.8823C16.6303 27.4799 16.176 26.6578 16.3187 26.3246C16.4615 25.9914 16.613 25.9265 16.8596 25.8746C17.1062 25.8227 17.5433 26.0001 17.8851 26.0044C18.2442 26.0087 18.4389 25.8573 18.7072 25.6063C18.9236 25.4073 19.0793 25.2212 19.0837 24.9313C19.0923 24.5419 18.5298 24.027 18.9495 23.616C19.3692 23.2049 19.975 23.8842 20.4207 23.8323C20.8663 23.7804 21.4072 23.1616 21.4635 22.8977C21.5197 22.6337 20.9572 21.9544 21.0437 21.5693C21.074 21.4395 21.338 21.1366 21.537 21.0934C21.7361 21.0501 22.6187 21.3919 22.8178 21.3487C23.0601 21.2967 23.3413 21.0414 23.5707 20.8987C24.2413 21.1886 24.8514 21.3054 25.6346 21.3054C28.5986 21.3054 31 18.9948 31 16.1477C31 13.3006 28.5986 11 25.6346 11C22.6707 11 20.3601 13.3093 20.3601 16.1564ZM28.2308 15.1538C28.2308 15.9184 27.6107 16.5384 26.8462 16.5384C26.0816 16.5384 25.4615 15.9184 25.4615 15.1538C25.4615 14.3893 26.0816 13.7692 26.8462 13.7692C27.6107 13.7692 28.2308 14.3893 28.2308 15.1538Z" stroke="#363636" stroke-width="1.5" stroke-linejoin="round"/>
</svg>
