<svg width="32" height="32" viewBox="0 0 32 32" fill="none" xmlns="http://www.w3.org/2000/svg">
<path d="M22.5928 14.5714H12.552C12.2477 14.5714 12.001 14.8017 12.001 15.0857V21.4857C12.001 21.7697 12.2477 22 12.552 22H22.5928C22.8971 22 23.1438 21.7697 23.1438 21.4857V15.0857C23.1438 14.8017 22.8971 14.5714 22.5928 14.5714Z" stroke="#363636" stroke-width="1.5" stroke-linecap="round" stroke-linejoin="round"/>
<path d="M17.5718 17.3572V18.75" stroke="#363636" stroke-width="1.5" stroke-linecap="round" stroke-linejoin="round"/>
<path d="M20.6111 14.5714V11.5488C20.544 10.8529 20.1948 10.2052 19.6323 9.73344C19.0698 9.26167 18.3348 9 17.5722 9C16.8095 9 16.0745 9.26167 15.512 9.73344C14.9495 10.2052 14.6003 10.8529 14.5332 11.5488V14.5714" stroke="#363636" stroke-width="1.5" stroke-linecap="round" stroke-linejoin="round"/>
<path d="M1 14.9201L4.34209 19.3762L7.68418 14.9201" stroke="#363636" stroke-width="1.5" stroke-linecap="round" stroke-linejoin="round"/>
<path d="M4.26318 16.3684C4.26318 8.98522 10.2484 3 17.6315 3C25.0147 3 30.9999 8.98522 30.9999 16.3684C30.9999 23.7515 25.0147 29.7367 17.6315 29.7367C14.2412 29.7367 11.1456 28.4746 8.78896 26.3946" stroke="#363636" stroke-width="1.5" stroke-linecap="round"/>
</svg>
