<svg width="32" height="32" viewBox="0 0 32 32" fill="none" xmlns="http://www.w3.org/2000/svg">
<path d="M20.2856 14.8095H6.11454C5.65675 14.8095 5.28564 15.1874 5.28564 15.6535V26.156C5.28564 26.6221 5.65675 27 6.11454 27H12.9999" stroke="#363636" stroke-width="1.5" stroke-linecap="round" stroke-linejoin="round"/>
<path d="M13.6665 19.78V21.9745" stroke="#363636" stroke-width="2" stroke-linecap="round" stroke-linejoin="round"/>
<path d="M18.2381 14.0476V9.91412C18.1371 8.96243 17.6118 8.07674 16.7657 7.43158C15.9195 6.78642 14.8139 6.42859 13.6666 6.42859C12.5194 6.42859 11.4138 6.78642 10.5676 7.43158C9.72148 8.07674 9.19617 8.96243 9.09521 9.91412V14.0476" stroke="#363636" stroke-width="1.5" stroke-linecap="round" stroke-linejoin="round"/>
<path d="M8.71429 11.381H1.82889C1.37111 11.381 1 11.7588 1 12.225V22.7275C1 23.1936 1.37111 23.5715 1.82889 23.5715H5.28571" stroke="#363636" stroke-width="1.5" stroke-linecap="round" stroke-linejoin="round"/>
<path d="M13.9524 6.48553C13.8515 5.53384 13.3262 4.64815 12.48 4.00299C11.6339 3.35784 10.5282 3 9.381 3C8.23377 3 7.12815 3.35784 6.28199 4.00299C5.43584 4.64815 4.91052 5.53384 4.80957 6.48553V10.619" stroke="#363636" stroke-width="1.5" stroke-linecap="round" stroke-linejoin="round"/>
<path d="M21.8799 18.5626C21.8799 19.0448 21.8799 19.5121 22.032 19.9497C20.4335 21.8264 16.2129 26.785 15.8198 27.1633C15.6618 27.305 15.5713 27.5075 15.5713 27.7196C15.5713 28.0348 15.7641 28.339 15.9273 28.5096C16.1721 28.7655 17.218 29.7335 17.4108 29.548C17.982 28.9917 18.097 28.8434 18.3306 28.6134C18.683 28.2685 18.2935 27.5638 18.4159 27.2782C18.5383 26.9927 18.6681 26.937 18.8795 26.8925C19.0909 26.848 19.4655 27.0001 19.7585 27.0038C20.0663 27.0075 20.2332 26.8777 20.4632 26.6626C20.6486 26.492 20.7821 26.3325 20.7858 26.084C20.7933 25.7502 20.3111 25.3089 20.6709 24.9566C21.0306 24.6042 21.5499 25.1865 21.9319 25.142C22.3139 25.0975 22.7775 24.5671 22.8257 24.3409C22.8739 24.1147 22.3918 23.5324 22.4659 23.2023C22.4919 23.091 22.7181 22.8314 22.8887 22.7943C23.0593 22.7573 23.8159 23.0502 23.9865 23.0132C24.1942 22.9687 24.4353 22.7498 24.6319 22.6274C25.2067 22.8759 25.7297 22.9761 26.401 22.9761C28.9415 22.9761 30.9999 20.9956 30.9999 18.5552C30.9999 16.1148 28.9415 14.1429 26.401 14.1429C23.8604 14.1429 21.8799 16.1223 21.8799 18.5626ZM28.6262 17.7033C28.6262 18.3586 28.0948 18.8901 27.4394 18.8901C26.7841 18.8901 26.2526 18.3586 26.2526 17.7033C26.2526 17.048 26.7841 16.5165 27.4394 16.5165C28.0948 16.5165 28.6262 17.048 28.6262 17.7033Z" stroke="#363636" stroke-width="1.5" stroke-linejoin="round"/>
</svg>
