<svg width="32" height="32" viewBox="0 0 32 32" fill="none" xmlns="http://www.w3.org/2000/svg">
    <path d="M20.5 5V2C20.5 1.44772 20.0523 1 19.5 1H4C3.44772 1 3 1.44772 3 2V13M20.5 21V24C20.5 24.5523 20.0523 25 19.5 25H14"
          stroke="#363636" stroke-width="1.5" stroke-linecap="round" stroke-linejoin="round"/>
    <path d="M25 9L29 13L25 17" stroke="#363636" stroke-width="1.5" stroke-linecap="round" stroke-linejoin="round"/>
    <path d="M18 13L28 12.9835" stroke="#363636" stroke-width="1.5" stroke-linecap="round" stroke-linejoin="round"/>
    <path d="M3 2.65754C3 1.90476 3.80037 1.42189 4.4663 1.77292L13.4663 6.517C13.7945 6.69002 14 7.03057 14 7.40162V29.3425C14 30.0952 13.1996 30.5781 12.5337 30.2271L3.5337 25.483C3.20545 25.31 3 24.9694 3 24.5984V2.65754Z"
          stroke="#363636" stroke-width="1.5" stroke-linecap="round" stroke-linejoin="round"/>
    <ellipse cx="10.8333" cy="17.25" rx="0.833333" ry="1.25" fill="#363636"/>
</svg>
