<?xml version="1.0" encoding="utf-8"?>
<svg id="Capa_1" enable-background="new 0 0 512 512" height="512" viewBox="0 0 512 512" width="512" xmlns="http://www.w3.org/2000/svg">
  <g>
    <g>
      <path d="m165.265 420.075c4.142 0 7.5-3.358 7.5-7.5v-4.915c10.604-2.64 18.828-10.671 21.04-21.278 2.643-12.675-3.867-24.514-16.585-30.16-1.436-.638-2.935-1.304-4.455-1.985v-22.824c2.635 1.044 4.288 2.117 4.385 2.182 3.398 2.333 8.045 1.486 10.401-1.901 2.366-3.4 1.526-8.074-1.874-10.439-.344-.239-5.346-3.654-12.912-5.569v-4.128c0-4.142-3.358-7.5-7.5-7.5s-7.5 3.358-7.5 7.5v3.182c-1.136.151-2.288.352-3.458.622-8.926 2.06-15.603 9.159-17.423 18.526-1.776 9.137 1.658 18.248 8.748 23.21 3.043 2.13 7.163 4.339 12.134 6.729v29.421c-3.06-.484-5.444-1.588-9.161-4.019-3.467-2.268-8.115-1.296-10.382 2.17-2.268 3.466-1.296 8.115 2.17 10.382 6.58 4.304 11.384 5.981 17.373 6.554v4.238c-.001 4.144 3.357 7.502 7.499 7.502zm13.855-36.755c-.67 3.215-2.811 6.454-6.355 8.414v-20.972c5.056 2.856 7.422 7.442 6.355 12.558zm-24.886-38.51c-2.723-1.906-3.116-5.533-2.625-8.06.256-1.319 1.452-5.706 6.072-6.771.029-.007.056-.009.085-.016v17.014c-1.361-.76-2.565-1.49-3.532-2.167z" style="fill: rgb(33, 136, 201);"/>
      <path d="m427.73 0h-343.46c-4.142 0-7.5 3.358-7.5 7.5v325.29c0 4.142 3.358 7.5 7.5 7.5s7.5-3.358 7.5-7.5v-317.79h328.46v63.99c0 4.142 3.357 7.5 7.5 7.5s7.5-3.358 7.5-7.5v-71.49c0-4.142-3.357-7.5-7.5-7.5z" style="fill: rgb(12, 44, 99);"/>
      <path d="m427.73 106.59c-4.143 0-7.5 3.358-7.5 7.5v370.007l-21.136-24.865c-1.426-1.677-3.515-2.643-5.716-2.643-2.2 0-4.289.967-5.714 2.644l-28.626 33.686-28.634-33.686c-1.426-1.677-3.515-2.643-5.716-2.643-2.2 0-4.289.966-5.714 2.643l-28.627 33.686-28.634-33.686c-1.426-1.676-3.515-2.643-5.715-2.643s-4.29.966-5.714 2.643l-28.635 33.686-28.625-33.686c-1.425-1.677-3.514-2.644-5.715-2.644-2.2 0-4.29.966-5.714 2.643l-28.635 33.686-28.625-33.686c-1.425-1.677-3.514-2.644-5.715-2.644-2.2 0-4.29.966-5.714 2.643l-21.136 24.865v-116.206c0-4.142-3.358-7.5-7.5-7.5s-7.5 3.358-7.5 7.5v136.61c0 3.144 1.961 5.955 4.913 7.04 2.949 1.083 6.265.213 8.302-2.182l28.635-33.686 28.625 33.686c1.425 1.677 3.514 2.644 5.715 2.644 2.2 0 4.29-.966 5.714-2.643l28.635-33.686 28.625 33.686c1.425 1.677 3.514 2.644 5.715 2.644 2.2 0 4.29-.966 5.714-2.643l28.637-33.691 28.635 33.687c1.426 1.677 3.515 2.643 5.715 2.643 2.201 0 4.29-.966 5.715-2.643l28.627-33.686 28.634 33.686c1.426 1.677 3.515 2.643 5.716 2.643 2.2 0 4.289-.967 5.714-2.644l28.626-33.686 28.635 33.686c1.454 1.71 3.558 2.643 5.717 2.643.865 0 1.741-.15 2.586-.461 2.951-1.085 4.912-3.896 4.912-7.04v-390.407c-.002-4.142-3.359-7.5-7.502-7.5z" style="fill: rgb(12, 44, 99);"/>
      <path d="m346.915 32.325h-181.83c-4.142 0-7.5 3.358-7.5 7.5v32.325c0 4.142 3.358 7.5 7.5 7.5h181.829c4.143 0 7.5-3.358 7.5-7.5v-32.325c.001-4.142-3.357-7.5-7.499-7.5zm-7.5 32.325h-166.83v-17.325h166.829v17.325z" style="fill: rgb(33, 136, 201);"/>
      <path d="m122.659 192.788h161.625c4.143 0 7.5-3.358 7.5-7.5s-3.357-7.5-7.5-7.5h-161.625c-4.142 0-7.5 3.358-7.5 7.5s3.357 7.5 7.5 7.5z" style="fill: rgb(12, 44, 99);"/>
      <path d="m115.159 144.882c0 4.142 3.358 7.5 7.5 7.5h161.625c4.143 0 7.5-3.358 7.5-7.5s-3.357-7.5-7.5-7.5h-161.625c-4.143 0-7.5 3.358-7.5 7.5z" style="fill: rgb(12, 44, 99);"/>
      <path d="m122.659 233.195h161.625c4.143 0 7.5-3.358 7.5-7.5s-3.357-7.5-7.5-7.5h-161.625c-4.142 0-7.5 3.358-7.5 7.5s3.357 7.5 7.5 7.5z" style="fill: rgb(12, 44, 99);"/>
      <path d="m122.659 273.601h161.625c4.143 0 7.5-3.358 7.5-7.5s-3.357-7.5-7.5-7.5h-161.625c-4.142 0-7.5 3.358-7.5 7.5s3.357 7.5 7.5 7.5z" style="fill: rgb(12, 44, 99);"/>
      <path d="m389.341 177.788h-34.346c-4.143 0-7.5 3.358-7.5 7.5s3.357 7.5 7.5 7.5h34.346c4.143 0 7.5-3.358 7.5-7.5s-3.357-7.5-7.5-7.5z" style="fill: rgb(12, 44, 99);"/>
      <path d="m389.341 137.382h-34.346c-4.143 0-7.5 3.358-7.5 7.5s3.357 7.5 7.5 7.5h34.346c4.143 0 7.5-3.358 7.5-7.5s-3.357-7.5-7.5-7.5z" style="fill: rgb(12, 44, 99);"/>
      <path d="m389.341 218.195h-34.346c-4.143 0-7.5 3.358-7.5 7.5s3.357 7.5 7.5 7.5h34.346c4.143 0 7.5-3.358 7.5-7.5s-3.357-7.5-7.5-7.5z" style="fill: rgb(12, 44, 99);"/>
      <path d="m389.341 258.601h-34.346c-4.143 0-7.5 3.358-7.5 7.5s3.357 7.5 7.5 7.5h34.346c4.143 0 7.5-3.358 7.5-7.5s-3.357-7.5-7.5-7.5z" style="fill: rgb(12, 44, 99);"/>
      <path d="m389.341 299.008h-34.346c-4.143 0-7.5 3.358-7.5 7.5s3.357 7.5 7.5 7.5h34.346c4.143 0 7.5-3.358 7.5-7.5s-3.357-7.5-7.5-7.5z" style="fill: rgb(12, 44, 99);"/>
      <path d="M 233.64 418.417 C 237.782 418.417 241.14 415.059 241.14 410.917 L 241.14 406.002 C 251.744 403.362 259.968 395.331 262.18 384.724 C 264.823 372.049 258.313 360.21 245.595 354.564 C 244.159 353.926 242.66 353.26 241.14 352.579 L 241.14 329.755 C 243.775 330.799 245.428 331.872 245.525 331.937 C 248.923 334.27 253.57 333.423 255.926 330.036 C 258.292 326.636 257.452 321.962 254.052 319.597 C 253.708 319.358 248.706 315.943 241.14 314.028 L 241.14 309.9 C 241.14 305.758 237.782 302.4 233.64 302.4 C 229.498 302.4 226.14 305.758 226.14 309.9 L 226.14 313.082 C 225.004 313.233 223.852 313.434 222.682 313.704 C 213.756 315.764 207.079 322.863 205.259 332.23 C 203.483 341.367 206.917 350.478 214.007 355.44 C 217.05 357.57 221.17 359.779 226.141 362.169 L 226.141 391.59 C 223.081 391.106 220.697 390.002 216.98 387.571 C 213.513 385.303 208.865 386.275 206.598 389.741 C 204.33 393.207 205.302 397.856 208.768 400.123 C 215.348 404.427 220.152 406.104 226.141 406.677 L 226.141 410.915 C 226.14 415.059 229.498 418.417 233.64 418.417 Z M 247.495 381.662 C 246.825 384.877 244.684 388.116 241.14 390.076 L 241.14 369.104 C 246.196 371.96 248.562 376.546 247.495 381.662 Z M 222.609 343.152 C 219.886 341.246 219.493 337.619 219.984 335.092 C 220.24 333.773 221.436 329.386 226.056 328.321 C 226.085 328.314 226.112 328.312 226.141 328.305 L 226.141 345.319 C 224.78 344.559 223.576 343.829 222.609 343.152 Z" style="fill: rgb(33, 136, 201);"/>
      <path d="M 301.825 419.635 C 305.967 419.635 309.325 416.277 309.325 412.135 L 309.325 407.22 C 319.929 404.58 328.153 396.549 330.365 385.942 C 333.008 373.267 326.498 361.428 313.78 355.782 C 312.344 355.144 310.845 354.478 309.325 353.797 L 309.325 330.973 C 311.96 332.017 313.613 333.09 313.71 333.155 C 317.108 335.488 321.755 334.641 324.111 331.254 C 326.477 327.854 325.637 323.18 322.237 320.815 C 321.893 320.576 316.891 317.161 309.325 315.246 L 309.325 311.118 C 309.325 306.976 305.967 303.618 301.825 303.618 C 297.683 303.618 294.325 306.976 294.325 311.118 L 294.325 314.3 C 293.189 314.451 292.037 314.652 290.867 314.922 C 281.941 316.982 275.264 324.081 273.444 333.448 C 271.668 342.585 275.102 351.696 282.192 356.658 C 285.235 358.788 289.355 360.997 294.326 363.387 L 294.326 392.808 C 291.266 392.324 288.882 391.22 285.165 388.789 C 281.698 386.521 277.05 387.493 274.783 390.959 C 272.515 394.425 273.487 399.074 276.953 401.341 C 283.533 405.645 288.337 407.322 294.326 407.895 L 294.326 412.133 C 294.325 416.277 297.683 419.635 301.825 419.635 Z M 315.68 382.88 C 315.01 386.095 312.869 389.334 309.325 391.294 L 309.325 370.322 C 314.381 373.178 316.747 377.764 315.68 382.88 Z M 290.794 344.37 C 288.071 342.464 287.678 338.837 288.169 336.31 C 288.425 334.991 289.621 330.604 294.241 329.539 C 294.27 329.532 294.297 329.53 294.326 329.523 L 294.326 346.537 C 292.965 345.777 291.761 345.047 290.794 344.37 Z" style="fill: rgb(33, 136, 201);"/>
    </g>
  </g>
</svg>