<?xml version="1.0" encoding="utf-8"?>
<!-- Generator: Adobe Illustrator 23.0.0, SVG Export Plug-In . SVG Version: 6.00 Build 0)  -->
<svg version="1.1" id="Layer_1" xmlns="http://www.w3.org/2000/svg" xmlns:xlink="http://www.w3.org/1999/xlink" x="0px" y="0px"
	 viewBox="0 0 1920 1115" style="enable-background:new 0 0 1920 1115;" xml:space="preserve">
<style type="text/css">
	.st0{fill:#FFFFFF;}
	.st1{fill:none;stroke:#363636;stroke-width:1.5;stroke-linecap:round;}
	.st2{fill:none;stroke:#363636;stroke-width:1.5;stroke-linecap:round;stroke-linejoin:round;}
	.st3{fill:#1A171B;}
	.st4{fill:none;stroke:#363636;stroke-width:2;stroke-linecap:round;stroke-linejoin:round;}
	.st5{fill:none;stroke:#0C2C63;stroke-width:2;stroke-linecap:round;stroke-linejoin:round;}
	.st6{fill:none;stroke:#2188C9;stroke-width:2;stroke-linecap:round;stroke-linejoin:round;}
	.st7{fill:#C4C4C4;}
	.st8{fill:#363636;stroke:#363636;stroke-linecap:round;stroke-linejoin:round;}
	.st9{fill:#363636;stroke:#363636;stroke-width:1.5;stroke-linecap:round;stroke-linejoin:round;}
	.st10{fill:#363636;}
	.st11{fill:none;stroke:#363636;stroke-width:1.5;stroke-linejoin:round;}
</style>
<rect class="st0" width="1920" height="1115"/>
<path d="M107.7,193v-8.8h-3.4V183h8.2v1.2h-3.4v8.8H107.7z M117.5,185.8c1.7,0,2.5,0.9,2.5,2.8v4.4h-1.4v-4.3c0-0.6-0.1-1.1-0.4-1.3
	c-0.2-0.3-0.6-0.4-1.1-0.4c-0.6,0-1.1,0.2-1.4,0.6c-0.4,0.4-0.5,0.9-0.5,1.5v4h-1.4v-10.3h1.4v4.3c0.2-0.4,0.6-0.7,1-0.9
	C116.5,185.9,117,185.8,117.5,185.8z M125.1,193.1c-0.7,0-1.3-0.1-1.8-0.4c-0.5-0.3-0.9-0.7-1.2-1.3c-0.3-0.6-0.4-1.2-0.4-1.9
	s0.1-1.4,0.4-1.9c0.3-0.6,0.7-1,1.2-1.3c0.5-0.3,1.1-0.4,1.8-0.4c0.7,0,1.3,0.1,1.8,0.4c0.5,0.3,0.9,0.7,1.2,1.3
	c0.3,0.6,0.4,1.2,0.4,1.9s-0.1,1.4-0.4,1.9c-0.3,0.6-0.7,1-1.2,1.3C126.3,192.9,125.7,193.1,125.1,193.1z M125,192
	c0.7,0,1.2-0.2,1.5-0.6c0.3-0.4,0.5-1.1,0.5-1.9c0-0.8-0.2-1.4-0.5-1.9c-0.3-0.4-0.8-0.7-1.5-0.7c-0.6,0-1.1,0.2-1.5,0.7
	c-0.4,0.4-0.5,1.1-0.5,1.9c0,0.8,0.2,1.5,0.5,1.9C123.9,191.8,124.4,192,125,192z M124.1,185h-1.2l1.7-2.9h0.9l1.7,2.9H126l-1-1.9
	L124.1,185z M133.9,185.8c1.7,0,2.5,0.9,2.5,2.8v4.4H135v-4.3c0-0.6-0.1-1.1-0.4-1.3c-0.2-0.3-0.6-0.4-1.1-0.4
	c-0.6,0-1.1,0.2-1.4,0.6c-0.4,0.4-0.5,0.9-0.5,1.5v4h-1.4v-5.1c0-0.7,0-1.4-0.1-2h1.3l0.1,1.2c0.2-0.4,0.5-0.8,1-1
	C132.9,185.9,133.4,185.8,133.9,185.8z M145,185.9v6.9c0,1.1-0.3,1.9-0.9,2.4c-0.6,0.6-1.4,0.8-2.5,0.8c-1.1,0-2-0.2-2.8-0.7
	l0.2-1.1c0.4,0.2,0.9,0.4,1.3,0.5c0.4,0.1,0.8,0.2,1.3,0.2c1.3,0,2-0.7,2-2v-1.5c-0.2,0.4-0.5,0.7-0.9,1c-0.4,0.2-0.9,0.3-1.4,0.3
	c-0.6,0-1.2-0.1-1.7-0.4c-0.5-0.3-0.8-0.7-1.1-1.2c-0.3-0.5-0.4-1.1-0.4-1.8c0-0.7,0.1-1.3,0.4-1.8c0.3-0.5,0.6-0.9,1.1-1.2
	c0.5-0.3,1-0.4,1.7-0.4c0.5,0,1,0.1,1.4,0.4c0.4,0.2,0.7,0.5,0.9,1v-1.1H145z M141.5,191.7c0.6,0,1.1-0.2,1.5-0.6s0.5-1,0.5-1.7
	s-0.2-1.3-0.5-1.7c-0.4-0.4-0.9-0.6-1.5-0.6c-0.6,0-1.1,0.2-1.5,0.6c-0.4,0.4-0.5,1-0.5,1.7c0,0.7,0.2,1.3,0.5,1.7
	C140.4,191.4,140.9,191.7,141.5,191.7z M152.6,187v3.5c0,0.5,0.1,0.8,0.3,1c0.2,0.2,0.5,0.3,0.9,0.3c0.2,0,0.5,0,0.7-0.1v1.1
	c-0.3,0.1-0.7,0.2-1.1,0.2c-0.7,0-1.3-0.2-1.7-0.6c-0.4-0.4-0.6-1-0.6-1.8V187h-1.4v-1.1h1.4v-1.8l1.4-0.5v2.3h1.9v1.1H152.6z
	 M155.9,193v-7.1h1.4v7.1H155.9z M155.7,182.9h1.6v1.5h-1.6V182.9z M163.1,185.8c1.7,0,2.5,0.9,2.5,2.8v4.4h-1.4v-4.3
	c0-0.6-0.1-1.1-0.4-1.3c-0.2-0.3-0.6-0.4-1.1-0.4c-0.6,0-1.1,0.2-1.4,0.6c-0.4,0.4-0.5,0.9-0.5,1.5v4h-1.4v-5.1c0-0.7,0-1.4-0.1-2
	h1.3l0.1,1.2c0.2-0.4,0.5-0.8,1-1C162.1,185.9,162.5,185.8,163.1,185.8z M173.2,187v3.5c0,0.5,0.1,0.8,0.3,1
	c0.2,0.2,0.5,0.3,0.9,0.3c0.2,0,0.5,0,0.7-0.1v1.1c-0.3,0.1-0.7,0.2-1.1,0.2c-0.7,0-1.3-0.2-1.7-0.6c-0.4-0.4-0.6-1-0.6-1.8V187
	h-1.4v-1.1h1.4v-1.8l1.4-0.5v2.3h1.9v1.1H173.2z M182.9,185.9v7.1h-1.4v-1.2c-0.2,0.4-0.5,0.7-0.9,1c-0.4,0.2-0.9,0.3-1.4,0.3
	c-0.6,0-1.2-0.1-1.7-0.4c-0.5-0.3-0.8-0.7-1.1-1.3c-0.3-0.6-0.4-1.2-0.4-1.9s0.1-1.4,0.4-1.9c0.3-0.6,0.6-1,1.1-1.3
	c0.5-0.3,1-0.5,1.6-0.5c0.5,0,1,0.1,1.4,0.4c0.4,0.2,0.7,0.5,0.9,1v-1.1H182.9z M179.5,192c0.6,0,1.1-0.2,1.5-0.7
	c0.4-0.4,0.5-1.1,0.5-1.9c0-0.8-0.2-1.4-0.5-1.9c-0.3-0.4-0.8-0.7-1.5-0.7c-0.6,0-1.1,0.2-1.5,0.7c-0.4,0.4-0.5,1.1-0.5,1.9
	c0,0.8,0.2,1.4,0.5,1.8C178.4,191.8,178.9,192,179.5,192z M179.2,185l-2-2.9h1.5l1.4,2.9H179.2z M185,193v-7.1h1.4v7.1H185z
	 M184.9,182.9h1.6v1.5h-1.6V182.9z M198.8,193H197l-3.4-3.3v3.3h-1.4v-10.3h1.4v6.4l3.1-3.2h1.8l-3.4,3.4L198.8,193z M203.4,185.8
	c1.7,0,2.5,0.9,2.5,2.8v4.4h-1.4v-4.3c0-0.6-0.1-1.1-0.4-1.3c-0.2-0.3-0.6-0.4-1.1-0.4c-0.6,0-1.1,0.2-1.4,0.6
	c-0.4,0.4-0.5,0.9-0.5,1.5v4h-1.4v-10.3h1.4v4.3c0.2-0.4,0.6-0.7,1-0.9C202.4,185.9,202.9,185.8,203.4,185.8z M211,193.1
	c-0.7,0-1.3-0.1-1.8-0.4c-0.5-0.3-0.9-0.7-1.2-1.3c-0.3-0.6-0.4-1.2-0.4-1.9s0.1-1.4,0.4-1.9c0.3-0.6,0.7-1,1.2-1.3
	c0.5-0.3,1.1-0.4,1.8-0.4c0.7,0,1.3,0.1,1.8,0.4c0.5,0.3,0.9,0.7,1.2,1.3c0.3,0.6,0.4,1.2,0.4,1.9s-0.1,1.4-0.4,1.9
	c-0.3,0.6-0.7,1-1.2,1.3C212.2,192.9,211.6,193.1,211,193.1z M210.9,192c0.7,0,1.2-0.2,1.5-0.6c0.3-0.4,0.5-1.1,0.5-1.9
	c0-0.8-0.2-1.4-0.5-1.9c-0.3-0.4-0.8-0.7-1.5-0.7c-0.6,0-1.1,0.2-1.5,0.7c-0.4,0.4-0.5,1.1-0.5,1.9c0,0.8,0.2,1.5,0.5,1.9
	C209.8,191.8,210.3,192,210.9,192z M222.5,185.9v7.1h-1.4v-1.2c-0.2,0.4-0.5,0.7-0.9,1c-0.4,0.2-0.9,0.3-1.4,0.3
	c-0.6,0-1.2-0.1-1.7-0.4c-0.5-0.3-0.8-0.7-1.1-1.3c-0.3-0.6-0.4-1.2-0.4-1.9s0.1-1.4,0.4-1.9c0.3-0.6,0.6-1,1.1-1.3
	c0.5-0.3,1-0.5,1.6-0.5c0.5,0,1,0.1,1.4,0.4c0.4,0.2,0.7,0.5,0.9,1v-1.1H222.5z M219.1,192c0.6,0,1.1-0.2,1.5-0.7
	c0.4-0.4,0.5-1.1,0.5-1.9c0-0.8-0.2-1.4-0.5-1.9c-0.3-0.4-0.8-0.7-1.5-0.7c-0.6,0-1.1,0.2-1.5,0.7c-0.4,0.4-0.5,1.1-0.5,1.9
	c0,0.8,0.2,1.4,0.5,1.8C218,191.8,218.5,192,219.1,192z M219.7,185h-0.8v-0.4c0-0.2,0-0.3,0.1-0.5c0.1-0.1,0.2-0.3,0.4-0.5
	c0.1-0.1,0.2-0.2,0.3-0.3c0.1-0.1,0.1-0.2,0.1-0.2c0-0.1-0.1-0.2-0.2-0.2c-0.1-0.1-0.2-0.1-0.4-0.1c-0.2,0-0.5,0.1-0.8,0.2l-0.2-0.7
	c0.4-0.2,0.8-0.3,1.2-0.3c0.5,0,0.8,0.1,1.1,0.3c0.3,0.2,0.4,0.4,0.4,0.7c0,0.2-0.1,0.4-0.2,0.5c-0.1,0.1-0.3,0.3-0.4,0.4
	c-0.2,0.1-0.3,0.2-0.4,0.4c-0.1,0.1-0.1,0.2-0.1,0.3V185z M228.3,185.8c1.7,0,2.5,0.9,2.5,2.8v4.4h-1.4v-4.3c0-0.6-0.1-1.1-0.4-1.3
	c-0.2-0.3-0.6-0.4-1.1-0.4c-0.6,0-1.1,0.2-1.4,0.6c-0.4,0.4-0.5,0.9-0.5,1.5v4h-1.4v-5.1c0-0.7,0-1.4-0.1-2h1.3l0.1,1.2
	c0.2-0.4,0.5-0.8,1-1C227.3,185.9,227.8,185.8,228.3,185.8z"/>
<line class="st1" x1="599.3" y1="201.8" x2="607.8" y2="201.8"/>
<line class="st1" x1="599.3" y1="206.3" x2="603.8" y2="206.3"/>
<path class="st2" d="M625,227v-2.3c0-1.2-0.6-2.4-1.6-3.3s-2.4-1.4-3.8-1.4h-9.3c-1.4,0-2.8,0.5-3.8,1.4s-1.6,2.1-1.6,3.3v2.3"/>
<path class="st2" d="M615,216c3.3,0,6-2.7,6-6s-2.7-6-6-6s-6,2.7-6,6S611.7,216,615,216z"/>
<path class="st2" d="M615,200v-1c0-1.1-0.9-2-2-2h-4.5H597c-1.1,0-2,0.9-2,2v11c0,1.1,0.9,2,2,2h8"/>
<path class="st2" d="M55,134v-2.3c0-1.2-0.6-2.4-1.6-3.3c-1-0.9-2.4-1.4-3.8-1.4h-9.3c-1.4,0-2.8,0.5-3.8,1.4
	c-1,0.9-1.6,2.1-1.6,3.3v2.3"/>
<path class="st2" d="M45,123c3.3,0,6-2.7,6-6s-2.7-6-6-6s-6,2.7-6,6S41.7,123,45,123z"/>
<path class="st2" d="M45,107v-1c0-1.1-0.9-2-2-2h-3.5H27c-1.1,0-2,0.9-2,2v22c0,1.1,0.9,2,2,2h4"/>
<line class="st2" x1="29.3" y1="110.3" x2="36.8" y2="110.3"/>
<line class="st2" x1="29.3" y1="116.3" x2="34.8" y2="116.3"/>
<line class="st2" x1="29.3" y1="122.3" x2="33.8" y2="122.3"/>
<path class="st2" d="M530,294v-2.3c0-1.2-0.6-2.4-1.6-3.3s-2.4-1.4-3.8-1.4h-9.3c-1.4,0-2.8,0.5-3.8,1.4s-1.6,2.1-1.6,3.3v2.3"/>
<path class="st2" d="M520,283c3.3,0,6-2.7,6-6s-2.7-6-6-6s-6,2.7-6,6S516.7,283,520,283z"/>
<path class="st2" d="M520,267v-1c0-1.1-0.9-2-2-2h-3.5H502c-1.1,0-2,0.9-2,2v22c0,1.1,0.9,2,2,2h4"/>
<line class="st2" x1="504.3" y1="270.3" x2="511.8" y2="270.3"/>
<line class="st2" x1="504.3" y1="276.3" x2="509.8" y2="276.3"/>
<line class="st2" x1="504.3" y1="282.3" x2="508.8" y2="282.3"/>
<path class="st3" d="M603.3,287.5c0-0.3-0.2-0.5-0.5-0.5h-4.1c-0.3,0-0.5,0.2-0.5,0.5c0,0.3,0.2,0.5,0.5,0.5h4.1
	C603,288.1,603.3,287.8,603.3,287.5z"/>
<path class="st3" d="M603.6,290h-2.7c-0.3,0-0.5,0.2-0.5,0.5c0,0.3,0.2,0.5,0.5,0.5h2.7c0.3,0,0.5-0.2,0.5-0.5
	C604.1,290.2,603.9,290,603.6,290z"/>
<path class="st3" d="M604.1,284.5c0-0.3-0.3-0.5-0.5-0.5h-7c-0.3,0-0.5,0.3-0.5,0.5c0,0.3,0.3,0.5,0.5,0.5h7
	C603.9,285.1,604.1,284.9,604.1,284.5z"/>
<path class="st3" d="M612.9,281.4c-3.9-0.5-7.3,2.7-7,6.7c0.2,3,2.7,5.4,5.7,5.7c3.9,0.3,7.2-3,6.7-7
	C617.8,284,615.6,281.7,612.9,281.4z M612.6,292.7c-3.3,0.3-6-2.4-5.7-5.7c0.3-2.4,2.2-4.4,4.7-4.6c3.3-0.3,6,2.5,5.7,5.8
	C617,290.5,615,292.5,612.6,292.7z"/>
<path class="st3" d="M612,285.1c0.6,0,1.1,0.4,1.1,1c0,0.3,0.2,0.5,0.5,0.5c0.3,0,0.5-0.2,0.5-0.5c0-0.9-0.7-1.7-1.6-1.9v-0.4
	c0-0.3-0.2-0.5-0.5-0.5s-0.5,0.2-0.5,0.5v0.4c-0.9,0.2-1.6,1-1.6,1.9c0,0.9,0.5,1.9,2.1,1.9c0.7,0,1.1,0.3,1.1,1c0,0.5-0.5,1-1.1,1
	c-0.6,0-1.1-0.4-1.1-1c0-0.3-0.2-0.5-0.5-0.5s-0.5,0.2-0.5,0.5c0,0.9,0.7,1.7,1.6,1.9v0.4c0,0.3,0.2,0.5,0.5,0.5s0.5-0.2,0.5-0.5
	v-0.4c0.9-0.2,1.6-1,1.6-1.9c0-0.9-0.5-2-2.1-2c-0.7,0-1.1-0.3-1.1-1C610.9,285.5,611.4,285.1,612,285.1z"/>
<path class="st3" d="M609.2,274.5h5.7c0.2,0,0.4-0.1,0.5-0.3c0.2-0.4-0.1-0.7-0.5-0.7h-5.8c-0.4,0-0.6,0.4-0.5,0.7
	C608.8,274.3,609,274.5,609.2,274.5z"/>
<path class="st3" d="M610.5,298.8h3.2c0.3,0,0.5-0.2,0.5-0.5c0-0.3-0.2-0.5-0.5-0.5h-3.2c-0.3,0-0.5,0.2-0.5,0.5
	C610,298.6,610.2,298.8,610.5,298.8z"/>
<path class="st3" d="M602.7,281.1v-7.5c0-1.4,1.2-2.6,2.6-2.6h13.5c1.4,0,2.6,1.2,2.6,2.6v24.8c0,1.4-1.2,2.6-2.6,2.6h-13.5
	c-1.4,0-2.6-1.2-2.6-2.6v-4h1v4c0,0.9,0.7,1.6,1.6,1.6h13.5c0.9,0,1.6-0.7,1.6-1.6v-24.8c0-0.9-0.7-1.6-1.6-1.6h-13.5
	c-0.9,0-1.6,0.7-1.6,1.6v7.5H602.7z"/>
<path class="st2" d="M436,522l3-3l3,3"/>
<path class="st2" d="M436,516l3-3l3,3"/>
<path class="st2" d="M821.6,310c-1.5-1.2-3.5-2-5.6-2c-5,0-9,4-9,9s4,9,9,9c2.1,0,4.1-0.7,5.6-2"/>
<path class="st2" d="M811.9,281.6c-1.5-2.8-4.5-4.6-7.9-4.6c-5,0-9,4-9,9s4,9,9,9c3.4,0,6.3-1.9,7.9-4.6"/>
<path class="st2" d="M760,275h16v12v7l-4-3h-12V275z"/>
<path class="st2" d="M687,291L687,291c0.6,0,1,0.4,1,1l0,0c0,0.6-0.4,1-1,1l0,0c-0.6,0-1-0.4-1-1l0,0C686,291.4,686.4,291,687,291z"
	/>
<path class="st2" d="M681.8,274.3h4.8"/>
<path class="st2" d="M682,287h4"/>
<path class="st2" d="M682,284h3"/>
<path class="st2" d="M682,281h4"/>
<path class="st2" d="M701.3,273.3c0-0.9-0.5-2.7-2.7-2.7c-2.1,0-2.7,1.8-2.7,2.7c0,0.9,0.5,2.7,2.7,2.7"/>
<path class="st2" d="M696,278.7c0,0.9,0.5,2.7,2.7,2.7c2.1,0,2.7-1.8,2.7-2.7c0-0.9-0.5-2.7-2.7-2.7"/>
<line class="st2" x1="698.6" y1="268.8" x2="698.6" y2="269.9"/>
<line class="st2" x1="698.6" y1="282.1" x2="698.6" y2="283.3"/>
<path class="st2" d="M694,289v5c0,1.1-0.9,2-2,2h-11c-1.1,0-2-0.9-2-2v-21c0-1.1,0.9-2,2-2h6"/>
<path class="st2" d="M635,328v5c0,1.1,0.9,2,2,2h11c1.1,0,2-0.9,2-2v-21c0-1.1-0.9-2-2-2h-6"/>
<path class="st2" d="M689,275.8c0,9.8,2.5,11.2,2.5,11.2s5.1-1.3,7.5-1.3c5.5,0,10-4.4,10-9.8s-4.5-9.8-10-9.8S689,270.4,689,275.8z
	"/>
<path class="st4" d="M1104.3,157.3v-4.1c0-2.2-1-4.2-2.7-5.8c-1.8-1.5-4.1-2.4-6.6-2.4h-16.3c-2.5,0-4.8,0.9-6.6,2.4
	s-2.7,3.6-2.7,5.8v4.1"/>
<path class="st4" d="M1086.8,138c5.8,0,10.5-4.7,10.5-10.5c0-5.8-4.7-10.5-10.5-10.5s-10.5,4.7-10.5,10.5
	C1076.3,133.3,1080.9,138,1086.8,138z"/>
<path class="st4" d="M1086.8,110.5v-1.8c0-2.2-1.8-4-4-4h-5.6h-21.4c-2.2,0-4,1.8-4,4v37.5c0,2.2,1.8,4,4,4h7"/>
<line class="st4" x1="1058.9" y1="116" x2="1072.6" y2="116"/>
<line class="st4" x1="1058.9" y1="126.5" x2="1069.1" y2="126.5"/>
<line class="st4" x1="1058.9" y1="137" x2="1067.4" y2="137"/>
<path class="st4" d="M1162.8,146.5L1162.8,146.5c1,0,1.8,0.8,1.8,1.8l0,0c0,1-0.8,1.8-1.8,1.8l0,0c-1,0-1.8-0.8-1.8-1.8l0,0
	C1161,147.3,1161.8,146.5,1162.8,146.5z"/>
<path class="st4" d="M1153.6,117.2h8.3"/>
<path class="st4" d="M1154,139.5h7"/>
<path class="st4" d="M1154,134.3h5.3"/>
<path class="st4" d="M1154,129h7"/>
<path class="st4" d="M1187.8,115.6c0-1.6-0.9-4.7-4.7-4.7c-3.7,0-4.7,3.1-4.7,4.7c0,1.6,0.9,4.7,4.7,4.7"/>
<path class="st4" d="M1178.5,124.9c0,1.6,0.9,4.7,4.7,4.7c3.7,0,4.7-3.1,4.7-4.7c0-1.6-0.9-4.7-4.7-4.7"/>
<line class="st4" x1="1182.8" y1="107.3" x2="1182.8" y2="109.9"/>
<line class="st4" x1="1182.8" y1="130.6" x2="1182.8" y2="133.3"/>
<path class="st4" d="M1175,143v10.3c0,1.1-0.9,2-2,2h-22.3c-1.1,0-2-0.9-2-2v-39.8c0-1.1,0.9-2,2-2h12"/>
<path class="st4" d="M1166.3,120c0,5.4,0,17.2,0,17.2s13.4,0,17.5,0c9.7,0,17.5-7.7,17.5-17.2s-7.8-17.2-17.5-17.2
	S1166.3,110.5,1166.3,120z"/>
<path class="st2" d="M687,345L687,345c0.6,0,1,0.4,1,1l0,0c0,0.6-0.4,1-1,1l0,0c-0.6,0-1-0.4-1-1l0,0C686,345.4,686.4,345,687,345z"
	/>
<path class="st2" d="M682,325h10"/>
<path class="st2" d="M701.8,332.5c0-0.7-0.4-2-2-2s-2,1.3-2,2s0.4,2,2,2"/>
<path class="st2" d="M697.8,336.5c0,0.7,0.4,2,2,2s2-1.3,2-2s-0.4-2-2-2"/>
<line class="st2" x1="699.9" y1="329.3" x2="699.9" y2="329.8"/>
<line class="st2" x1="699.9" y1="339.3" x2="699.9" y2="339.8"/>
<path class="st2" d="M696,323.5V323c0-1.1-0.9-2-2-2h-14c-1.1,0-2,0.9-2,2v26c0,1.1,0.9,2,2,2h14c1.1,0,2-0.9,2-2v-3"/>
<path class="st2" d="M680,374.5h8"/>
<path class="st2" d="M667,382h7"/>
<path class="st2" d="M669,386.5h5"/>
<path class="st2" d="M671,391h3"/>
<path class="st2" d="M714,402h7"/>
<path class="st2" d="M716,406.5h5"/>
<path class="st2" d="M718,411h3"/>
<path class="st2" d="M682,427h4"/>
<path class="st2" d="M684,379L684,379c3.9,0,7,3.1,7,7l0,0c0,3.9-3.1,7-7,7l0,0c-3.9,0-7-3.1-7-7l0,0C677,382.1,680.1,379,684,379z"
	/>
<path class="st2" d="M732,398.3L732,398.3c4.3,0,7.8,3.5,7.8,7.8l0,0c0,4.3-3.5,7.8-7.8,7.8l0,0c-4.3,0-7.8-3.5-7.8-7.8l0,0
	C724.3,401.7,727.7,398.3,732,398.3z"/>
<path class="st2" d="M685.8,384.3c0-0.6-0.3-1.7-1.7-1.7c-1.3,0-1.7,1.1-1.7,1.7c0,0.6,0.3,1.7,1.7,1.7"/>
<path class="st2" d="M682.5,387.7c0,0.6,0.3,1.7,1.7,1.7c1.3,0,1.7-1.1,1.7-1.7c0-0.6-0.3-1.7-1.7-1.7"/>
<line class="st2" x1="684.4" y1="381.8" x2="684.4" y2="381.9"/>
<line class="st2" x1="684.4" y1="390.1" x2="684.4" y2="390.3"/>
<path class="st2" d="M733.8,404.3c0-0.6-0.3-1.7-1.7-1.7c-1.3,0-1.7,1.1-1.7,1.7c0,0.6,0.3,1.7,1.7,1.7"/>
<path class="st2" d="M730.5,407.7c0,0.6,0.3,1.7,1.7,1.7c1.3,0,1.7-1.1,1.7-1.7c0-0.6-0.3-1.7-1.7-1.7"/>
<line class="st2" x1="732.4" y1="401.8" x2="732.4" y2="401.9"/>
<line class="st2" x1="732.4" y1="410.1" x2="732.4" y2="410.3"/>
<path class="st2" d="M674,378.5V373c0-1.1,0.9-2,2-2h16c1.1,0,2,0.9,2,2v26c0,1.1-0.9,2-2,2h-16c-1.1,0-2-0.9-2-2v-4.5"/>
<path class="st2" d="M708,334.5c0,4.7-3.8,8.5-8.5,8.5c-1.5,0-3-0.4-4.3-1.1c-0.6-0.4-3,1-3.5,0.5c-0.5-0.5,0.8-3,0.4-3.6
	c-0.7-1.3-1.1-2.7-1.1-4.3c0-4.7,3.8-8.5,8.5-8.5S708,329.8,708,334.5z"/>
<path class="st4" d="M1068,243L1068,243c0.8,0,1.5,0.7,1.5,1.5l0,0c0,0.8-0.7,1.5-1.5,1.5l0,0c-0.8,0-1.5-0.7-1.5-1.5l0,0
	C1066.5,243.7,1067.2,243,1068,243z"/>
<path class="st4" d="M1061,202h14"/>
<path class="st4" d="M1052,240h32"/>
<path class="st4" d="M1091.9,216.3c0-1.3-0.8-3.9-3.9-3.9c-3.1,0-3.9,2.6-3.9,3.9c0,1.3,0.8,3.9,3.9,3.9"/>
<path class="st4" d="M1084.1,224c0,1.3,0.8,3.9,3.9,3.9c3.1,0,3.9-2.6,3.9-3.9c0-1.3-0.8-3.9-3.9-3.9"/>
<line class="st4" x1="1087.8" y1="209.5" x2="1087.8" y2="211.4"/>
<line class="st4" x1="1087.8" y1="228.9" x2="1087.8" y2="230.8"/>
<path class="st4" d="M1084,200.3L1084,200.3c0-1.8-1.5-3.3-3.3-3.3H1056c-2.2,0-4,1.8-4,4v44c0,2.2,1.8,4,4,4h24c2.2,0,4-1.8,4-4
	v-4.7"/>
<path class="st4" d="M1104,220c0,9.1-7.4,16.5-16.5,16.5c-3,0-5.8-0.8-8.3-2.2c-1.2-0.7-7.8,1-8.8,0c-1.1-1,2.8-6,2.1-7.3
	c-1.4-2.4-1.5-4-1.5-7c0-9.1,7.4-16.5,16.5-16.5S1104,210.9,1104,220z"/>
<path class="st2" d="M732,419.3L732,419.3c0.6,0,1,0.4,1,1l0,0c0,0.6-0.4,1-1,1l0,0c-0.6,0-1-0.4-1-1l0,0
	C731,419.8,731.4,419.3,732,419.3z"/>
<path class="st2" d="M684,396L684,396c0.6,0,1,0.4,1,1l0,0c0,0.6-0.4,1-1,1l0,0c-0.6,0-1-0.4-1-1l0,0C683,396.4,683.4,396,684,396z"
	/>
<path class="st2" d="M728,394.1h8"/>
<path class="st2" d="M752,417.5h20"/>
<path class="st2" d="M722,399v-6c0-1.1,0.9-2,2-2h16c1.1,0,2,0.9,2,2v28c0,1.1-0.9,2-2,2h-16c-1.1,0-2-0.9-2-2v-8"/>
<path class="st2" d="M746,276c0,7.7-6.3,14-14,14c-2.5,0-4.9-0.7-7-1.9c-1-0.6-5,1.7-5.8,0.9c-0.9-0.9,1.3-4.9,0.7-6
	c-1.2-2.1-1.9-4.5-1.9-7c0-7.7,6.3-14,14-14S746,268.3,746,276z"/>
<path class="st5" d="M144,125.8v-8.1c0-0.5-0.2-1-0.6-1.4l-5.5-5.7c-0.4-0.4-0.9-0.6-1.4-0.6H111c-1.1,0-2,0.9-2,2v41.5
	c0,1.1,0.9,2,2,2h18"/>
<path class="st5" d="M136,110v8h8"/>
<line class="st5" x1="114" y1="116" x2="120" y2="116"/>
<line class="st5" x1="124" y1="116" x2="126" y2="116"/>
<line class="st5" x1="114" y1="122" x2="126" y2="122"/>
<line class="st5" x1="130" y1="122" x2="134" y2="122"/>
<line class="st5" x1="114" y1="128" x2="116" y2="128"/>
<line class="st5" x1="120" y1="128" x2="126" y2="128"/>
<line class="st5" x1="114" y1="134" x2="120" y2="134"/>
<path class="st6" d="M152,153v-1.3c0-1.2-0.5-2.4-1.4-3.3c-0.9-0.9-2.1-1.4-3.4-1.4h-8.4c-1.3,0-2.5,0.5-3.4,1.4
	c-0.9,0.9-1.4,2.1-1.4,3.3v1.3"/>
<path class="st6" d="M143,143c2.8,0,5-2.2,5-5s-2.2-5-5-5s-5,2.2-5,5S140.2,143,143,143z"/>
<path class="st6" d="M143,126L143,126c9.9,0,18,8.1,18,18l0,0c0,9.9-8.1,18-18,18l0,0c-9.9,0-18-8.1-18-18l0,0
	C125,134.1,133.1,126,143,126z"/>
<path class="st6" d="M219,137v-1.3c0-1.2-0.5-2.4-1.4-3.3c-0.9-0.9-2.1-1.4-3.4-1.4h-8.4c-1.3,0-2.5,0.5-3.4,1.4
	c-0.9,0.9-1.4,2.1-1.4,3.3v1.3"/>
<path class="st6" d="M210,127c2.8,0,5-2.2,5-5s-2.2-5-5-5s-5,2.2-5,5S207.2,127,210,127z"/>
<line class="st5" x1="213" y1="146" x2="233" y2="146"/>
<line class="st5" x1="201" y1="153" x2="221" y2="153"/>
<line class="st5" x1="201" y1="146" x2="209" y2="146"/>
<line class="st5" x1="225" y1="153" x2="233" y2="153"/>
<line class="st6" x1="233" y1="120" x2="226" y2="120"/>
<line class="st6" x1="233" y1="127" x2="223" y2="127"/>
<line class="st6" x1="233" y1="134" x2="226" y2="134"/>
<path class="st5" d="M196,110h42c1.1,0,2,0.9,2,2v48c0,1.1-0.9,2-2,2h-42c-1.1,0-2-0.9-2-2v-48C194,110.9,194.9,110,196,110z"/>
<path class="st2" d="M566,378v-2.3c0-1.2-0.6-2.4-1.6-3.3s-2.4-1.4-3.8-1.4h-9.3c-1.4,0-2.8,0.5-3.8,1.4s-1.6,2.1-1.6,3.3v2.3"/>
<path class="st2" d="M556,367c3.3,0,6-2.7,6-6s-2.7-6-6-6s-6,2.7-6,6S552.7,367,556,367z"/>
<circle class="st2" cx="578" cy="359" r="8"/>
<rect x="419" y="372" class="st7" width="30" height="30"/>
<rect x="604" y="551" class="st7" width="30" height="30"/>
<rect x="474" y="372" class="st7" width="30" height="30"/>
<path class="st2" d="M532,408L532,408c4.4,0,8,3.6,8,8l0,0c0,4.4-3.6,8-8,8l0,0c-4.4,0-8-3.6-8-8l0,0C524,411.6,527.6,408,532,408z"
	/>
<path class="st2" d="M544,412L544,412c4.4,0,8,3.6,8,8l0,0c0,4.4-3.6,8-8,8l0,0c-4.4,0-8-3.6-8-8l0,0C536,415.6,539.6,412,544,412z"
	/>
<path class="st2" d="M546,418c0-0.7-0.4-2-2-2s-2,1.3-2,2s0.4,2,2,2"/>
<path class="st2" d="M542,422c0,0.7,0.4,2,2,2s2-1.3,2-2s-0.4-2-2-2"/>
<line class="st2" x1="544.2" y1="414.8" x2="544.2" y2="415.3"/>
<line class="st2" x1="544.2" y1="424.8" x2="544.2" y2="425.3"/>
<path class="st2" d="M431,517c0-0.8-0.5-2.5-2.5-2.5s-2.5,1.7-2.5,2.5s0.5,2.5,2.5,2.5"/>
<path class="st2" d="M426,522c0,0.8,0.5,2.5,2.5,2.5s2.5-1.7,2.5-2.5c0-0.8-0.5-2.5-2.5-2.5"/>
<line class="st2" x1="428.5" y1="512.8" x2="428.5" y2="513.8"/>
<line class="st2" x1="428.5" y1="525.2" x2="428.5" y2="526.2"/>
<line class="st2" x1="431.8" y1="547.3" x2="442.3" y2="547.3"/>
<line class="st2" x1="437.8" y1="532.3" x2="442.3" y2="532.3"/>
<line class="st2" x1="425.8" y1="532.3" x2="434.3" y2="532.3"/>
<line class="st2" x1="439.8" y1="528.3" x2="442.3" y2="528.3"/>
<line class="st2" x1="449.8" y1="501.3" x2="458.3" y2="501.3"/>
<path class="st2" d="M423,508h22c1.1,0,2,0.9,2,2v26c0,1.1-0.9,2-2,2h-22c-1.1,0-2-0.9-2-2v-26C421,508.9,421.9,508,423,508z"/>
<path class="st2" d="M478,482h22c1.1,0,2,0.9,2,2v26c0,1.1-0.9,2-2,2h-22c-1.1,0-2-0.9-2-2v-26C476,482.9,476.9,482,478,482z"/>
<line class="st2" x1="562.8" y1="457.3" x2="591.3" y2="457.3"/>
<line class="st2" x1="474.8" y1="457.3" x2="503.3" y2="457.3"/>
<path class="st2" d="M564,451L564,451c0.6,0,1,0.4,1,1l0,0c0,0.6-0.4,1-1,1l0,0c-0.6,0-1-0.4-1-1l0,0C563,451.4,563.4,451,564,451z"
	/>
<path class="st2" d="M572,444L572,444c0.6,0,1,0.4,1,1l0,0c0,0.6-0.4,1-1,1l0,0c-0.6,0-1-0.4-1-1l0,0C571,444.4,571.4,444,572,444z"
	/>
<path class="st2" d="M580,450L580,450c0.6,0,1,0.4,1,1l0,0c0,0.6-0.4,1-1,1l0,0c-0.6,0-1-0.4-1-1l0,0C579,450.4,579.4,450,580,450z"
	/>
<path class="st2" d="M588,440L588,440c0.6,0,1,0.4,1,1l0,0c0,0.6-0.4,1-1,1l0,0c-0.6,0-1-0.4-1-1l0,0C587,440.4,587.4,440,588,440z"
	/>
<path class="st2" d="M564,452l8-7l8,6l8-10"/>
<path class="st2" d="M485,438c0-0.7-0.4-2-2-2s-2,1.3-2,2s0.4,2,2,2"/>
<path class="st2" d="M481,442c0,0.7,0.4,2,2,2s2-1.3,2-2s-0.4-2-2-2"/>
<line class="st2" x1="483.1" y1="434.8" x2="483.1" y2="435.3"/>
<line class="st2" x1="483.1" y1="444.8" x2="483.1" y2="445.3"/>
<path class="st2" d="M497,442c0-0.7-0.4-2-2-2s-2,1.3-2,2s0.4,2,2,2"/>
<path class="st2" d="M493,446c0,0.7,0.4,2,2,2s2-1.3,2-2s-0.4-2-2-2"/>
<line class="st2" x1="495.1" y1="438.8" x2="495.1" y2="439.3"/>
<line class="st2" x1="495.1" y1="448.8" x2="495.1" y2="449.3"/>
<path class="st2" d="M490.6,437.5c-1-3.2-4.1-5.5-7.6-5.5c-4.4,0-8,3.6-8,8s3.6,8,8,8c1.7,0,3.2-0.5,4.5-1.4"/>
<circle class="st2" cx="495" cy="444" r="8"/>
<path class="st2" d="M113,385.9h3.3l3.3,5.1l4.9-14l3.3,8.9h3.3"/>
<path class="st2" d="M107,384v9c0,1.1,0.9,2,2,2h24c1.1,0,2-0.9,2-2v-24c0-1.1-0.9-2-2-2h-9"/>
<path class="st2" d="M113,365L113,365c4.4,0,8,3.6,8,8l0,0c0,4.4-3.6,8-8,8l0,0c-4.4,0-8-3.6-8-8l0,0C105,368.6,108.6,365,113,365z"
	/>
<path class="st2" d="M115,371c0-0.7-0.4-2-2-2s-2,1.3-2,2s0.4,2,2,2"/>
<path class="st2" d="M111,375c0,0.7,0.4,2,2,2s2-1.3,2-2s-0.4-2-2-2"/>
<line class="st2" x1="113.2" y1="367.8" x2="113.2" y2="368.3"/>
<line class="st2" x1="113.2" y1="377.8" x2="113.2" y2="378.3"/>
<path class="st2" d="M164,373c0-0.7-0.4-2-2-2s-2,1.3-2,2s0.4,2,2,2"/>
<path class="st2" d="M160,377c0,0.7,0.4,2,2,2s2-1.3,2-2s-0.4-2-2-2"/>
<line class="st2" x1="162.1" y1="369.8" x2="162.1" y2="370.3"/>
<line class="st2" x1="162.1" y1="379.8" x2="162.1" y2="380.3"/>
<path class="st2" d="M157,365h22c1.1,0,2,0.9,2,2v26c0,1.1-0.9,2-2,2h-22c-1.1,0-2-0.9-2-2v-26C155,365.9,155.9,365,157,365z"/>
<line class="st2" x1="165.8" y1="382.8" x2="165.8" y2="390.3"/>
<line class="st2" x1="160.8" y1="385.8" x2="160.8" y2="390.3"/>
<line class="st2" x1="170.8" y1="383.8" x2="170.8" y2="390.3"/>
<line class="st2" x1="175.8" y1="377.8" x2="175.8" y2="390.3"/>
<path class="st2" d="M120,261h-13c-1.1,0-2,0.9-2,2v18c0,1.1,0.9,2,2,2h13.1c0.5,0,1-0.2,1.4-0.6l4.9-4.9c0.4-0.4,0.6-0.9,0.6-1.4
	V268"/>
<path class="st2" d="M126,277h-5v5"/>
<path class="st8" d="M130.2,256.5l-15.9,15.9L113,275l2.6-1.3l15.9-15.9L130.2,256.5z"/>
<path class="st8" d="M133.4,253.3l-1.3,1.3l1.3,1.3l1.3-1.3c0.2-0.2,0.3-0.4,0.3-0.6s-0.1-0.5-0.3-0.6l0,0c-0.2-0.2-0.4-0.3-0.6-0.3
	C133.8,253,133.6,253.1,133.4,253.3L133.4,253.3z"/>
<path class="st9" d="M178.1,259.2l-14.4,14.5l-1.2,2.3l2.3-1.2l14.5-14.4L178.1,259.2z"/>
<path class="st9" d="M181.1,256.2l-1.2,1.2l1.2,1.2l1.2-1.2c0.2-0.2,0.2-0.4,0.2-0.6c0-0.2-0.1-0.4-0.2-0.6l0,0
	c-0.2-0.2-0.4-0.2-0.6-0.2C181.4,256,181.2,256.1,181.1,256.2L181.1,256.2z"/>
<line class="st2" x1="157.3" y1="265.3" x2="164.8" y2="265.3"/>
<line class="st2" x1="153.8" y1="265.3" x2="153.3" y2="265.3"/>
<line class="st2" x1="157.3" y1="272.3" x2="160.8" y2="272.3"/>
<line class="st2" x1="153.8" y1="272.3" x2="153.3" y2="272.3"/>
<line class="st2" x1="157.3" y1="279.3" x2="162.8" y2="279.3"/>
<line class="st2" x1="153.8" y1="279.3" x2="153.3" y2="279.3"/>
<path class="st8" d="M226.6,258.2l-14.4,14.5L211,275l2.3-1.2l14.5-14.4L226.6,258.2z"/>
<path class="st8" d="M229.6,255.2l-1.2,1.2l1.2,1.2l1.2-1.2c0.2-0.2,0.2-0.4,0.2-0.6s-0.1-0.4-0.2-0.6l0,0c-0.2-0.2-0.4-0.2-0.6-0.2
	C229.9,255,229.7,255.1,229.6,255.2L229.6,255.2z"/>
<line class="st2" x1="205.8" y1="266.3" x2="212.3" y2="266.3"/>
<line class="st2" x1="205.8" y1="271.3" x2="209.3" y2="271.3"/>
<line class="st2" x1="205.8" y1="276.3" x2="207.3" y2="276.3"/>
<path class="st2" d="M217,275v4c0,1.1-0.9,2-2,2h-12c-1.1,0-2-0.9-2-2v-16c0-1.1,0.9-2,2-2h12c1.1,0,2,0.9,2,2v0.5"/>
<path class="st2" d="M126.3,326.3v5.3h4"/>
<path class="st2" d="M117,330.2l2,2.7l2-2.7"/>
<path class="st1" d="M119,331c0-4.4,3.6-8,8-8c4.4,0,8,3.6,8,8s-3.6,8-8,8c-2,0-3.9-0.8-5.3-2"/>
<path class="st2" d="M127,319v-4.2c0-0.5-0.2-1-0.6-1.4l-3.8-3.8c-0.4-0.4-0.9-0.6-1.4-0.6H107c-1.1,0-2,0.9-2,2v24c0,1.1,0.9,2,2,2
	h9"/>
<path class="st2" d="M121,310v5h5"/>
<line class="st1" x1="109.8" y1="314.3" x2="116.3" y2="314.3"/>
<line class="st1" x1="109.8" y1="319.8" x2="118.3" y2="319.8"/>
<line class="st1" x1="109.8" y1="325.3" x2="114.3" y2="325.3"/>
<path class="st2" d="M176,319v-4.2c0-0.5-0.2-1-0.6-1.4l-3.8-3.8c-0.4-0.4-0.9-0.6-1.4-0.6H156c-1.1,0-2,0.9-2,2v24c0,1.1,0.9,2,2,2
	h9"/>
<path class="st2" d="M170,310v5h5"/>
<line class="st1" x1="158.8" y1="314.3" x2="165.3" y2="314.3"/>
<line class="st1" x1="158.8" y1="319.8" x2="167.3" y2="319.8"/>
<line class="st1" x1="158.8" y1="325.3" x2="163.3" y2="325.3"/>
<path class="st2" d="M182.7,337.6L182.7,337.6c0.2,1.3-1,2.2-2.1,2.2h-9.2c-1.2,0-2.3-0.9-2.1-2.2H182.7z M182.7,337.6
	c-0.3-2.6-1.4-3.9-2.5-4.8 M182.7,337.6l-2.5-4.8 M180.3,332.8c-0.2-0.1-0.3-0.3-0.5-0.4 M180.3,332.8l-0.5-0.4 M179.8,332.4
	c-0.1-0.1-0.1-0.1-0.2-0.2 M179.8,332.4l-0.2-0.2 M179.6,332.2c-0.2-0.2-0.4-0.3-0.5-0.5 M179.6,332.2l-0.5-0.5 M179.1,331.8
	c-0.2-0.3-0.3-0.5-0.3-0.8 M179.1,331.8l-0.3-0.8 M178.8,331c0-0.3,0.1-0.5,0.3-0.7 M178.8,331l0.3-0.7 M179.1,330.3
	c0.1-0.1,0.3-0.3,0.5-0.5 M179.1,330.3l0.5-0.5 M179.6,329.8c0.1,0,0.1-0.1,0.2-0.1 M179.6,329.8l0.2-0.1 M179.8,329.6
	c0.2-0.1,0.3-0.3,0.5-0.4 M179.8,329.6l0.5-0.4 M180.3,329.2c1-0.9,2.2-2.2,2.4-4.8 M180.3,329.2l2.4-4.8 M182.7,324.4
	c0.1-1.3-1-2.2-2.1-2.2h-9.2c-1.2,0-2.3,0.9-2.1,2.2L182.7,324.4z M171.7,329.2c-1-0.9-2.2-2.2-2.4-4.8L171.7,329.2z M171.7,329.2
	c0.2,0.1,0.3,0.3,0.5,0.4 M171.7,329.2l0.5,0.4 M172.2,329.6c0.1,0.1,0.1,0.1,0.2,0.2 M172.2,329.6l0.2,0.2 M172.4,329.8
	c0.2,0.2,0.4,0.3,0.5,0.5 M172.4,329.8l0.5,0.5 M172.9,330.2c0.2,0.3,0.3,0.5,0.3,0.8 M172.9,330.2l0.3,0.8 M173.3,331
	c0,0.3-0.1,0.5-0.3,0.8 M173.3,331l-0.3,0.8 M172.9,331.8c-0.2,0.2-0.4,0.4-0.7,0.6 M172.9,331.8l-0.7,0.6 M172.2,332.4
	c-0.2,0.1-0.3,0.3-0.5,0.4 M172.2,332.4l-0.5,0.4 M171.7,332.8c-1,0.9-2.1,2.2-2.5,4.7L171.7,332.8z"/>
<path class="st10" d="M173.4,337h5.1c0.5,0,0.6-0.8,0.3-1.4c-0.7-1.4-2.4-2.2-2.4-3.6h-0.9c0,1.5-1.6,2.4-2.4,3.6
	C172.9,336.2,173,337,173.4,337z"/>
<path class="st10" d="M178.6,326h-5.1c-0.5,0-0.6,0.6-0.3,1.1c0.7,1.1,2.4,1.7,2.4,2.9h0.9c0-1.2,1.6-1.9,2.4-2.9
	C179.1,326.7,179,326,178.6,326z"/>
<path class="st2" d="M126.6,434.6h-10c-0.3,0-0.6,0.2-0.6,0.5v6.4c0,0.3,0.2,0.5,0.6,0.5h10c0.3,0,0.6-0.2,0.6-0.5v-6.4
	C127.1,434.8,126.9,434.6,126.6,434.6z"/>
<path class="st2" d="M121.6,437.4v1.4"/>
<path class="st2" d="M124.6,434.6v-3c-0.1-0.7-0.4-1.3-1-1.8c-0.6-0.5-1.3-0.7-2.1-0.7c-0.8,0-1.5,0.3-2.1,0.7
	c-0.6,0.5-0.9,1.1-1,1.8v3"/>
<path class="st2" d="M105,434.9l3.3,4.5l3.3-4.5"/>
<path class="st1" d="M108.3,436.4c0-7.4,6-13.4,13.4-13.4c7.4,0,13.4,6,13.4,13.4c0,7.4-6,13.4-13.4,13.4c-3.4,0-6.5-1.3-8.8-3.3"/>
<path class="st2" d="M166.1,448h-11c-0.6,0-1.1-0.5-1.1-1.1v-13.8c0-0.6,0.5-1.1,1.1-1.1h19.8c0.6,0,1.1,0.5,1.1,1.1v0.5"/>
<path class="st4" d="M165,438.5v2.9"/>
<path class="st2" d="M171,431v-5.4c-0.1-1.2-0.8-2.4-1.9-3.3c-1.1-0.8-2.6-1.3-4.1-1.3s-3,0.5-4.1,1.3c-1.1,0.8-1.8,2-1.9,3.3v5.4"
	/>
<path class="st2" d="M176.2,441.9c-1.2-0.1-2.2,0.7-2.4,1.9c-0.1,1.2,0.7,2.2,1.9,2.3c1.2,0.1,2.2-0.7,2.4-1.9c0-0.1,0-0.3,0-0.4
	C178,442.8,177.2,442,176.2,441.9z M181.4,444c0,0.2,0,0.5-0.1,0.7l1.5,1.2c0.1,0.1,0.2,0.3,0.1,0.5l-1.4,2.4
	c-0.1,0.1-0.3,0.2-0.4,0.1l-1.5-0.6c-0.2-0.1-0.4,0-0.5,0.1c-0.2,0.2-0.5,0.3-0.7,0.4c-0.2,0.1-0.3,0.2-0.3,0.4l-0.2,1.6
	c0,0.2-0.2,0.3-0.4,0.3h-2.9c-0.2,0-0.3-0.1-0.4-0.3l-0.2-1.6c0-0.2-0.1-0.3-0.3-0.4c-0.3-0.1-0.5-0.3-0.7-0.4
	c-0.1-0.1-0.3-0.1-0.5-0.1l-1.5,0.6c-0.2,0.1-0.4,0-0.4-0.1l-1.4-2.4c-0.1-0.1-0.1-0.3,0.1-0.4l1.3-1c0.1-0.1,0.2-0.3,0.2-0.5
	c0-0.1,0-0.3,0-0.4c0-0.1,0-0.3,0-0.4c0-0.2-0.1-0.3-0.2-0.5l-1.3-1c-0.1-0.1-0.2-0.3-0.1-0.4l1.4-2.4c0.1-0.1,0.3-0.2,0.4-0.1
	l1.5,0.6c0.2,0.1,0.4,0,0.5-0.1c0.2-0.2,0.5-0.3,0.7-0.4c0.2-0.1,0.3-0.2,0.3-0.4l0.2-1.6c0-0.2,0.2-0.3,0.4-0.3h2.9
	c0.2,0,0.3,0.1,0.4,0.3l0.2,1.6c0,0.2,0.1,0.3,0.3,0.4c0.3,0.1,0.5,0.3,0.7,0.4c0.1,0.1,0.3,0.1,0.5,0.1l1.5-0.6
	c0.2-0.1,0.4,0,0.4,0.1l1.4,2.4c0.1,0.1,0.1,0.3-0.1,0.4l-1.3,1c-0.1,0.1-0.2,0.3-0.2,0.5C181.4,443.7,181.4,443.9,181.4,444z"/>
<path class="st2" d="M218,431.8h-16c-0.5,0-1,0.4-1,1V445c0,0.5,0.4,1,1,1h8"/>
<path class="st4" d="M210.8,437.6v2.6"/>
<path class="st2" d="M216.1,430.9v-4.8c-0.1-1.1-0.7-2.1-1.7-2.9c-1-0.8-2.3-1.2-3.6-1.2c-1.3,0-2.6,0.4-3.6,1.2
	c-1,0.8-1.6,1.8-1.7,2.9v4.8"/>
<path class="st11" d="M220.4,436.2c0,0.6,0,1.1,0.2,1.6c-1.9,2.2-6.8,8-7.2,8.4c-0.2,0.2-0.3,0.4-0.3,0.6c0,0.4,0.2,0.7,0.4,0.9
	c0.3,0.3,1.5,1.4,1.7,1.2c0.7-0.6,0.8-0.8,1.1-1.1c0.4-0.4,0-1.2,0.1-1.6c0.1-0.3,0.3-0.4,0.5-0.5c0.2-0.1,0.7,0.1,1,0.1
	c0.4,0,0.6-0.1,0.8-0.4c0.2-0.2,0.4-0.4,0.4-0.7c0-0.4-0.6-0.9-0.1-1.3c0.4-0.4,1,0.3,1.5,0.2c0.4-0.1,1-0.7,1-0.9
	c0.1-0.3-0.5-0.9-0.4-1.3c0-0.1,0.3-0.4,0.5-0.5c0.2,0,1.1,0.3,1.3,0.3c0.2-0.1,0.5-0.3,0.8-0.5c0.7,0.3,1.3,0.4,2.1,0.4
	c3,0,5.4-2.3,5.4-5.2c0-2.8-2.4-5.1-5.4-5.1C222.7,431,220.4,433.3,220.4,436.2z M228.2,435.2c0,0.8-0.6,1.4-1.4,1.4
	c-0.8,0-1.4-0.6-1.4-1.4c0-0.8,0.6-1.4,1.4-1.4C227.6,433.8,228.2,434.4,228.2,435.2z"/>
<path class="st2" d="M120.1,504.4h-9.7c-0.5,0-1-0.4-1-1v-12.2c0-0.5,0.4-1,1-1h17.5c0.5,0,1,0.4,1,1v0.4"/>
<path class="st4" d="M119.1,496v2.5"/>
<path class="st2" d="M124.4,489.4v-4.8c-0.1-1.1-0.7-2.1-1.7-2.9c-1-0.7-2.3-1.2-3.6-1.2c-1.3,0-2.6,0.4-3.6,1.2
	c-1,0.7-1.6,1.8-1.7,2.9v4.8"/>
<path class="st2" d="M112.9,486.7H106c-0.5,0-1,0.4-1,1v12.2c0,0.5,0.4,1,1,1h2.7"/>
<path class="st2" d="M109.4,485.8V481c0.1-1.1,0.7-2.1,1.7-2.9c1-0.7,2.3-1.2,3.6-1.2c1.3,0,2.6,0.4,3.6,1.2
	c0.8,0.6,1.4,1.5,1.6,2.4"/>
<path class="st2" d="M129,499c-1-0.1-2,0.6-2.1,1.7c-0.1,1,0.7,1.9,1.7,2c1,0.1,2-0.6,2.1-1.7c0-0.1,0-0.2,0-0.4
	C130.6,499.8,129.9,499.1,129,499z M133.6,500.8c0,0.2,0,0.4,0,0.6l1.3,1c0.1,0.1,0.2,0.3,0.1,0.4l-1.3,2.1
	c-0.1,0.1-0.2,0.2-0.4,0.1l-1.3-0.5c-0.1-0.1-0.3,0-0.5,0.1c-0.2,0.1-0.4,0.3-0.6,0.4c-0.1,0.1-0.2,0.2-0.3,0.4l-0.2,1.4
	c0,0.2-0.2,0.3-0.3,0.3h-2.5c-0.2,0-0.3-0.1-0.3-0.3l-0.2-1.4c0-0.2-0.1-0.3-0.3-0.4c-0.2-0.1-0.4-0.2-0.6-0.4
	c-0.1-0.1-0.3-0.1-0.4,0l-1.3,0.5c-0.1,0.1-0.3,0-0.4-0.1l-1.3-2.1c-0.1-0.1,0-0.3,0.1-0.4l1.1-0.9c0.1-0.1,0.2-0.3,0.2-0.4
	c0-0.1,0-0.2,0-0.4c0-0.1,0-0.2,0-0.4c0-0.2-0.1-0.3-0.2-0.4l-1.1-0.9c-0.1-0.1-0.1-0.3-0.1-0.4l1.3-2.1c0.1-0.1,0.2-0.2,0.4-0.1
	l1.3,0.5c0.1,0.1,0.3,0,0.5-0.1c0.2-0.1,0.4-0.3,0.6-0.4c0.1-0.1,0.2-0.2,0.3-0.4l0.2-1.4c0-0.2,0.2-0.3,0.3-0.3h2.5
	c0.2,0,0.3,0.1,0.3,0.3l0.2,1.4c0,0.2,0.1,0.3,0.3,0.4c0.2,0.1,0.4,0.2,0.6,0.4c0.1,0.1,0.3,0.1,0.4,0l1.3-0.5
	c0.1-0.1,0.3,0,0.4,0.1l1.3,2.1c0.1,0.1,0,0.3-0.1,0.4l-1.1,0.9c-0.1,0.1-0.2,0.3-0.2,0.4C133.6,500.6,133.6,500.7,133.6,500.8z"/>
<path class="st2" d="M172.3,490.8h-14.2c-0.5,0-0.8,0.4-0.8,0.8v10.5c0,0.5,0.4,0.8,0.8,0.8h6.9"/>
<path class="st4" d="M165.7,495.8v2.2"/>
<path class="st2" d="M170.2,490v-4.1c-0.1-1-0.6-1.8-1.5-2.5c-0.8-0.6-2-1-3.1-1c-1.1,0-2.3,0.4-3.1,1c-0.8,0.6-1.4,1.5-1.5,2.5v4.1
	"/>
<path class="st2" d="M160.7,487.4h-6.9c-0.5,0-0.8,0.4-0.8,0.8v10.5c0,0.5,0.4,0.8,0.8,0.8h3.5"/>
<path class="st2" d="M166,482.5c-0.1-1-0.6-1.8-1.5-2.5c-0.8-0.6-2-1-3.1-1s-2.3,0.4-3.1,1c-0.8,0.6-1.4,1.5-1.5,2.5v4.1"/>
<path class="st11" d="M173.9,494.6c0,0.5,0,0.9,0.2,1.4c-1.6,1.9-5.8,6.8-6.2,7.2c-0.2,0.1-0.2,0.3-0.2,0.6c0,0.3,0.2,0.6,0.4,0.8
	c0.2,0.3,1.3,1.2,1.5,1c0.6-0.6,0.7-0.7,0.9-0.9c0.4-0.3,0-1,0.1-1.3c0.1-0.3,0.3-0.3,0.5-0.4c0.2,0,0.6,0.1,0.9,0.1
	c0.3,0,0.5-0.1,0.7-0.3c0.2-0.2,0.3-0.3,0.3-0.6c0-0.3-0.5-0.8-0.1-1.1c0.4-0.4,0.9,0.2,1.3,0.2c0.4,0,0.8-0.6,0.9-0.8
	c0-0.2-0.4-0.8-0.4-1.1c0-0.1,0.3-0.4,0.4-0.4c0.2,0,0.9,0.3,1.1,0.2c0.2,0,0.4-0.3,0.6-0.4c0.6,0.2,1.1,0.3,1.8,0.3
	c2.5,0,4.6-2,4.6-4.4c0-2.4-2.1-4.4-4.6-4.4C175.9,490.1,173.9,492.1,173.9,494.6z M180.6,493.7c0,0.7-0.5,1.2-1.2,1.2
	c-0.7,0-1.2-0.5-1.2-1.2c0-0.7,0.5-1.2,1.2-1.2C180.1,492.5,180.6,493,180.6,493.7z"/>
<path class="st2" d="M722.5,498.2v-3c0-0.6-0.4-1-1-1H706c-0.6,0-1,0.4-1,1v22c0,0.6,0.4,1,1,1h15.5c0.6,0,1-0.4,1-1v-3"/>
<path class="st2" d="M727,502.2l4,4l-4,4"/>
<path class="st2" d="M720,506.2l10,0"/>
<path class="st9" d="M705,495.7c0-0.8,0.8-1.2,1.5-0.9l9,4.7c0.3,0.2,0.5,0.5,0.5,0.9v21.9c0,0.8-0.8,1.2-1.5,0.9l-9-4.7
	c-0.3-0.2-0.5-0.5-0.5-0.9V495.7z"/>
<ellipse class="st0" cx="712.8" cy="510.3" rx="0.8" ry="1.3"/>
<path class="st2" d="M124,540v-5c0-1.1-0.9-2-2-2h-15c-1.1,0-2,0.9-2,2v26c0,1.1,0.9,2,2,2h15c1.1,0,2-0.9,2-2v-5"/>
<path class="st2" d="M129,542l6,6l-6,6"/>
<path class="st2" d="M111,548l23,0"/>
<path class="st2" d="M172.5,537v-3c0-0.6-0.4-1-1-1H156c-0.6,0-1,0.4-1,1v11 M172.5,553v3c0,0.6-0.4,1-1,1H166"/>
<path class="st2" d="M177,541l4,4l-4,4"/>
<path class="st2" d="M170,545l10,0"/>
<path class="st2" d="M155,534.7c0-0.8,0.8-1.2,1.5-0.9l9,4.7c0.3,0.2,0.5,0.5,0.5,0.9v21.9c0,0.8-0.8,1.2-1.5,0.9l-9-4.7
	c-0.3-0.2-0.5-0.5-0.5-0.9V534.7z"/>
<ellipse class="st10" cx="162.8" cy="549.3" rx="0.8" ry="1.3"/>
<path class="st2" d="M220.5,537v-3c0-0.6-0.4-1-1-1H204c-0.6,0-1,0.4-1,1v11 M220.5,553v3c0,0.6-0.4,1-1,1H214"/>
<path class="st2" d="M225,541.5l3.5,3.5l-3.5,3.5"/>
<path class="st2" d="M218.5,541.5l3.5,3.5l-3.5,3.5"/>
<path class="st9" d="M203,534.7c0-0.8,0.8-1.2,1.5-0.9l9,4.7c0.3,0.2,0.5,0.5,0.5,0.9v21.9c0,0.8-0.8,1.2-1.5,0.9l-9-4.7
	c-0.3-0.2-0.5-0.5-0.5-0.9V534.7z"/>
<ellipse class="st0" cx="210.8" cy="549.3" rx="0.8" ry="1.3"/>
</svg>
