<?xml version="1.0" encoding="utf-8"?>
<svg id="Outline" viewBox="0 0 512 512" width="512" height="512" xmlns="http://www.w3.org/2000/svg">
  <path d="M112,128h16a8,8,0,0,1,0,16H104a8,8,0,0,0,0,16h8v8a8,8,0,0,0,16,0v-8a24,24,0,0,0,0-48H112a8,8,0,0,1,0-16h24a8,8,0,0,0,0-16h-8V72a8,8,0,0,0-16,0v8a24,24,0,0,0,0,48Z" style="fill: rgb(255, 255, 255);"/>
  <path d="M216,96h56a8,8,0,0,0,0-16H216a8,8,0,0,0,0,16Z" style="fill: rgb(255, 255, 255);"/>
  <path d="M176,160h56a8,8,0,0,0,0-16H176a8,8,0,0,0,0,16Z" style="fill: rgb(255, 255, 255);"/>
  <path d="M176,128h96a8,8,0,0,0,0-16H176a8,8,0,0,0,0,16Z" style="fill: rgb(255, 255, 255);"/>
  <path d="M96,208H272a8,8,0,0,0,0-16H96a8,8,0,0,0,0,16Z" style="fill: rgb(255, 255, 255);"/>
  <path d="M280,232a8,8,0,0,0-8-8H96a8,8,0,0,0,0,16H272A8,8,0,0,0,280,232Z" style="fill: rgb(255, 255, 255);"/>
  <path d="M168,256H128a8,8,0,0,0,0,16h40a8,8,0,0,0,0-16Z" style="fill: rgb(255, 255, 255);"/>
  <path d="M168,288H128a8,8,0,0,0,0,16h40a8,8,0,0,0,0-16Z" style="fill: rgb(255, 255, 255);"/>
  <path d="M168,320H128a8,8,0,0,0,0,16h40a8,8,0,0,0,0-16Z" style="fill: rgb(255, 255, 255);"/>
  <path d="M272,256H248a8,8,0,0,0,0,16h24a8,8,0,0,0,0-16Z" style="fill: rgb(255, 255, 255);"/>
  <path d="M272,288H248a8,8,0,0,0,0,16h24a8,8,0,0,0,0-16Z" style="fill: rgb(255, 255, 255);"/>
  <path d="M240,416H128a8,8,0,0,0,0,16H240a8,8,0,0,0,0-16Z" style="fill: rgb(255, 255, 255);"/>
  <circle cx="184" cy="88" r="8" style="fill: rgb(255, 255, 255);"/>
  <circle cx="96" cy="264" r="8" style="fill: rgb(255, 255, 255);"/>
  <circle cx="96" cy="296" r="8" style="fill: rgb(255, 255, 255);"/>
  <circle cx="96" cy="328" r="8" style="fill: rgb(255, 255, 255);"/>
  <path d="M168,352H128a8,8,0,0,0,0,16h40a8,8,0,0,0,0-16Z" style="fill: rgb(255, 255, 255);"/>
  <circle cx="96" cy="360" r="8" style="fill: rgb(255, 255, 255);"/>
  <path d="M168,384H128a8,8,0,0,0,0,16h40a8,8,0,0,0,0-16Z" style="fill: rgb(255, 255, 255);"/>
  <circle cx="96" cy="392" r="8" style="fill: rgb(255, 255, 255);"/>
  <path d="M368,264a103.388,103.388,0,0,0-56,16.4V24a8,8,0,0,0-8-8H64a8,8,0,0,0-8,8V488a8,8,0,0,0,12.438,6.656L88,481.615l19.562,13.041a8,8,0,0,0,8.876,0L136,481.615l19.562,13.041a8,8,0,0,0,8.876,0L184,481.615l19.562,13.041a8,8,0,0,0,8.876,0L232,481.615l19.562,13.041a8,8,0,0,0,8.876,0L280,481.615l19.562,13.041A8,8,0,0,0,312,488V455.6A103.988,103.988,0,1,0,368,264ZM296,473.052l-11.562-7.708a8,8,0,0,0-8.876,0L256,478.385l-19.562-13.041a8,8,0,0,0-8.876,0L208,478.385l-19.562-13.041a8,8,0,0,0-8.876,0L160,478.385l-19.562-13.041a8,8,0,0,0-8.876,0L112,478.385,92.438,465.344a8,8,0,0,0-8.876,0L72,473.052V32H296V293.026a104.587,104.587,0,0,0-20.633,27.724A7.97,7.97,0,0,0,272,320H248a8,8,0,0,0,0,16h21.044a103.132,103.132,0,0,0-3.813,16H248a8,8,0,0,0,0,16h16a104.357,104.357,0,0,0,1.231,16H248a8,8,0,0,0,0,16h21.044A104.2,104.2,0,0,0,296,442.974ZM368,456a88,88,0,1,1,88-88A88.1,88.1,0,0,1,368,456Z" style="fill: rgb(255, 255, 255);"/>
  <path d="M396.116,321.14a8,8,0,0,0-10.976,2.744l-48,80a8,8,0,1,0,13.72,8.232l48-80A8,8,0,0,0,396.116,321.14Z" style="fill: rgb(255, 255, 255);"/>
  <path d="M360,336a24,24,0,1,0-24,24A24.027,24.027,0,0,0,360,336Zm-24,8a8,8,0,1,1,8-8A8.009,8.009,0,0,1,336,344Z" style="fill: rgb(255, 255, 255);"/>
  <path d="M400,376a24,24,0,1,0,24,24A24.027,24.027,0,0,0,400,376Zm0,32a8,8,0,1,1,8-8A8.009,8.009,0,0,1,400,408Z" style="fill: rgb(255, 255, 255);"/>
</svg>