<?xml version="1.0" encoding="utf-8"?>
<svg width="32" height="32" viewBox="0 0 32 32" fill="none" xmlns="http://www.w3.org/2000/svg">
    <path d="M16.0844 28.3529H6.37204C5.84189 28.3529 5.41211 27.9153 5.41211 27.3755V15.2127C5.41211 14.6729 5.84189 14.2353 6.37204 14.2353H23.8639C24.3941 14.2353 24.8239 14.6729 24.8239 15.2127V15.6471"
          stroke-width="1.5" stroke-linecap="round" stroke-linejoin="round" style="stroke: rgb(255, 255, 255);"/>
    <path d="M15.1182 19.9916V22.5329" stroke-width="2" stroke-linecap="round" stroke-linejoin="round"
          style="stroke: rgb(255, 255, 255);"/>
    <path d="M20.412 13.3529V8.56597C20.2951 7.46383 19.6867 6.43812 18.7068 5.69097C17.7269 4.94382 16.4464 4.52942 15.1178 4.52942C13.7893 4.52942 12.5088 4.94382 11.5289 5.69097C10.549 6.43812 9.94064 7.46383 9.82373 8.56597V13.3529"
          stroke-width="1.5" stroke-linecap="round" stroke-linejoin="round" style="stroke: rgb(255, 255, 255);"/>
    <path d="M8.8636 10.7059H1.95993C1.42978 10.7059 1 11.1435 1 11.6833V23.8461C1 24.3859 1.42978 24.8235 1.95993 24.8235H4.61345"
          stroke-width="1.5" stroke-linecap="round" stroke-linejoin="round" style="stroke: rgb(255, 255, 255);"/>
    <path d="M5.41162 9.82353V5.03655C5.52853 3.93441 6.13689 2.90871 7.11681 2.16156C8.09674 1.41441 9.37714 1 10.7057 1C12.0343 1 13.3148 1.41441 14.2947 2.16156C15.1224 2.79269 15.6851 3.62258 15.9103 4.52941"
          stroke-width="1.5" stroke-linecap="round" stroke-linejoin="round" style="stroke: rgb(255, 255, 255);"/>
    <path d="M25.0102 22.9853C23.9656 22.8851 23.0354 23.6266 22.9324 24.642C22.8293 25.6573 23.5921 26.5616 24.6367 26.6617C25.6812 26.7619 26.6115 26.0204 26.7145 25.005C26.7267 24.8844 26.7267 24.7626 26.7145 24.642C26.6243 23.766 25.9114 23.0733 25.0102 22.9853ZM29.5858 24.8235C29.5846 25.0244 29.5694 25.2247 29.5403 25.4235L30.8827 26.447C31.0036 26.5443 31.0341 26.7119 30.9555 26.8438L29.6855 28.9796C29.606 29.1101 29.4412 29.1661 29.2954 29.1121L27.9622 28.5903C27.8128 28.5326 27.6436 28.5513 27.5118 28.6408C27.3084 28.777 27.0946 28.898 26.8722 29.0027C26.7303 29.0697 26.632 29.2013 26.6103 29.3531L26.4105 30.7353C26.3835 30.886 26.2504 30.9968 26.0934 31H23.5535C23.3991 30.9974 23.2673 30.8909 23.2361 30.744L23.0366 29.3638C23.0137 29.2102 22.9136 29.0778 22.7693 29.0111C22.5472 28.9069 22.3344 28.7857 22.1321 28.6483C22.0006 28.5594 21.832 28.5409 21.6835 28.5989L20.3506 29.1205C20.2048 29.1745 20.04 29.1187 19.9605 28.9883L18.6905 26.8525C18.6115 26.7206 18.6424 26.5529 18.7633 26.4557L19.8978 25.5898C20.024 25.4922 20.0911 25.3396 20.076 25.1834C20.0653 25.0631 20.0587 24.943 20.0587 24.8226C20.0587 24.7023 20.065 24.5839 20.076 24.4662C20.0893 24.3112 20.0216 24.16 19.8957 24.0639L18.7618 23.198C18.643 23.1004 18.6133 22.9339 18.6914 22.8032L19.9614 20.6674C20.0409 20.5369 20.2057 20.4809 20.3515 20.5349L21.6847 21.0567C21.834 21.1144 22.0033 21.0957 22.1351 21.0062C22.3385 20.87 22.5523 20.7491 22.7747 20.6443C22.9166 20.5773 23.0149 20.4457 23.0366 20.2939L23.2364 18.9117C23.2634 18.761 23.3964 18.6502 23.5535 18.647H26.0934C26.2478 18.6496 26.3796 18.7561 26.4108 18.903L26.6103 20.2832C26.6332 20.4368 26.7332 20.5692 26.8775 20.6359C27.0996 20.7401 27.3125 20.8613 27.5147 20.9987C27.6463 21.0876 27.8149 21.1061 27.9634 21.0481L29.2963 20.5265C29.4421 20.4726 29.6068 20.5283 29.6864 20.6587L30.9564 22.7945C31.0353 22.9264 31.0045 23.0941 30.8836 23.1914L29.7491 24.0572C29.6223 24.1545 29.5546 24.3072 29.5694 24.4636C29.5792 24.5831 29.5858 24.7031 29.5858 24.8235Z"
          stroke-width="1.5" stroke-linecap="round" stroke-linejoin="round" style="stroke: rgb(255, 255, 255);"/>
</svg>