<?xml version="1.0" encoding="utf-8"?>
<svg viewBox="0 0 64 64" width="512" height="512" xmlns="http://www.w3.org/2000/svg">
  <g id="Glyph">
    <path d="M31,17.051v-2a16.865,16.865,0,0,0-6.5,1.715l.894,1.787A14.855,14.855,0,0,1,31,17.051Z"/>
    <path d="M22.758,46.248l.9-1.792a15.109,15.109,0,0,1-4.11-4.11l-1.792.9A17.11,17.11,0,0,0,22.758,46.248Z"/>
    <path d="M39.5,16.766A16.865,16.865,0,0,0,33,15.051v2a14.855,14.855,0,0,1,5.6,1.5Z" style="fill: rgb(33, 136, 201);"/>
    <path d="M31,13.051V4.025A27.813,27.813,0,0,0,19.576,6.917l4.032,8.063A18.821,18.821,0,0,1,31,13.051ZM22.54,8.888l.907-1.783A4.687,4.687,0,0,1,25.094,8.7l1.656-.414a4.145,4.145,0,0,1,.355-1.729L28,7l.9.434a2.544,2.544,0,0,0,.806,2.859l-1.414,1.414a5.57,5.57,0,0,1-1.078-1.48l-1.365.341A6.8,6.8,0,0,1,26,12H24A3.394,3.394,0,0,0,22.54,8.888Z" style="fill: rgb(33, 136, 201);"/>
    <path d="M15.051,33a16.865,16.865,0,0,0,1.715,6.5l1.787-.894a14.855,14.855,0,0,1-1.5-5.6Z" style="fill: rgb(33, 136, 201);"/>
    <path d="M13.051,33H4.025A27.813,27.813,0,0,0,6.917,44.424l8.063-4.032A18.821,18.821,0,0,1,13.051,33Zm-2.758,7.707L8,38.414V40H6V36a1,1,0,0,1,1-1h4v2H9.414l2.293,2.293Z"/>
    <path d="M14.98,23.608,6.917,19.576A27.813,27.813,0,0,0,4.025,31h9.026A18.821,18.821,0,0,1,14.98,23.608ZM8.543,25.337c.2.37,1.483.66,2.459.663a1,1,0,0,1,.025,2H11c-2.263,0-2.953.69-3,1.056L6,29a2.7,2.7,0,0,1,1.271-2.1,2.283,2.283,0,0,1-.492-.619,2.642,2.642,0,0,1,.389-2.836,2.869,2.869,0,0,1,2.57-1.556c1.792.111,2.944,2.238,3.157,2.664l-1.79.894c-.313-.619-1.026-1.534-1.492-1.562-.221-.01-.493.238-.781.67C8.562,24.959,8.493,25.244,8.543,25.337Z" style="fill: rgb(33, 136, 201);"/>
    <path d="M21.861,15.959,17.818,7.872a28.2,28.2,0,0,0-9.946,9.946l8.087,4.043A19.127,19.127,0,0,1,21.861,15.959ZM14,19H12V16a1,1,0,0,1,1-1h2V13a1,1,0,0,1,1-1h3v2H17v2a1,1,0,0,1-1,1H14Z"/>
    <path d="M23.654,19.544l-.9-1.792a17.11,17.11,0,0,0-5.006,5.006l1.792.9A15.109,15.109,0,0,1,23.654,19.544Z" style="fill: rgb(33, 136, 201);"/>
    <path d="M49.02,40.392l8.063,4.032A27.813,27.813,0,0,0,59.975,33H50.949A18.821,18.821,0,0,1,49.02,40.392Zm7-4.588,1.96.392-1,5L55.02,40.8Zm-3.99-.047,1.94.486-1,4-1.94-.486Z" style="fill: rgb(33, 136, 201);"/>
    <circle cx="49" cy="16" r="1"/>
    <path d="M48.041,21.861l8.087-4.043a28.2,28.2,0,0,0-9.946-9.946l-4.043,8.087A19.127,19.127,0,0,1,48.041,21.861ZM49,13a3,3,0,1,1-3,3A3,3,0,0,1,49,13Z" style="fill: rgb(33, 136, 201);"/>
    <path d="M48.949,33h-2a14.855,14.855,0,0,1-1.5,5.6l1.787.894A16.865,16.865,0,0,0,48.949,33Z"/>
    <path d="M50.949,31h9.026a27.813,27.813,0,0,0-2.892-11.424L49.02,23.608A18.821,18.821,0,0,1,50.949,31Zm2.021-6.243.245.98L55.3,25.32l-.27-1.077,1.94-.486,1,4-1.94.486-.245-.98L53.7,27.68l.27,1.077-1.94.486-1-4Z"/>
    <path d="M44.424,6.917A27.813,27.813,0,0,0,33,4.025v9.026a18.821,18.821,0,0,1,7.392,1.929Zm-6.869,4.915A1,1,0,0,1,36,11V8.618L34.553,7.9l.894-1.79,2,1A1,1,0,0,1,38,8V9.131l1.445-.963A1.006,1.006,0,0,1,40,8h2v2H40.3Z"/>
    <path d="M41.242,17.752l-.9,1.792a15.109,15.109,0,0,1,4.11,4.11l1.792-.9A17.11,17.11,0,0,0,41.242,17.752Z"/>
    <path d="M47.234,24.5l-1.787.894A14.855,14.855,0,0,1,46.949,31h2A16.865,16.865,0,0,0,47.234,24.5Z" style="fill: rgb(33, 136, 201);"/>
    <path d="M40.346,44.456l.9,1.792a17.11,17.11,0,0,0,5.006-5.006l-1.792-.9A15.109,15.109,0,0,1,40.346,44.456Z" style="fill: rgb(33, 136, 201);"/>
    <path d="M15.051,31h2a14.855,14.855,0,0,1,1.5-5.6L16.766,24.5A16.865,16.865,0,0,0,15.051,31Z"/>
    <path d="M35.2,38.02l3.19.637-1.315-3.285a1,1,0,0,1,.414-1.229L41.057,32l-3.572-2.143a1,1,0,0,1-.414-1.229l1.315-3.285-3.19.637a1,1,0,0,1-1.053-.465L32,21.944l-2.143,3.571a1,1,0,0,1-1.053.465l-3.19-.637,1.315,3.285a1,1,0,0,1-.414,1.229L22.943,32l3.572,2.143a1,1,0,0,1,.414,1.229l-1.315,3.285,3.19-.637A.938.938,0,0,1,29,38a1,1,0,0,1,.857.485L32,42.056l2.143-3.571A1,1,0,0,1,35.2,38.02ZM27,32a5,5,0,1,1,5,5A5.006,5.006,0,0,1,27,32Z"/>
    <path d="M42.139,48.041l4.043,8.087a28.2,28.2,0,0,0,9.946-9.946l-8.087-4.043A19.127,19.127,0,0,1,42.139,48.041Zm7.568-3.748,3,3a1,1,0,0,1,0,1.414l-3,3A1,1,0,0,1,49,52,.842.842,0,0,1,48.9,52a1,1,0,0,1-.733-.44L46.845,49.57l-1.138,1.137-1.414-1.414,2-2a1,1,0,0,1,1.539.152l1.323,1.985L50.586,48l-2.293-2.293Z"/>
    <circle cx="32" cy="32" r="3" style="fill: rgb(33, 136, 201);"/>
    <path d="M45,32A13,13,0,1,0,32,45a1,1,0,0,1-.857-.485l-2.638-4.4L24.2,40.98a1,1,0,0,1-1.125-1.352l1.684-4.209-4.27-2.562a1,1,0,0,1,0-1.714l4.27-2.562-1.684-4.209a1,1,0,0,1,.16-1.012.994.994,0,0,1,.965-.34l4.309.861,2.638-4.4a1.039,1.039,0,0,1,1.714,0l2.638,4.4L39.8,23.02a1,1,0,0,1,1.125,1.352l-1.684,4.209,4.27,2.562a1,1,0,0,1,0,1.714l-4.27,2.562,1.684,4.209A1,1,0,0,1,39.8,40.98l-4.309-.861-2.638,4.4A1,1,0,0,1,32,45,13.015,13.015,0,0,0,45,32Z"/>
    <path d="M19.576,57.083A27.813,27.813,0,0,0,31,59.975V50.949a18.821,18.821,0,0,1-7.392-1.929Zm9.108.866-6-2,.632-1.9,6,2ZM25.242,51.03l4,1-.484,1.94-4-1Z"/>
    <path d="M 32.92 50.949 L 32.92 59.975 C 36.891 59.838 40.786 58.852 44.344 57.083 L 40.312 49.02 C 38.006 50.162 35.49 50.818 32.92 50.949 Z M 41.828 56.418 C 41.701 56.693 41.456 56.897 41.162 56.97 L 37.162 57.97 C 37.083 57.99 37.002 58 36.92 58 C 36.462 58 36.063 57.688 35.951 57.243 L 34.951 53.243 L 36.891 52.757 L 37.649 55.787 L 39.469 55.332 L 38.02 52.447 L 39.81 51.553 L 41.81 55.553 C 41.947 55.824 41.954 56.142 41.828 56.418 Z" style="fill: rgb(33, 136, 201);"/>
    <path d="M33,48.949a16.865,16.865,0,0,0,6.5-1.715L38.6,45.447a14.855,14.855,0,0,1-5.6,1.5Z"/>
    <path d="M24.5,47.234A16.865,16.865,0,0,0,31,48.949v-2a14.855,14.855,0,0,1-5.6-1.5Z" style="fill: rgb(33, 136, 201);"/>
    <path d="M15.959,42.139,7.872,46.182a28.2,28.2,0,0,0,9.946,9.946l4.043-8.087A19.127,19.127,0,0,1,15.959,42.139Zm.748,10.568-1.414-1.414,2.138-2.138-1.154-.768-1.445,2.168-1.664-1.11,1.545-2.318L14,46.414l-2.293,2.293-1.414-1.414,3-3a1,1,0,0,1,1.414,0l1.93,1.93,2.918,1.945a1,1,0,0,1,.152,1.539Z" style="fill: rgb(33, 136, 201);"/>
  </g>
</svg>