<svg width="169" height="40" viewBox="0 0 169 40" fill="none" xmlns="http://www.w3.org/2000/svg">
    <path d="M52.9957 13.0499C53.3607 13.4149 53.5373 13.8977 53.5373 14.4864V26.3312C53.5373 26.9317 53.3607 27.4262 53.0075 27.7912C52.6542 28.1562 52.1951 28.3446 51.6299 28.3446C50.9705 28.3446 50.4642 28.1209 50.1228 27.6853L43.388 19.2903V26.3312C43.388 26.9317 43.2231 27.4262 42.8817 27.7912C42.5402 28.1562 42.081 28.3446 41.5041 28.3446C40.9389 28.3446 40.4797 28.1562 40.1265 27.7912C39.7733 27.4262 39.5967 26.9317 39.5967 26.3312V14.4982C39.5967 13.9095 39.7733 13.4267 40.1265 13.0617C40.4797 12.6967 40.9389 12.5083 41.5041 12.5083C42.1399 12.5083 42.6344 12.732 42.9876 13.1677L49.7225 21.5391V14.4982C49.7225 13.8977 49.8991 13.4149 50.2405 13.0499C50.582 12.6849 51.0412 12.5083 51.6063 12.5083C52.1715 12.4966 52.6307 12.6849 52.9957 13.0499Z"
          fill="white"/>
    <path d="M70.1743 13.0377C70.5393 13.4027 70.716 13.8854 70.716 14.4859V26.3307C70.716 26.9312 70.5393 27.4257 70.1743 27.7907C69.8093 28.1557 69.3266 28.3441 68.7261 28.3441C68.1256 28.3441 67.6429 28.1675 67.2779 27.8025C66.9129 27.4375 66.7363 26.9547 66.7363 26.3307V21.9036H60.3547V26.3307C60.3547 26.9312 60.1781 27.4257 59.8131 27.7907C59.4481 28.1557 58.9653 28.3441 58.3648 28.3441C57.7644 28.3441 57.2816 28.1675 56.9166 27.8025C56.5516 27.4375 56.375 26.9547 56.375 26.3307V14.4976C56.375 13.8972 56.5516 13.4144 56.9166 13.0494C57.2816 12.6844 57.7644 12.5078 58.3648 12.5078C58.9653 12.5078 59.4481 12.6844 59.8131 13.0494C60.1781 13.4144 60.3547 13.8972 60.3547 14.4976V18.6775H66.7363V14.4976C66.7363 13.8972 66.9129 13.4144 67.2779 13.0494C67.6429 12.6844 68.1256 12.5078 68.7261 12.5078C69.3266 12.5078 69.8211 12.6844 70.1743 13.0377Z"
          fill="white"/>
    <path d="M88.7066 26.543C88.7066 27.0257 88.5065 27.4378 88.1179 27.7792C87.7294 28.1207 87.282 28.2855 86.7757 28.2855C86.4342 28.2855 86.1281 28.1913 85.8455 28.0147C85.563 27.8381 85.3392 27.5673 85.1862 27.2141L84.1854 24.977H77.0149L75.9905 27.2141C75.8257 27.5673 75.602 27.8381 75.3194 28.0147C75.0368 28.1913 74.7189 28.2855 74.3775 28.2855C73.8712 28.2855 73.4238 28.1207 73.0117 27.7792C72.5996 27.4378 72.3994 27.0257 72.3994 26.543C72.3994 26.2721 72.4701 26.0013 72.5996 25.7188L78.4513 13.7209C78.6397 13.3205 78.9223 13.0144 79.2991 12.8025C79.6759 12.5905 80.088 12.4846 80.5472 12.4846C80.9946 12.4846 81.4067 12.5905 81.7834 12.8025C82.172 13.0144 82.4546 13.3205 82.643 13.7209L88.4947 25.7188C88.636 26.0013 88.7066 26.2721 88.7066 26.543ZM78.2983 11.366C78.0039 11.366 77.7449 11.2601 77.5094 11.0481C77.2857 10.8362 77.168 10.5889 77.168 10.3064C77.168 9.91781 77.3799 9.5999 77.8155 9.3291L79.2991 8.552C79.7818 8.26942 80.2057 8.12813 80.5589 8.12813C80.9121 8.12813 81.336 8.26942 81.8188 8.552L83.3023 9.3291C83.7497 9.61168 83.9617 9.94135 83.9617 10.3299C83.9617 10.6125 83.8439 10.8597 83.6202 11.0717C83.3965 11.2836 83.1257 11.3896 82.8313 11.3896C82.6076 11.3896 82.4075 11.3189 82.2073 11.1894L80.5472 10.1297L78.9576 11.1541C78.7575 11.2954 78.5338 11.366 78.2983 11.366ZM78.3807 21.9392H82.8078L80.5942 17.0059L78.3807 21.9392ZM83.5613 8.99942C83.3259 8.99942 83.1257 8.917 82.9609 8.74039C82.796 8.57555 82.7136 8.36361 82.7136 8.12813C82.7136 7.91619 82.796 7.71603 82.9609 7.5041L83.9852 6.22071C84.3149 5.80862 84.6917 5.59668 85.1155 5.59668C85.4805 5.59668 85.8102 5.74974 86.1046 6.06765C86.3989 6.38555 86.5402 6.727 86.5402 7.10378C86.5402 7.37458 86.4578 7.61006 86.3047 7.83377C86.1517 8.05748 85.9044 8.2341 85.5865 8.36361L83.9734 8.89345C83.8439 8.97587 83.7144 8.99942 83.5613 8.99942Z"
          fill="white"/>
    <path d="M92.4512 27.7912C92.0744 27.4262 91.886 26.9434 91.886 26.343V15.911H88.7659C88.1183 15.911 87.6356 15.7697 87.3176 15.4989C86.9997 15.2281 86.8467 14.8043 86.8467 14.2509C86.8467 13.6857 86.9997 13.2736 87.3176 13.0146C87.6356 12.7438 88.1183 12.6143 88.7659 12.6143H99.1272C99.7747 12.6143 100.257 12.7438 100.575 13.0146C100.893 13.2854 101.046 13.6975 101.046 14.2509C101.046 14.816 100.893 15.2281 100.575 15.4989C100.257 15.7697 99.7747 15.911 99.1272 15.911H96.007V26.343C96.007 26.9434 95.8186 27.4262 95.4418 27.7912C95.0651 28.1562 94.5705 28.3328 93.9465 28.3328C93.3225 28.3328 92.828 28.1562 92.4512 27.7912Z"
          fill="white"/>
    <path d="M112.785 27.7912C112.408 27.4262 112.22 26.9434 112.22 26.343V15.911H109.1C108.452 15.911 107.97 15.7697 107.652 15.4989C107.334 15.2281 107.181 14.8043 107.181 14.2509C107.181 13.6857 107.334 13.2736 107.652 13.0146C107.97 12.7438 108.452 12.6143 109.1 12.6143H119.461C120.109 12.6143 120.591 12.7438 120.909 13.0146C121.227 13.2854 121.38 13.6975 121.38 14.2509C121.38 14.816 121.227 15.2281 120.909 15.4989C120.591 15.7697 120.109 15.911 119.461 15.911H116.341V26.343C116.341 26.9434 116.153 27.4262 115.776 27.7912C115.399 28.1562 114.905 28.3328 114.28 28.3328C113.656 28.3328 113.162 28.1562 112.785 27.7912Z"
          fill="white"/>
    <path d="M136.228 26.7668C136.228 27.2377 136.028 27.6381 135.639 27.956C135.251 28.2739 134.791 28.4269 134.273 28.4269C133.92 28.4269 133.59 28.3445 133.272 28.1797C132.966 28.0148 132.696 27.7794 132.472 27.4497L129.587 23.2463C129.375 22.9519 129.163 22.7282 128.94 22.5869C128.716 22.4456 128.445 22.375 128.127 22.375H126.691V26.3429C126.691 26.9669 126.514 27.4497 126.161 27.8147C125.808 28.1797 125.325 28.3563 124.701 28.3563C124.077 28.3563 123.594 28.1797 123.229 27.8147C122.864 27.4497 122.688 26.9669 122.688 26.3429V14.4981C122.688 13.8976 122.852 13.4266 123.17 13.1087C123.5 12.779 123.959 12.626 124.56 12.626H130.117C132.001 12.626 133.426 13.0381 134.379 13.8505C135.333 14.6629 135.804 15.8521 135.804 17.4063C135.804 18.5837 135.474 19.5845 134.827 20.4087C134.179 21.2329 133.261 21.7745 132.083 22.0571C132.566 22.1277 132.99 22.2926 133.355 22.5398C133.72 22.7871 134.073 23.1639 134.426 23.6702L135.804 25.6365C136.098 26.0368 136.228 26.4135 136.228 26.7668ZM131.436 18.9016C131.824 18.619 132.024 18.1598 132.024 17.524C132.024 16.8765 131.824 16.4055 131.436 16.1229C131.047 15.8403 130.4 15.6873 129.493 15.6873H126.655V19.3137H129.493C130.4 19.3255 131.047 19.1842 131.436 18.9016Z"
          fill="white"/>
    <path d="M153.253 26.5428C153.253 27.0255 153.052 27.4376 152.664 27.7791C152.275 28.1205 151.828 28.2854 151.322 28.2854C150.98 28.2854 150.674 28.1912 150.391 28.0146C150.109 27.8379 149.885 27.5671 149.732 27.2139L148.731 24.9768H141.561L140.536 27.2139C140.372 27.5671 140.148 27.8379 139.865 28.0146C139.583 28.1912 139.265 28.2854 138.923 28.2854C138.417 28.2854 137.97 28.1205 137.558 27.7791C137.145 27.4376 136.945 27.0255 136.945 26.5428C136.945 26.272 137.016 26.0012 137.145 25.7186L142.997 13.7207C143.186 13.3204 143.468 13.0142 143.845 12.8023C144.222 12.5904 144.634 12.4844 145.093 12.4844C145.54 12.4844 145.953 12.5904 146.329 12.8023C146.718 13.0142 147 13.3204 147.189 13.7207L153.041 25.7186C153.194 26.0012 153.253 26.272 153.253 26.5428ZM142.844 11.3659C142.55 11.3659 142.291 11.2599 142.055 11.048C141.832 10.836 141.714 10.5888 141.714 10.3062C141.714 9.91764 141.926 9.59974 142.361 9.32893L143.845 8.55183C144.328 8.26925 144.752 8.12796 145.105 8.12796C145.458 8.12796 145.882 8.26925 146.365 8.55183L147.848 9.32893C148.296 9.61151 148.508 9.94119 148.508 10.3297C148.508 10.6123 148.39 10.8596 148.166 11.0715C147.942 11.2834 147.672 11.3894 147.377 11.3894C147.154 11.3894 146.953 11.3188 146.753 11.1893L145.093 10.1296L143.504 11.1539C143.303 11.2952 143.08 11.3659 142.844 11.3659ZM142.938 21.9391H147.365L145.152 17.0057L142.938 21.9391ZM146.906 8.26925C146.365 7.98667 146.082 7.6099 146.082 7.11538C146.082 6.75038 146.235 6.40893 146.553 6.09103C146.871 5.7849 147.224 5.63184 147.601 5.63184C148.048 5.63184 148.402 5.84377 148.661 6.27942L149.532 7.66877C149.65 7.84538 149.709 8.03377 149.709 8.22216C149.709 8.44587 149.626 8.63425 149.473 8.77554C149.32 8.92861 149.12 8.99925 148.884 8.99925C148.708 8.99925 148.484 8.94038 148.225 8.82264L146.906 8.26925Z"
          fill="white"/>
    <path d="M168.347 13.0499C168.712 13.4149 168.889 13.8977 168.889 14.4864V26.3312C168.889 26.9317 168.712 27.4262 168.359 27.7912C168.006 28.1562 167.547 28.3446 166.981 28.3446C166.322 28.3446 165.816 28.1209 165.474 27.6853L158.74 19.2903V26.3312C158.74 26.9317 158.575 27.4262 158.233 27.7912C157.892 28.1562 157.433 28.3446 156.856 28.3446C156.29 28.3446 155.831 28.1562 155.478 27.7912C155.125 27.4262 154.948 26.9317 154.948 26.3312V14.4982C154.948 13.9095 155.125 13.4267 155.478 13.0617C155.831 12.6967 156.29 12.5083 156.856 12.5083C157.491 12.5083 157.986 12.732 158.339 13.1677L165.074 21.5391V14.4982C165.074 13.8977 165.251 13.4149 165.592 13.0499C165.934 12.6849 166.393 12.5083 166.958 12.5083C167.523 12.4966 167.982 12.6849 168.347 13.0499Z"
          fill="white"/>
    <path d="M1.66016 10.6595L13.5639 3.78337C14.6 3.18289 15.8598 3.18289 16.896 3.78337L28.7996 10.6595C29.8358 11.26 30.4598 12.355 30.4598 13.5442V27.2846C30.4598 28.4738 29.824 29.5688 28.7996 30.1693L16.896 37.0454C15.8598 37.6459 14.6 37.6459 13.5639 37.0454L1.66016 30.1693C0.635806 29.5688 0 28.4738 0 27.2846V13.5442C0 12.355 0.635806 11.2482 1.66016 10.6595Z"
          fill="white"/>
    <path d="M20.6523 13.0849C20.4286 13.0849 20.1931 13.0261 19.9812 12.9083L15.2362 10.1649L10.7031 12.7788C10.0673 13.1438 9.24314 12.9201 8.87814 12.2843C8.51314 11.6485 8.72507 10.8243 9.37265 10.4593L14.5651 7.45689C14.9772 7.2214 15.4835 7.2214 15.9073 7.45689L21.3235 10.5888C21.9593 10.9538 22.183 11.778 21.818 12.4138C21.5589 12.8377 21.1115 13.0849 20.6523 13.0849Z"
          fill="#0092A5"/>
    <path d="M6.35829 19.2783H3.68555V26.3075H6.35829V19.2783Z" fill="#0092A5"/>
    <path d="M5.01571 28.8156C6.40079 28.8156 7.52361 27.6928 7.52361 26.3077C7.52361 24.9226 6.40079 23.7998 5.01571 23.7998C3.63064 23.7998 2.50781 24.9226 2.50781 26.3077C2.50781 27.6928 3.63064 28.8156 5.01571 28.8156Z"
          fill="#005F6D"/>
    <path d="M26.786 14.5098H24.1133V21.539H26.786V14.5098Z" fill="#0092A5"/>
    <path d="M25.4444 17.0178C26.8295 17.0178 27.9523 15.8949 27.9523 14.5099C27.9523 13.1248 26.8295 12.002 25.4444 12.002C24.0594 12.002 22.9365 13.1248 22.9365 14.5099C22.9365 15.8949 24.0594 17.0178 25.4444 17.0178Z"
          fill="#005F6D"/>
    <path d="M12.6222 18.066V19.7732C12.6222 20.0676 12.3043 20.256 12.0453 20.1147L6.35834 16.8297V20.0794C6.35834 20.774 5.85205 21.3981 5.1456 21.4687C4.34496 21.5394 3.67383 20.9153 3.67383 20.1382V14.5102C3.67383 14.0392 3.92109 13.5918 4.34496 13.3563C4.75705 13.1208 5.26334 13.1208 5.68721 13.3563L12.0099 17.0063C12.3985 17.23 12.6222 17.6303 12.6222 18.066Z"
          fill="#0092A5"/>
    <path d="M26.7863 20.6919V26.2611C26.7863 26.7438 26.5508 27.2148 26.1387 27.462C25.9268 27.5915 25.6913 27.6504 25.444 27.6504C25.2085 27.6504 24.9848 27.5915 24.7729 27.4738L18.4501 23.8238C18.0734 23.6001 17.8379 23.1998 17.8379 22.7641V21.0569C17.8379 20.7625 18.1558 20.5741 18.4148 20.7154L24.1018 24.0004V20.6919C24.1018 19.9501 24.7022 19.3496 25.444 19.3496C26.1858 19.3496 26.7863 19.9501 26.7863 20.6919Z"
          fill="#0092A5"/>
    <path d="M15.2358 33.5485C14.494 33.5485 13.8936 32.9481 13.8936 32.2063V8.61081C13.8936 7.86904 14.494 7.26855 15.2358 7.26855C15.9776 7.26855 16.5781 7.86904 16.5781 8.61081V32.2063C16.5663 32.9481 15.9776 33.5485 15.2358 33.5485Z"
          fill="#0092A5"/>
</svg>
