<?xml version="1.0" encoding="utf-8"?>
<svg id="_x31__x2C_5" enable-background="new 0 0 24 24" height="512" viewBox="0 0 24 24" width="512" xmlns="http://www.w3.org/2000/svg">
  <path d="m1.743 9.076c-.206 0-.412-.085-.561-.251-.275-.31-.247-.784.063-1.059 2.549-2.267 5.944-3.202 9.323-2.568.407.077.675.469.599.876-.077.407-.468.674-.876.599-2.916-.55-5.852.259-8.05 2.215-.142.126-.32.188-.498.188z" style="fill: rgb(67, 74, 84);"/>
  <path d="m.733 12.888c-.146 0-.294-.043-.424-.132-.342-.235-.428-.702-.193-1.043 2.392-3.473 6.673-5.147 10.649-4.163.402.099.647.506.549.908-.1.403-.504.652-.908.548-3.379-.837-7.016.596-9.053 3.557-.146.211-.38.325-.62.325z" style="fill: rgb(67, 74, 84);"/>
  <path d="m6.606 24c-.19 0-.381-.072-.526-.216-.133-.13-3.239-3.23-3.239-6.24 0-3.141 2.534-5.696 5.649-5.696s5.649 2.555 5.649 5.696c0 .414-.336.75-.75.75s-.75-.336-.75-.75c0-2.313-1.861-4.196-4.149-4.196s-4.149 1.882-4.149 4.196c0 2.381 2.765 5.146 2.793 5.173.294.292.297.766.006 1.061-.147.147-.34.222-.534.222z" style="fill: rgb(67, 74, 84);"/>
  <path d="m2.965 22.892c-.218 0-.434-.095-.582-.277-1.182-1.455-1.807-3.208-1.807-5.071 0-2.209.922-4.34 2.528-5.846 1.61-1.508 3.703-2.256 5.91-2.117 1.124.074 2.192.39 3.177.939.362.202.491.658.29 1.02-.201.36-.657.494-1.021.29-.789-.44-1.645-.693-2.545-.752-1.792-.121-3.482.493-4.786 1.714-1.305 1.223-2.054 2.955-2.054 4.751 0 1.515.509 2.941 1.471 4.126.262.321.212.793-.109 1.055-.138.112-.305.168-.472.168z" style="fill: rgb(67, 74, 84);"/>
  <path d="m10.371 24c-1.477 0-4.901-2.741-5.233-5.792-.117-1.101.224-2.186.934-2.979.629-.703 1.483-1.093 2.406-1.099.865-.033 1.732.324 2.342.93.483.479 1.059 1.365 1.059 2.863 0 .846.677 1.535 1.509 1.535.755 0 1.519-.571 1.519-1.661 0-1.192-.307-2.364-.887-3.394-.086-.121-.136-.269-.136-.427 0-.414.331-.75.745-.75h.01c.269 0 .516.143.649.375.731 1.27 1.118 2.72 1.118 4.195 0 2.053-1.556 3.161-3.019 3.161-1.659 0-3.009-1.361-3.009-3.035 0-.777-.213-1.399-.615-1.799-.415-.412-.925-.478-1.276-.494-.633.003-1.055.328-1.297.599-.422.471-.632 1.151-.561 1.819.261 2.398 3.124 4.453 3.742 4.453.414 0 .75.336.75.75s-.336.75-.75.75z" style="fill: rgb(67, 74, 84);"/>
  <path d="m12.589 22.859c-2.218 0-4.896-2.541-4.896-5.696 0-.414.336-.75.75-.75s.75.336.75.75c0 2.316 2.055 4.196 3.396 4.196.414 0 .75.336.75.75s-.336.75-.75.75z" style="fill: rgb(67, 74, 84);"/>
  <path d="m18 14c-.1 0-.199-.02-.293-.06-.233-.099-5.707-2.482-5.707-7.386v-4.018c0-.321.204-.606.509-.71l5.25-1.786c.156-.054.326-.054.482 0l5.25 1.786c.305.103.509.388.509.71v4.018c0 4.904-5.474 7.288-5.707 7.387-.094.039-.193.059-.293.059zm-4.5-10.927v3.481c0 3.348 3.455 5.341 4.499 5.866 1.042-.528 4.501-2.531 4.501-5.866v-3.481l-4.5-1.531z" style="fill: rgb(33, 136, 201);"/>
  <path d="m17.75 9.5c-.198 0-.39-.079-.53-.22l-2-2c-.293-.293-.293-.768 0-1.061s.768-.293 1.061 0l1.389 1.389 2.48-3.308c.246-.33.717-.399 1.05-.15.331.249.398.719.149 1.05l-3 4c-.13.174-.329.283-.547.298-.017.002-.034.002-.052.002z" style="fill: rgb(33, 136, 201);"/>
</svg>